999
dxflib 3.26.4.0
  0
SECTION
  2
HEADER
  9
$ACADVER
  1
AC1015
  9
$HANDSEED
  5
FFFF
  9
$DIMADEC
 70
0
  9
$DIMASZ
 40
0.125
  9
$DIMATFIT
 70
0
  9
$DIMAUNIT
 70
0
  9
$DIMAZIN
 70
2
  9
$DIMBLK
  1
0
  9
$DIMBLK1
  1
0
  9
$DIMBLK2
  1
0
  9
$DIMDEC
 70
4
  9
$DIMDLI
 40
0.25
  9
$DIMDSEP
 70
46
  9
$DIMEXE
 40
0.0625
  9
$DIMEXO
 40
0.03125
  9
$DIMGAP
 40
0.03125
  9
$DIMLFAC
 40
1.0
  9
$DIMLUNIT
 70
3
  9
$DIMSCALE
 40
1.0
  9
$DIMTAD
 70
1
  9
$DIMTIH
 70
0
  9
$DIMTSZ
 40
0.0
  9
$DIMTXT
 40
0.125
  9
$DIMZIN
 70
8
  9
$DWGCODEPAGE
  3
ANSI_1252
  9
$INSUNITS
 70
1
  9
$LTSCALE
 40
1.0
  9
$MAXACTVP
 70
64
  9
$MEASUREMENT
 70
0
  9
$MIRRTEXT
 70
0
  9
$PDMODE
 70
0
  9
$PDSIZE
 40
0.0
  0
ENDSEC
  0
SECTION
  2
TABLES
  0
TABLE
  2
VPORT
  5
8
100
AcDbSymbolTable
 70
1
  0
VPORT
  5
30
100
AcDbSymbolTableRecord
100
AcDbViewportTableRecord
  2
*Active
 70
0
 10
0.0
 20
0.0
 11
1.0
 21
1.0
 12
286.3055555555554861
 22
148.5
 13
0.0
 23
0.0
 14
10.0
 24
10.0
 15
10.0
 25
10.0
 16
0.0
 26
0.0
 36
1.0
 17
0.0
 27
0.0
 37
0.0
 40
297.0
 41
1.92798353909465
 42
50.0
 43
0.0
 44
0.0
 50
0.0
 51
0.0
 71
0
 72
100
 73
1
 74
3
 75
1
 76
1
 77
0
 78
0
281
0
 65
1
110
0.0
120
0.0
130
0.0
111
1.0
121
0.0
131
0.0
112
0.0
122
1.0
132
0.0
 79
0
146
0.0
  0
ENDTAB
  0
TABLE
  2
LTYPE
  5
5
100
AcDbSymbolTable
 70
41
  0
LTYPE
  5
16
100
AcDbSymbolTableRecord
100
AcDbLinetypeTableRecord
  2
Continuous
 70
0
  3
Solid line
 72
65
 73
0
 40
0.0
  0
LTYPE
  5
31
100
AcDbSymbolTableRecord
100
AcDbLinetypeTableRecord
  2
ACAD_ISO04W100
 70
0
  3
ISO long-dash dot ____ . ____ . ____ . ____ . _
 72
65
 73
4
 40
30.0
 49
24.0
 74
0
 49
-2.9500000000000002
 74
0
 49
0.1
 74
0
 49
-2.9500000000000002
 74
0
  0
LTYPE
  5
32
100
AcDbSymbolTableRecord
100
AcDbLinetypeTableRecord
  2
CENTER
 70
0
  3
Center ____ _ ____ _ ____ _ ____ _ ____ _ ____
 72
65
 73
4
 40
2.0
 49
1.25
 74
0
 49
-0.25
 74
0
 49
0.25
 74
0
 49
-0.25
 74
0
  0
LTYPE
  5
33
100
AcDbSymbolTableRecord
100
AcDbLinetypeTableRecord
  2
CENTER2
 70
0
  3
Center (.5x) ___ _ ___ _ ___ _ ___ _ ___ _ ___
 72
65
 73
4
 40
1.125
 49
0.75
 74
0
 49
-0.125
 74
0
 49
0.125
 74
0
 49
-0.125
 74
0
  0
LTYPE
  5
34
100
AcDbSymbolTableRecord
100
AcDbLinetypeTableRecord
  2
ACAD_ISO05W100
 70
0
  3
ISO long-dash double-dot ____ .. ____ .. ____ . 
 72
65
 73
6
 40
33.0000000000000071
 49
24.0
 74
0
 49
-2.9500000000000002
 74
0
 49
0.1
 74
0
 49
-2.9000000000000004
 74
0
 49
0.1
 74
0
 49
-2.9500000000000002
 74
0
  0
LTYPE
  5
35
100
AcDbSymbolTableRecord
100
AcDbLinetypeTableRecord
  2
DASHDOTX2
 70
0
  3
Dash dot (2x) ____  .  ____  .  ____  .  ___
 72
65
 73
4
 40
2.0
 49
1.0
 74
0
 49
-0.45
 74
0
 49
0.1
 74
0
 49
-0.45
 74
0
  0
LTYPE
  5
15
100
AcDbSymbolTableRecord
100
AcDbLinetypeTableRecord
  2
BYLAYER
 70
0
  3

 72
65
 73
0
 40
0.0
  0
LTYPE
  5
36
100
AcDbSymbolTableRecord
100
AcDbLinetypeTableRecord
  2
HIDDENX2
 70
0
  3
Hidden (2x) ____ ____ ____ ____ ____ ____ ____ 
 72
65
 73
2
 40
0.75
 49
0.5
 74
0
 49
-0.25
 74
0
  0
LTYPE
  5
37
100
AcDbSymbolTableRecord
100
AcDbLinetypeTableRecord
  2
ACAD_ISO02W100
 70
0
  3
ISO dash __ __ __ __ __ __ __ __ __ __ __ __ __
 72
65
 73
2
 40
15.0
 49
12.0
 74
0
 49
-3.0
 74
0
  0
LTYPE
  5
38
100
AcDbSymbolTableRecord
100
AcDbLinetypeTableRecord
  2
BORDER
 70
0
  3
Border __ __ . __ __ . __ __ . __ __ . __ __ .
 72
65
 73
6
 40
1.75
 49
0.5
 74
0
 49
-0.25
 74
0
 49
0.5
 74
0
 49
-0.2
 74
0
 49
0.1
 74
0
 49
-0.2
 74
0
  0
LTYPE
  5
39
100
AcDbSymbolTableRecord
100
AcDbLinetypeTableRecord
  2
DOT
 70
0
  3
Dot . . . . . . . . . . . . . . . . . . . . . . . .
 72
65
 73
2
 40
0.25
 49
0.1
 74
0
 49
-0.15
 74
0
  0
LTYPE
  5
3A
100
AcDbSymbolTableRecord
100
AcDbLinetypeTableRecord
  2
DASHEDX2
 70
0
  3
Dashed (2x) ____  ____  ____  ____  ____  ___
 72
65
 73
2
 40
1.5
 49
1.0
 74
0
 49
-0.5
 74
0
  0
LTYPE
  5
3B
100
AcDbSymbolTableRecord
100
AcDbLinetypeTableRecord
  2
DASHED2
 70
0
  3
Dashed (.5x) _ _ _ _ _ _ _ _ _ _ _ _ _ _ _ _ _ 
 72
65
 73
2
 40
0.375
 49
0.25
 74
0
 49
-0.125
 74
0
  0
LTYPE
  5
3C
100
AcDbSymbolTableRecord
100
AcDbLinetypeTableRecord
  2
PHANTOMX2
 70
0
  3
Phantom (2x) ____________    ____    ____   _
 72
65
 73
6
 40
5.0
 49
2.5
 74
0
 49
-0.5
 74
0
 49
0.5
 74
0
 49
-0.5
 74
0
 49
0.5
 74
0
 49
-0.5
 74
0
  0
LTYPE
  5
3D
100
AcDbSymbolTableRecord
100
AcDbLinetypeTableRecord
  2
ACAD_ISO11W100
 70
0
  3
ISO double-dash dot __ __ . __ __ . __ __ . __ _
 72
65
 73
6
 40
33.0
 49
12.0
 74
0
 49
-3.0
 74
0
 49
12.0
 74
0
 49
-2.9500000000000002
 74
0
 49
0.1
 74
0
 49
-2.9500000000000002
 74
0
  0
LTYPE
  5
3E
100
AcDbSymbolTableRecord
100
AcDbLinetypeTableRecord
  2
ACAD_ISO06W100
 70
0
  3
ISO long-dash triple-dot ____ ... ____ ... ____
 72
65
 73
8
 40
36.0000000000000071
 49
24.0
 74
0
 49
-2.9500000000000002
 74
0
 49
0.1
 74
0
 49
-2.9000000000000004
 74
0
 49
0.1
 74
0
 49
-2.9000000000000004
 74
0
 49
0.1
 74
0
 49
-2.9500000000000002
 74
0
  0
LTYPE
  5
3F
100
AcDbSymbolTableRecord
100
AcDbLinetypeTableRecord
  2
ACAD_ISO03W100
 70
0
  3
ISO dash space __    __    __    __    __    __
 72
65
 73
2
 40
30.0
 49
12.0
 74
0
 49
-18.0
 74
0
  0
LTYPE
  5
40
100
AcDbSymbolTableRecord
100
AcDbLinetypeTableRecord
  2
DASHED
 70
0
  3
Dashed __ __ __ __ __ __ __ __ __ __ __ __ __ _
 72
65
 73
2
 40
0.75
 49
0.5
 74
0
 49
-0.25
 74
0
  0
LTYPE
  5
41
100
AcDbSymbolTableRecord
100
AcDbLinetypeTableRecord
  2
ACAD_ISO09W100
 70
0
  3
ISO long-dash double-short-dash ____ __ __ ____
 72
65
 73
6
 40
45.0
 49
24.0
 74
0
 49
-3.0
 74
0
 49
6.0
 74
0
 49
-3.0
 74
0
 49
6.0
 74
0
 49
-3.0
 74
0
  0
LTYPE
  5
42
100
AcDbSymbolTableRecord
100
AcDbLinetypeTableRecord
  2
BORDER2
 70
0
  3
Border (.5x) __.__.__.__.__.__.__.__.__.__.__.
 72
65
 73
6
 40
0.8749999999999999
 49
0.25
 74
0
 49
-0.125
 74
0
 49
0.25
 74
0
 49
-0.075
 74
0
 49
0.1
 74
0
 49
-0.075
 74
0
  0
LTYPE
  5
43
100
AcDbSymbolTableRecord
100
AcDbLinetypeTableRecord
  2
HIDDEN
 70
0
  3
Hidden __ __ __ __ __ __ __ __ __ __ __ __ __ __
 72
65
 73
2
 40
0.375
 49
0.25
 74
0
 49
-0.125
 74
0
  0
LTYPE
  5
14
100
AcDbSymbolTableRecord
100
AcDbLinetypeTableRecord
  2
BYBLOCK
 70
0
  3

 72
65
 73
0
 40
0.0
  0
LTYPE
  5
44
100
AcDbSymbolTableRecord
100
AcDbLinetypeTableRecord
  2
DIVIDEX2
 70
0
  3
Divide (2x) ________  .  .  ________  .  .  _
 72
65
 73
6
 40
2.5000000000000004
 49
1.0
 74
0
 49
-0.45
 74
0
 49
0.1
 74
0
 49
-0.4
 74
0
 49
0.1
 74
0
 49
-0.45
 74
0
  0
LTYPE
  5
45
100
AcDbSymbolTableRecord
100
AcDbLinetypeTableRecord
  2
ACAD_ISO10W100
 70
0
  3
ISO dash dot __ . __ . __ . __ . __ . __ . __ . 
 72
65
 73
4
 40
18.0
 49
12.0
 74
0
 49
-2.9500000000000002
 74
0
 49
0.1
 74
0
 49
-2.9500000000000002
 74
0
  0
LTYPE
  5
46
100
AcDbSymbolTableRecord
100
AcDbLinetypeTableRecord
  2
ACAD_ISO14W100
 70
0
  3
ISO dash triple-dot __ . . . __ . . . __ . . . _
 72
65
 73
8
 40
24.0000000000000036
 49
12.0
 74
0
 49
-2.9500000000000002
 74
0
 49
0.1
 74
0
 49
-2.9000000000000004
 74
0
 49
0.1
 74
0
 49
-2.9000000000000004
 74
0
 49
0.1
 74
0
 49
-2.9500000000000002
 74
0
  0
LTYPE
  5
47
100
AcDbSymbolTableRecord
100
AcDbLinetypeTableRecord
  2
ACAD_ISO07W100
 70
0
  3
ISO dot . . . . . . . . . . . . . . . . . . . . 
 72
65
 73
2
 40
3.0
 49
0.1
 74
0
 49
-2.8999999999999999
 74
0
  0
LTYPE
  5
48
100
AcDbSymbolTableRecord
100
AcDbLinetypeTableRecord
  2
DOT2
 70
0
  3
Dot (.5x) ........................................
 72
65
 73
2
 40
0.125
 49
0.1
 74
0
 49
-0.025
 74
0
  0
LTYPE
  5
49
100
AcDbSymbolTableRecord
100
AcDbLinetypeTableRecord
  2
ACAD_ISO15W100
 70
0
  3
ISO double-dash triple-dot __ __ . . . __ __ . .
 72
65
 73
10
 40
39.0000000000000071
 49
12.0
 74
0
 49
-3.0
 74
0
 49
12.0
 74
0
 49
-2.9500000000000002
 74
0
 49
0.1
 74
0
 49
-2.9000000000000004
 74
0
 49
0.1
 74
0
 49
-2.9000000000000004
 74
0
 49
0.1
 74
0
 49
-2.9500000000000002
 74
0
  0
LTYPE
  5
4A
100
AcDbSymbolTableRecord
100
AcDbLinetypeTableRecord
  2
DASHDOT
 70
0
  3
Dash dot __ . __ . __ . __ . __ . __ . __ . __
 72
65
 73
4
 40
1.0
 49
0.5
 74
0
 49
-0.2
 74
0
 49
0.1
 74
0
 49
-0.2
 74
0
  0
LTYPE
  5
4B
100
AcDbSymbolTableRecord
100
AcDbLinetypeTableRecord
  2
ACAD_ISO13W100
 70
0
  3
ISO double-dash double-dot __ __ . . __ __ . . _
 72
65
 73
8
 40
36.0000000000000071
 49
12.0
 74
0
 49
-3.0
 74
0
 49
12.0
 74
0
 49
-2.9500000000000002
 74
0
 49
0.1
 74
0
 49
-2.9000000000000004
 74
0
 49
0.1
 74
0
 49
-2.9500000000000002
 74
0
  0
LTYPE
  5
4C
100
AcDbSymbolTableRecord
100
AcDbLinetypeTableRecord
  2
HIDDEN2
 70
0
  3
Hidden (.5x) _ _ _ _ _ _ _ _ _ _ _ _ _ _ _ _ _ 
 72
65
 73
2
 40
0.1875
 49
0.125
 74
0
 49
-0.0625
 74
0
  0
LTYPE
  5
4D
100
AcDbSymbolTableRecord
100
AcDbLinetypeTableRecord
  2
DOTX2
 70
0
  3
Dot (2x) .  .  .  .  .  .  .  .  .  .  .  .  .  .
 72
65
 73
2
 40
0.5
 49
0.1
 74
0
 49
-0.4
 74
0
  0
LTYPE
  5
4E
100
AcDbSymbolTableRecord
100
AcDbLinetypeTableRecord
  2
PHANTOM
 70
0
  3
Phantom ______  __  __  ______  __  __  ______ 
 72
65
 73
6
 40
2.5
 49
1.25
 74
0
 49
-0.25
 74
0
 49
0.25
 74
0
 49
-0.25
 74
0
 49
0.25
 74
0
 49
-0.25
 74
0
  0
LTYPE
  5
4F
100
AcDbSymbolTableRecord
100
AcDbLinetypeTableRecord
  2
ACAD_ISO12W100
 70
0
  3
ISO dash double-dot __ . . __ . . __ . . __ . . 
 72
65
 73
6
 40
21.0
 49
12.0
 74
0
 49
-2.9500000000000002
 74
0
 49
0.1
 74
0
 49
-2.9000000000000004
 74
0
 49
0.1
 74
0
 49
-2.9500000000000002
 74
0
  0
LTYPE
  5
50
100
AcDbSymbolTableRecord
100
AcDbLinetypeTableRecord
  2
ACAD_ISO08W100
 70
0
  3
ISO long-dash short-dash ____ __ ____ __ ____ _
 72
65
 73
4
 40
36.0
 49
24.0
 74
0
 49
-3.0
 74
0
 49
6.0
 74
0
 49
-3.0
 74
0
  0
LTYPE
  5
51
100
AcDbSymbolTableRecord
100
AcDbLinetypeTableRecord
  2
DASHDOT2
 70
0
  3
Dash dot (.5x) _._._._._._._._._._._._._._._.
 72
65
 73
4
 40
0.5
 49
0.25
 74
0
 49
-0.075
 74
0
 49
0.1
 74
0
 49
-0.075
 74
0
  0
LTYPE
  5
52
100
AcDbSymbolTableRecord
100
AcDbLinetypeTableRecord
  2
PHANTOM2
 70
0
  3
Phantom (.5x) ___ _ _ ___ _ _ ___ _ _ ___ _ _
 72
65
 73
6
 40
1.25
 49
0.625
 74
0
 49
-0.125
 74
0
 49
0.125
 74
0
 49
-0.125
 74
0
 49
0.125
 74
0
 49
-0.125
 74
0
  0
LTYPE
  5
53
100
AcDbSymbolTableRecord
100
AcDbLinetypeTableRecord
  2
CENTERX2
 70
0
  3
Center (2x) ________  __  ________  __  _____
 72
65
 73
4
 40
4.0
 49
2.5
 74
0
 49
-0.5
 74
0
 49
0.5
 74
0
 49
-0.5
 74
0
  0
LTYPE
  5
54
100
AcDbSymbolTableRecord
100
AcDbLinetypeTableRecord
  2
BORDERX2
 70
0
  3
Border (2x) ____  ____  .  ____  ____  .  ___
 72
65
 73
6
 40
3.5000000000000004
 49
1.0
 74
0
 49
-0.5
 74
0
 49
1.0
 74
0
 49
-0.45
 74
0
 49
0.1
 74
0
 49
-0.45
 74
0
  0
LTYPE
  5
55
100
AcDbSymbolTableRecord
100
AcDbLinetypeTableRecord
  2
DIVIDE2
 70
0
  3
Divide (.5x) __..__..__..__..__..__..__..__.._
 72
65
 73
6
 40
0.625
 49
0.25
 74
0
 49
-0.075
 74
0
 49
0.1
 74
0
 49
-0.025
 74
0
 49
0.1
 74
0
 49
-0.075
 74
0
  0
LTYPE
  5
56
100
AcDbSymbolTableRecord
100
AcDbLinetypeTableRecord
  2
DIVIDE
 70
0
  3
Divide ____ . . ____ . . ____ . . ____ . . ____
 72
65
 73
6
 40
1.25
 49
0.5
 74
0
 49
-0.2
 74
0
 49
0.1
 74
0
 49
-0.15
 74
0
 49
0.1
 74
0
 49
-0.2
 74
0
  0
ENDTAB
  0
TABLE
  2
LAYER
  5
2
100
AcDbSymbolTable
 70
1
  0
LAYER
  5
10
100
AcDbSymbolTableRecord
100
AcDbLayerTableRecord
  2
0
 70
0
 62
7
420
16777215
  6
Continuous
370
25
390
F
  0
ENDTAB
  0
TABLE
  2
STYLE
  5
3
100
AcDbSymbolTable
 70
67
  0
STYLE
  5
57
100
AcDbSymbolTableRecord
100
AcDbTextStyleTableRecord
  2
Standard
 70
0
 40
0.0
 41
1.0
 50
0.0
 71
0
 42
2.5
  3

  4

1001
ACAD
1000
txt
1071
0
  0
STYLE
  5
58
100
AcDbSymbolTableRecord
100
AcDbTextStyleTableRecord
  2
textstyle0
 70
0
 40
0.0
 41
1.0
 50
0.0
 71
0
 42
1.0
  3

  4

1001
ACAD
1000
Liberation Sans
1071
0
  0
STYLE
  5
59
100
AcDbSymbolTableRecord
100
AcDbTextStyleTableRecord
  2
textstyle1
 70
0
 40
0.0
 41
1.0
 50
0.0
 71
0
 42
1.0
  3

  4

1001
ACAD
1000
Liberation Sans
1071
0
  0
STYLE
  5
5A
100
AcDbSymbolTableRecord
100
AcDbTextStyleTableRecord
  2
textstyle2
 70
0
 40
0.0
 41
1.0
 50
0.0
 71
0
 42
1.0
  3

  4

1001
ACAD
1000
Liberation Sans
1071
0
  0
STYLE
  5
5B
100
AcDbSymbolTableRecord
100
AcDbTextStyleTableRecord
  2
textstyle3
 70
0
 40
0.0
 41
1.0
 50
0.0
 71
0
 42
1.0
  3

  4

1001
ACAD
1000
Liberation Sans
1071
0
  0
STYLE
  5
5C
100
AcDbSymbolTableRecord
100
AcDbTextStyleTableRecord
  2
textstyle4
 70
0
 40
0.0
 41
1.0
 50
0.0
 71
0
 42
1.0
  3

  4

1001
ACAD
1000
Liberation Sans
1071
0
  0
STYLE
  5
5D
100
AcDbSymbolTableRecord
100
AcDbTextStyleTableRecord
  2
textstyle5
 70
0
 40
0.0
 41
1.0
 50
0.0
 71
0
 42
1.0
  3

  4

1001
ACAD
1000
Liberation Sans
1071
0
  0
STYLE
  5
5E
100
AcDbSymbolTableRecord
100
AcDbTextStyleTableRecord
  2
textstyle6
 70
0
 40
0.0
 41
1.0
 50
0.0
 71
0
 42
1.0
  3

  4

1001
ACAD
1000
Liberation Sans
1071
0
  0
STYLE
  5
5F
100
AcDbSymbolTableRecord
100
AcDbTextStyleTableRecord
  2
textstyle7
 70
0
 40
0.0
 41
1.0
 50
0.0
 71
0
 42
1.0
  3

  4

1001
ACAD
1000
Liberation Sans
1071
0
  0
STYLE
  5
60
100
AcDbSymbolTableRecord
100
AcDbTextStyleTableRecord
  2
textstyle8
 70
0
 40
0.0
 41
1.0
 50
0.0
 71
0
 42
1.0
  3

  4

1001
ACAD
1000
Liberation Sans
1071
0
  0
STYLE
  5
61
100
AcDbSymbolTableRecord
100
AcDbTextStyleTableRecord
  2
textstyle9
 70
0
 40
0.0
 41
1.0
 50
0.0
 71
0
 42
1.0
  3

  4

1001
ACAD
1000
Liberation Sans
1071
0
  0
STYLE
  5
62
100
AcDbSymbolTableRecord
100
AcDbTextStyleTableRecord
  2
textstyle10
 70
0
 40
0.0
 41
1.0
 50
0.0
 71
0
 42
1.0
  3

  4

1001
ACAD
1000
Liberation Sans
1071
0
  0
STYLE
  5
63
100
AcDbSymbolTableRecord
100
AcDbTextStyleTableRecord
  2
textstyle11
 70
0
 40
0.0
 41
1.0
 50
0.0
 71
0
 42
1.0
  3

  4

1001
ACAD
1000
Liberation Sans
1071
0
  0
STYLE
  5
64
100
AcDbSymbolTableRecord
100
AcDbTextStyleTableRecord
  2
textstyle12
 70
0
 40
0.0
 41
1.0
 50
0.0
 71
0
 42
1.0
  3

  4

1001
ACAD
1000
Liberation Sans
1071
0
  0
STYLE
  5
65
100
AcDbSymbolTableRecord
100
AcDbTextStyleTableRecord
  2
textstyle13
 70
0
 40
0.0
 41
1.0
 50
0.0
 71
0
 42
1.0
  3

  4

1001
ACAD
1000
Liberation Sans
1071
0
  0
STYLE
  5
66
100
AcDbSymbolTableRecord
100
AcDbTextStyleTableRecord
  2
textstyle14
 70
0
 40
0.0
 41
1.0
 50
0.0
 71
0
 42
1.0
  3

  4

1001
ACAD
1000
Liberation Sans
1071
0
  0
STYLE
  5
67
100
AcDbSymbolTableRecord
100
AcDbTextStyleTableRecord
  2
textstyle15
 70
0
 40
0.0
 41
1.0
 50
0.0
 71
0
 42
1.0
  3

  4

1001
ACAD
1000
Liberation Sans
1071
0
  0
STYLE
  5
68
100
AcDbSymbolTableRecord
100
AcDbTextStyleTableRecord
  2
textstyle16
 70
0
 40
0.0
 41
1.0
 50
0.0
 71
0
 42
1.0
  3

  4

1001
ACAD
1000
Liberation Sans
1071
0
  0
STYLE
  5
69
100
AcDbSymbolTableRecord
100
AcDbTextStyleTableRecord
  2
textstyle17
 70
0
 40
0.0
 41
1.0
 50
0.0
 71
0
 42
1.0
  3

  4

1001
ACAD
1000
Liberation Sans
1071
0
  0
STYLE
  5
6A
100
AcDbSymbolTableRecord
100
AcDbTextStyleTableRecord
  2
textstyle18
 70
0
 40
0.0
 41
1.0
 50
0.0
 71
0
 42
1.0
  3

  4

1001
ACAD
1000
Liberation Sans
1071
0
  0
STYLE
  5
6B
100
AcDbSymbolTableRecord
100
AcDbTextStyleTableRecord
  2
textstyle19
 70
0
 40
0.0
 41
1.0
 50
0.0
 71
0
 42
1.0
  3

  4

1001
ACAD
1000
Liberation Sans
1071
0
  0
STYLE
  5
6C
100
AcDbSymbolTableRecord
100
AcDbTextStyleTableRecord
  2
textstyle20
 70
0
 40
0.0
 41
1.0
 50
0.0
 71
0
 42
1.0
  3

  4

1001
ACAD
1000
Liberation Sans
1071
0
  0
STYLE
  5
6D
100
AcDbSymbolTableRecord
100
AcDbTextStyleTableRecord
  2
textstyle21
 70
0
 40
0.0
 41
1.0
 50
0.0
 71
0
 42
1.0
  3

  4

1001
ACAD
1000
Liberation Sans
1071
0
  0
STYLE
  5
6E
100
AcDbSymbolTableRecord
100
AcDbTextStyleTableRecord
  2
textstyle22
 70
0
 40
0.0
 41
1.0
 50
0.0
 71
0
 42
1.0
  3

  4

1001
ACAD
1000
Liberation Sans
1071
0
  0
STYLE
  5
6F
100
AcDbSymbolTableRecord
100
AcDbTextStyleTableRecord
  2
textstyle23
 70
0
 40
0.0
 41
1.0
 50
0.0
 71
0
 42
1.0
  3

  4

1001
ACAD
1000
Liberation Sans
1071
0
  0
STYLE
  5
70
100
AcDbSymbolTableRecord
100
AcDbTextStyleTableRecord
  2
textstyle24
 70
0
 40
0.0
 41
1.0
 50
0.0
 71
0
 42
1.0
  3

  4

1001
ACAD
1000
Liberation Sans
1071
0
  0
STYLE
  5
71
100
AcDbSymbolTableRecord
100
AcDbTextStyleTableRecord
  2
textstyle25
 70
0
 40
0.0
 41
1.0
 50
0.0
 71
0
 42
1.0
  3

  4

1001
ACAD
1000
Liberation Sans
1071
0
  0
STYLE
  5
72
100
AcDbSymbolTableRecord
100
AcDbTextStyleTableRecord
  2
textstyle26
 70
0
 40
0.0
 41
1.0
 50
0.0
 71
0
 42
1.0
  3

  4

1001
ACAD
1000
Liberation Sans
1071
0
  0
STYLE
  5
73
100
AcDbSymbolTableRecord
100
AcDbTextStyleTableRecord
  2
textstyle27
 70
0
 40
0.0
 41
1.0
 50
0.0
 71
0
 42
1.0
  3

  4

1001
ACAD
1000
Liberation Sans
1071
0
  0
STYLE
  5
74
100
AcDbSymbolTableRecord
100
AcDbTextStyleTableRecord
  2
textstyle28
 70
0
 40
0.0
 41
1.0
 50
0.0
 71
0
 42
1.0
  3

  4

1001
ACAD
1000
Liberation Sans
1071
0
  0
STYLE
  5
75
100
AcDbSymbolTableRecord
100
AcDbTextStyleTableRecord
  2
textstyle29
 70
0
 40
0.0
 41
1.0
 50
0.0
 71
0
 42
1.0
  3

  4

1001
ACAD
1000
Liberation Sans
1071
0
  0
STYLE
  5
76
100
AcDbSymbolTableRecord
100
AcDbTextStyleTableRecord
  2
textstyle30
 70
0
 40
0.0
 41
1.0
 50
0.0
 71
0
 42
1.0
  3

  4

1001
ACAD
1000
Liberation Sans
1071
0
  0
STYLE
  5
77
100
AcDbSymbolTableRecord
100
AcDbTextStyleTableRecord
  2
textstyle31
 70
0
 40
0.0
 41
1.0
 50
0.0
 71
0
 42
1.0
  3

  4

1001
ACAD
1000
Liberation Sans
1071
0
  0
STYLE
  5
78
100
AcDbSymbolTableRecord
100
AcDbTextStyleTableRecord
  2
textstyle32
 70
0
 40
0.0
 41
1.0
 50
0.0
 71
0
 42
1.0
  3

  4

1001
ACAD
1000
Liberation Sans
1071
0
  0
STYLE
  5
79
100
AcDbSymbolTableRecord
100
AcDbTextStyleTableRecord
  2
textstyle33
 70
0
 40
0.0
 41
1.0
 50
0.0
 71
0
 42
1.0
  3

  4

1001
ACAD
1000
Liberation Sans
1071
0
  0
STYLE
  5
7A
100
AcDbSymbolTableRecord
100
AcDbTextStyleTableRecord
  2
textstyle34
 70
0
 40
0.0
 41
1.0
 50
0.0
 71
0
 42
1.0
  3

  4

1001
ACAD
1000
Liberation Sans
1071
0
  0
STYLE
  5
7B
100
AcDbSymbolTableRecord
100
AcDbTextStyleTableRecord
  2
textstyle35
 70
0
 40
0.0
 41
1.0
 50
0.0
 71
0
 42
1.0
  3

  4

1001
ACAD
1000
Liberation Sans
1071
0
  0
STYLE
  5
7C
100
AcDbSymbolTableRecord
100
AcDbTextStyleTableRecord
  2
textstyle36
 70
0
 40
0.0
 41
1.0
 50
0.0
 71
0
 42
1.0
  3

  4

1001
ACAD
1000
Liberation Sans
1071
0
  0
STYLE
  5
7D
100
AcDbSymbolTableRecord
100
AcDbTextStyleTableRecord
  2
textstyle37
 70
0
 40
0.0
 41
1.0
 50
0.0
 71
0
 42
1.0
  3

  4

1001
ACAD
1000
Liberation Sans
1071
0
  0
STYLE
  5
7E
100
AcDbSymbolTableRecord
100
AcDbTextStyleTableRecord
  2
textstyle38
 70
0
 40
0.0
 41
1.0
 50
0.0
 71
0
 42
1.0
  3

  4

1001
ACAD
1000
Liberation Sans
1071
0
  0
STYLE
  5
7F
100
AcDbSymbolTableRecord
100
AcDbTextStyleTableRecord
  2
textstyle39
 70
0
 40
0.0
 41
1.0
 50
0.0
 71
0
 42
1.0
  3

  4

1001
ACAD
1000
Liberation Sans
1071
0
  0
STYLE
  5
80
100
AcDbSymbolTableRecord
100
AcDbTextStyleTableRecord
  2
textstyle40
 70
0
 40
0.0
 41
1.0
 50
0.0
 71
0
 42
1.0
  3

  4

1001
ACAD
1000
Liberation Sans
1071
0
  0
STYLE
  5
81
100
AcDbSymbolTableRecord
100
AcDbTextStyleTableRecord
  2
textstyle41
 70
0
 40
0.0
 41
1.0
 50
0.0
 71
0
 42
1.0
  3

  4

1001
ACAD
1000
Liberation Sans
1071
0
  0
STYLE
  5
82
100
AcDbSymbolTableRecord
100
AcDbTextStyleTableRecord
  2
textstyle42
 70
0
 40
0.0
 41
1.0
 50
0.0
 71
0
 42
1.0
  3

  4

1001
ACAD
1000
Liberation Sans
1071
0
  0
STYLE
  5
83
100
AcDbSymbolTableRecord
100
AcDbTextStyleTableRecord
  2
textstyle43
 70
0
 40
0.0
 41
1.0
 50
0.0
 71
0
 42
1.0
  3

  4

1001
ACAD
1000
Liberation Sans
1071
0
  0
STYLE
  5
84
100
AcDbSymbolTableRecord
100
AcDbTextStyleTableRecord
  2
textstyle44
 70
0
 40
0.0
 41
1.0
 50
0.0
 71
0
 42
1.0
  3

  4

1001
ACAD
1000
Liberation Sans
1071
0
  0
STYLE
  5
85
100
AcDbSymbolTableRecord
100
AcDbTextStyleTableRecord
  2
textstyle45
 70
0
 40
0.0
 41
1.0
 50
0.0
 71
0
 42
1.0
  3

  4

1001
ACAD
1000
Liberation Sans
1071
0
  0
STYLE
  5
86
100
AcDbSymbolTableRecord
100
AcDbTextStyleTableRecord
  2
textstyle46
 70
0
 40
0.0
 41
1.0
 50
0.0
 71
0
 42
1.0
  3

  4

1001
ACAD
1000
Liberation Sans
1071
0
  0
STYLE
  5
87
100
AcDbSymbolTableRecord
100
AcDbTextStyleTableRecord
  2
textstyle47
 70
0
 40
0.0
 41
1.0
 50
0.0
 71
0
 42
1.0
  3

  4

1001
ACAD
1000
Liberation Sans
1071
0
  0
STYLE
  5
88
100
AcDbSymbolTableRecord
100
AcDbTextStyleTableRecord
  2
textstyle48
 70
0
 40
0.0
 41
1.0
 50
0.0
 71
0
 42
1.0
  3

  4

1001
ACAD
1000
Liberation Sans
1071
0
  0
STYLE
  5
89
100
AcDbSymbolTableRecord
100
AcDbTextStyleTableRecord
  2
textstyle49
 70
0
 40
0.0
 41
1.0
 50
0.0
 71
0
 42
1.0
  3

  4

1001
ACAD
1000
Liberation Sans
1071
0
  0
STYLE
  5
8A
100
AcDbSymbolTableRecord
100
AcDbTextStyleTableRecord
  2
textstyle50
 70
0
 40
0.0
 41
1.0
 50
0.0
 71
0
 42
1.0
  3

  4

1001
ACAD
1000
Liberation Sans
1071
0
  0
STYLE
  5
8B
100
AcDbSymbolTableRecord
100
AcDbTextStyleTableRecord
  2
textstyle51
 70
0
 40
0.0
 41
1.0
 50
0.0
 71
0
 42
1.0
  3

  4

1001
ACAD
1000
Liberation Sans
1071
0
  0
STYLE
  5
8C
100
AcDbSymbolTableRecord
100
AcDbTextStyleTableRecord
  2
textstyle52
 70
0
 40
0.0
 41
1.0
 50
0.0
 71
0
 42
1.0
  3

  4

1001
ACAD
1000
Liberation Sans
1071
0
  0
STYLE
  5
8D
100
AcDbSymbolTableRecord
100
AcDbTextStyleTableRecord
  2
textstyle53
 70
0
 40
0.0
 41
1.0
 50
0.0
 71
0
 42
1.0
  3

  4

1001
ACAD
1000
Liberation Sans
1071
0
  0
STYLE
  5
8E
100
AcDbSymbolTableRecord
100
AcDbTextStyleTableRecord
  2
textstyle54
 70
0
 40
0.0
 41
1.0
 50
0.0
 71
0
 42
1.0
  3

  4

1001
ACAD
1000
Liberation Sans
1071
0
  0
STYLE
  5
8F
100
AcDbSymbolTableRecord
100
AcDbTextStyleTableRecord
  2
textstyle55
 70
0
 40
0.0
 41
1.0
 50
0.0
 71
0
 42
1.0
  3

  4

1001
ACAD
1000
Liberation Sans
1071
0
  0
STYLE
  5
90
100
AcDbSymbolTableRecord
100
AcDbTextStyleTableRecord
  2
textstyle56
 70
0
 40
0.0
 41
1.0
 50
0.0
 71
0
 42
1.0
  3

  4

1001
ACAD
1000
Liberation Sans
1071
0
  0
STYLE
  5
91
100
AcDbSymbolTableRecord
100
AcDbTextStyleTableRecord
  2
textstyle57
 70
0
 40
0.0
 41
1.0
 50
0.0
 71
0
 42
1.0
  3

  4

1001
ACAD
1000
Liberation Sans
1071
0
  0
STYLE
  5
92
100
AcDbSymbolTableRecord
100
AcDbTextStyleTableRecord
  2
textstyle58
 70
0
 40
0.0
 41
1.0
 50
0.0
 71
0
 42
1.0
  3

  4

1001
ACAD
1000
Liberation Sans
1071
0
  0
STYLE
  5
93
100
AcDbSymbolTableRecord
100
AcDbTextStyleTableRecord
  2
textstyle59
 70
0
 40
0.0
 41
1.0
 50
0.0
 71
0
 42
1.0
  3

  4

1001
ACAD
1000
Liberation Sans
1071
0
  0
STYLE
  5
94
100
AcDbSymbolTableRecord
100
AcDbTextStyleTableRecord
  2
textstyle60
 70
0
 40
0.0
 41
1.0
 50
0.0
 71
0
 42
1.0
  3

  4

1001
ACAD
1000
Liberation Sans
1071
0
  0
STYLE
  5
95
100
AcDbSymbolTableRecord
100
AcDbTextStyleTableRecord
  2
textstyle61
 70
0
 40
0.0
 41
1.0
 50
0.0
 71
0
 42
1.0
  3

  4

1001
ACAD
1000
Liberation Sans
1071
0
  0
STYLE
  5
96
100
AcDbSymbolTableRecord
100
AcDbTextStyleTableRecord
  2
textstyle62
 70
0
 40
0.0
 41
1.0
 50
0.0
 71
0
 42
1.0
  3

  4

1001
ACAD
1000
Liberation Sans
1071
0
  0
STYLE
  5
97
100
AcDbSymbolTableRecord
100
AcDbTextStyleTableRecord
  2
textstyle63
 70
0
 40
0.0
 41
1.0
 50
0.0
 71
0
 42
1.0
  3

  4

1001
ACAD
1000
Liberation Sans
1071
0
  0
STYLE
  5
98
100
AcDbSymbolTableRecord
100
AcDbTextStyleTableRecord
  2
textstyle64
 70
0
 40
0.0
 41
1.0
 50
0.0
 71
0
 42
1.0
  3

  4

1001
ACAD
1000
Liberation Sans
1071
0
  0
STYLE
  5
99
100
AcDbSymbolTableRecord
100
AcDbTextStyleTableRecord
  2
textstyle65
 70
0
 40
0.0
 41
1.0
 50
0.0
 71
0
 42
1.0
  3

  4

1001
ACAD
1000
Liberation Sans
1071
0
  0
ENDTAB
  0
TABLE
  2
VIEW
  5
6
100
AcDbSymbolTable
 70
0
  0
ENDTAB
  0
TABLE
  2
UCS
  5
7
100
AcDbSymbolTable
 70
0
  0
ENDTAB
  0
TABLE
  2
APPID
  5
9
100
AcDbSymbolTable
 70
1
  0
APPID
  5
12
100
AcDbSymbolTableRecord
100
AcDbRegAppTableRecord
  2
ACAD
 70
0
  0
APPID
  5
9A
100
AcDbSymbolTableRecord
100
AcDbRegAppTableRecord
  2
QCAD
 70
0
  0
ENDTAB
  0
TABLE
  2
DIMSTYLE
  5
A
100
AcDbSymbolTable
 70
1
100
AcDbDimStyleTable
 71
0
  0
DIMSTYLE
105
27
100
AcDbSymbolTableRecord
100
AcDbDimStyleTableRecord
  2
Standard
 41
0.125
 42
0.03125
 43
3.75
 44
0.0625
 70
0
 73
0
 74
0
 77
1
 78
8
140
0.125
141
2.5
143
0.03937007874016
147
0.03125
171
3
172
1
271
2
272
2
274
3
278
44
283
0
284
8
340
57
  0
ENDTAB
  0
TABLE
  2
BLOCK_RECORD
  5
1
100
AcDbSymbolTable
 70
1
  0
BLOCK_RECORD
  5
1F
100
AcDbSymbolTableRecord
100
AcDbBlockTableRecord
  2
*Model_Space
340
22
  0
BLOCK_RECORD
  5
1B
100
AcDbSymbolTableRecord
100
AcDbBlockTableRecord
  2
*Paper_Space
340
1E
  0
BLOCK_RECORD
  5
23
100
AcDbSymbolTableRecord
100
AcDbBlockTableRecord
  2
*Paper_Space0
340
26
  0
ENDTAB
  0
ENDSEC
  0
SECTION
  2
BLOCKS
  0
BLOCK
  5
20
100
AcDbEntity
  8
0
100
AcDbBlockBegin
  2
*Model_Space
 70
0
 10
0.0
 20
0.0
 30
0.0
  3
*Model_Space
  1

  0
ENDBLK
  5
21
100
AcDbEntity
  8
0
100
AcDbBlockEnd
  0
BLOCK
  5
1C
100
AcDbEntity
 67
1
  8
0
100
AcDbBlockBegin
  2
*Paper_Space
 70
0
 10
0.0
 20
0.0
 30
0.0
  3
*Paper_Space
  1

  0
ENDBLK
  5
1D
100
AcDbEntity
 67
1
  8
0
100
AcDbBlockEnd
  0
BLOCK
  5
24
100
AcDbEntity
  8
0
100
AcDbBlockBegin
  2
*Paper_Space0
 70
0
 10
0.0
 20
0.0
 30
0.0
  3
*Paper_Space0
  1

  0
ENDBLK
  5
25
100
AcDbEntity
  8
0
100
AcDbBlockEnd
  0
ENDSEC
  0
SECTION
  2
ENTITIES
  0
LINE
  5
9B
100
AcDbEntity
  8
0
 62
256
370
-1
 48
1.0
  6
BYLAYER
100
AcDbLine
 10
50.1049014656408005
 20
-378.2981088965605068
 30
0.0
 11
50.1049014656408005
 21
-708.2981088965605068
 31
0.0
  0
LINE
  5
9C
100
AcDbEntity
  8
0
 62
256
370
-1
 48
1.0
  6
BYLAYER
100
AcDbLine
 10
150.3207444217767659
 20
-378.2981088965605068
 30
0.0
 11
150.3207444217767659
 21
-708.2981088965605068
 31
0.0
  0
LINE
  5
9D
100
AcDbEntity
  8
0
 62
256
370
-1
 48
1.0
  6
BYLAYER
100
AcDbLine
 10
50.1049014656408005
 20
-1198.2981088965605068
 30
0.0
 11
100.1049014656408076
 21
-1198.2981088965605068
 31
0.0
  0
LINE
  5
9E
100
AcDbEntity
  8
0
 62
256
370
-1
 48
1.0
  6
BYLAYER
100
AcDbLine
 10
110.0638000883815835
 20
-1137.2675887978143692
 30
0.0
 11
110.0638000883815835
 21
-1167.2675887978143692
 31
0.0
  0
LINE
  5
9F
100
AcDbEntity
  8
0
 62
256
370
-1
 48
1.0
  6
BYLAYER
100
AcDbLine
 10
110.0638000883815835
 20
-1167.2675887978143692
 30
0.0
 11
140.0638000883815835
 21
-1167.2675887978143692
 31
0.0
  0
LINE
  5
A0
100
AcDbEntity
  8
0
 62
256
370
-1
 48
1.0
  6
BYLAYER
100
AcDbLine
 10
140.0638000883815835
 20
-1167.2675887978143692
 30
0.0
 11
140.0638000883815835
 21
-1137.2675887978143692
 31
0.0
  0
LINE
  5
A1
100
AcDbEntity
  8
0
 62
256
370
-1
 48
1.0
  6
BYLAYER
100
AcDbLine
 10
140.0638000883815835
 20
-1137.2675887978143692
 30
0.0
 11
110.0638000883815835
 21
-1137.2675887978143692
 31
0.0
  0
LINE
  5
A2
100
AcDbEntity
  8
0
 62
256
370
-1
 48
1.0
  6
BYLAYER
100
AcDbLine
 10
110.0638000883815835
 20
-1127.2675887978143692
 30
0.0
 11
140.0638000883815835
 21
-1127.2675887978143692
 31
0.0
  0
LINE
  5
A3
100
AcDbEntity
  8
0
 62
256
370
-1
 48
1.0
  6
BYLAYER
100
AcDbLine
 10
140.0638000883815835
 20
-1127.2675887978143692
 30
0.0
 11
140.0638000883815835
 21
-1097.2675887978143692
 31
0.0
  0
LINE
  5
A4
100
AcDbEntity
  8
0
 62
256
370
-1
 48
1.0
  6
BYLAYER
100
AcDbLine
 10
140.0638000883815835
 20
-1097.2675887978143692
 30
0.0
 11
110.0638000883815835
 21
-1097.2675887978143692
 31
0.0
  0
LINE
  5
A5
100
AcDbEntity
  8
0
 62
256
370
-1
 48
1.0
  6
BYLAYER
100
AcDbLine
 10
110.0638000883815835
 20
-1097.2675887978143692
 30
0.0
 11
110.0638000883815835
 21
-1127.2675887978143692
 31
0.0
  0
LINE
  5
A6
100
AcDbEntity
  8
0
 62
256
370
-1
 48
1.0
  6
BYLAYER
100
AcDbLine
 10
110.0638000883815835
 20
-1087.2675887978143692
 30
0.0
 11
140.0638000883815835
 21
-1087.2675887978143692
 31
0.0
  0
LINE
  5
A7
100
AcDbEntity
  8
0
 62
256
370
-1
 48
1.0
  6
BYLAYER
100
AcDbLine
 10
140.0638000883815835
 20
-1087.2675887978143692
 30
0.0
 11
140.0638000883815835
 21
-1057.2675887978143692
 31
0.0
  0
LINE
  5
A8
100
AcDbEntity
  8
0
 62
256
370
-1
 48
1.0
  6
BYLAYER
100
AcDbLine
 10
140.0638000883815835
 20
-1057.2675887978143692
 30
0.0
 11
110.0638000883815835
 21
-1057.2675887978143692
 31
0.0
  0
LINE
  5
A9
100
AcDbEntity
  8
0
 62
256
370
-1
 48
1.0
  6
BYLAYER
100
AcDbLine
 10
110.0638000883815835
 20
-1057.2675887978143692
 30
0.0
 11
110.0638000883815835
 21
-1087.2675887978143692
 31
0.0
  0
LINE
  5
AA
100
AcDbEntity
  8
0
 62
256
370
-1
 48
1.0
  6
BYLAYER
100
AcDbLine
 10
110.0638000883815835
 20
-1047.2675887978143692
 30
0.0
 11
140.0638000883815835
 21
-1047.2675887978143692
 31
0.0
  0
LINE
  5
AB
100
AcDbEntity
  8
0
 62
256
370
-1
 48
1.0
  6
BYLAYER
100
AcDbLine
 10
140.0638000883815835
 20
-1047.2675887978143692
 30
0.0
 11
140.0638000883815835
 21
-1017.2675887978142555
 31
0.0
  0
LINE
  5
AC
100
AcDbEntity
  8
0
 62
256
370
-1
 48
1.0
  6
BYLAYER
100
AcDbLine
 10
140.0638000883815835
 20
-1017.2675887978142555
 30
0.0
 11
110.0638000883815835
 21
-1017.2675887978142555
 31
0.0
  0
LINE
  5
AD
100
AcDbEntity
  8
0
 62
256
370
-1
 48
1.0
  6
BYLAYER
100
AcDbLine
 10
110.0638000883815835
 20
-1017.2675887978142555
 30
0.0
 11
110.0638000883815835
 21
-1047.2675887978143692
 31
0.0
  0
LINE
  5
AE
100
AcDbEntity
  8
0
 62
256
370
-1
 48
1.0
  6
BYLAYER
100
AcDbLine
 10
50.1049014656408005
 20
-818.2981088965605068
 30
0.0
 11
100.1049014656408076
 21
-818.2981088965605068
 31
0.0
  0
MTEXT
  5
AF
100
AcDbEntity
  8
0
 62
256
370
-1
 48
1.0
  6
BYLAYER
100
AcDbMText
 10
114.0638000883813419
 20
-1150.2675887978143692
 30
0.0
 40
1.0
 41
0.0
 71
1
 72
1
  1
\C4;\H4;SELECT
  7
textstyle43
 50
0.0
 73
2
 44
1.0
  0
MTEXT
  5
B0
100
AcDbEntity
  8
0
 62
256
370
-1
 48
1.0
  6
BYLAYER
100
AcDbMText
 10
118.1749537560216652
 20
-1070.1842797832728138
 30
0.0
 40
1.0
 41
0.0
 71
1
 72
1
  1
\C6;\H4;SOLO
  7
textstyle45
 50
0.0
 73
2
 44
1.0
  0
MTEXT
  5
B1
100
AcDbEntity
  8
0
 62
256
370
-1
 48
1.0
  6
BYLAYER
100
AcDbMText
 10
112.1611987227110205
 20
-1031.1743984730569537
 30
0.0
 40
1.0
 41
0.0
 71
1
 72
1
  1
\C2;\H3;SUB-GROUP
  7
textstyle44
 50
0.0
 73
2
 44
1.0
  0
CIRCLE
  5
B2
100
AcDbEntity
  8
0
 62
256
370
-1
 48
1.0
  6
BYLAYER
100
AcDbCircle
 10
75.191086310525975
 20
-452.2548463990876826
 30
0.0
 40
14.0068454321331384
  0
CIRCLE
  5
B3
100
AcDbEntity
  8
0
 62
256
370
-1
 48
1.0
  6
BYLAYER
100
AcDbCircle
 10
120.1049014656408076
 20
-702.3049543286936114
 30
0.0
 40
14.0068454321331384
  0
CIRCLE
  5
B4
100
AcDbEntity
  8
0
 62
256
370
-1
 48
1.0
  6
BYLAYER
100
AcDbCircle
 10
75.191086310525975
 20
-399.8257789637406177
 30
0.0
 40
15.3222380642777267
  0
CIRCLE
  5
B5
100
AcDbEntity
  8
0
 62
256
370
-1
 48
1.0
  6
BYLAYER
100
AcDbCircle
 10
75.2382277126395707
 20
-649.0947672885814654
 30
0.0
 40
15.3222380642777267
  0
CIRCLE
  5
B6
100
AcDbEntity
  8
0
 62
256
370
-1
 48
1.0
  6
BYLAYER
100
AcDbCircle
 10
75.191086310525975
 20
-346.0452982785652125
 30
0.0
 40
16.2291027109358268
  0
CIRCLE
  5
B7
100
AcDbEntity
  8
0
 62
256
370
-1
 48
1.0
  6
BYLAYER
100
AcDbCircle
 10
120.1049014656408076
 20
-594.5272116074963833
 30
0.0
 40
16.2291027109358268
  0
CIRCLE
  5
B8
100
AcDbEntity
  8
0
 62
256
370
-1
 48
1.0
  6
BYLAYER
100
AcDbCircle
 10
74.7196436783549984
 20
-291.597789362996707
 30
0.0
 40
15.5260538628588911
  0
CIRCLE
  5
B9
100
AcDbEntity
  8
0
 62
256
370
-1
 48
1.0
  6
BYLAYER
100
AcDbCircle
 10
74.7667850804685941
 20
-540.866777687837498
 30
0.0
 40
15.5260538628588911
  0
LINE
  5
BA
100
AcDbEntity
  8
0
 62
256
370
-1
 48
1.0
  6
BYLAYER
100
AcDbLine
 10
50.1049014656408005
 20
-378.2981088965605068
 30
0.0
 11
50.1049014656408005
 21
-358.2981088965605068
 31
0.0
  0
LINE
  5
BB
100
AcDbEntity
  8
0
 62
256
370
-1
 48
1.0
  6
BYLAYER
100
AcDbLine
 10
150.3207444217767659
 20
-378.2981088965605068
 30
0.0
 11
150.3207444217767659
 21
-358.2981088965605068
 31
0.0
  0
LINE
  5
BC
100
AcDbEntity
  8
0
 62
256
370
-1
 48
1.0
  6
BYLAYER
100
AcDbLine
 10
50.1520428677543961
 20
-627.5670972214013545
 30
0.0
 11
50.1520428677543961
 21
-607.5670972214013545
 31
0.0
  0
LINE
  5
BD
100
AcDbEntity
  8
0
 62
256
370
-1
 48
1.0
  6
BYLAYER
100
AcDbLine
 10
150.3678858238903615
 20
-627.5670972214013545
 30
0.0
 11
150.3678858238903615
 21
-607.5670972214013545
 31
0.0
  0
LINE
  5
BE
100
AcDbEntity
  8
0
 62
256
370
-1
 48
1.0
  6
BYLAYER
100
AcDbLine
 10
50.1049014656408005
 20
-368.2981088965605068
 30
0.0
 11
50.1049014656408005
 21
-338.2981088965605068
 31
0.0
  0
LINE
  5
BF
100
AcDbEntity
  8
0
 62
256
370
-1
 48
1.0
  6
BYLAYER
100
AcDbLine
 10
150.3207444217767659
 20
-368.2981088965605068
 30
0.0
 11
150.3207444217767659
 21
-338.2981088965605068
 31
0.0
  0
LINE
  5
C0
100
AcDbEntity
  8
0
 62
256
370
-1
 48
1.0
  6
BYLAYER
100
AcDbLine
 10
50.1520428677543961
 20
-617.5670972214013545
 30
0.0
 11
50.1520428677543961
 21
-587.5670972214013545
 31
0.0
  0
LINE
  5
C1
100
AcDbEntity
  8
0
 62
256
370
-1
 48
1.0
  6
BYLAYER
100
AcDbLine
 10
150.3678858238903615
 20
-617.5670972214013545
 30
0.0
 11
150.3678858238903615
 21
-587.5670972214013545
 31
0.0
  0
LINE
  5
C2
100
AcDbEntity
  8
0
 62
256
370
-1
 48
1.0
  6
BYLAYER
100
AcDbLine
 10
50.1049014656408005
 20
-338.2981088965605068
 30
0.0
 11
50.1049014656408005
 21
-258.2981088965605068
 31
0.0
  0
LINE
  5
C3
100
AcDbEntity
  8
0
 62
256
370
-1
 48
1.0
  6
BYLAYER
100
AcDbLine
 10
150.3207444217767659
 20
-338.2981088965605068
 30
0.0
 11
150.3207444217767659
 21
-258.2981088965605068
 31
0.0
  0
LINE
  5
C4
100
AcDbEntity
  8
0
 62
256
370
-1
 48
1.0
  6
BYLAYER
100
AcDbLine
 10
50.1049014656408005
 20
-258.2981088965605068
 30
0.0
 11
100.1049014656408076
 21
-258.2981088965605068
 31
0.0
  0
MTEXT
  5
C5
100
AcDbEntity
  8
0
 62
256
370
-1
 48
1.0
  6
BYLAYER
100
AcDbMText
 10
66.0843232734053743
 20
-473.4040437791030058
 30
0.0
 40
1.0
 41
0.0
 71
1
 72
1
  1
\H5;RATIO
  7
textstyle46
 50
0.0
 73
2
 44
1.0
  0
MTEXT
  5
C6
100
AcDbEntity
  8
0
 62
256
370
-1
 48
1.0
  6
BYLAYER
100
AcDbMText
 10
110.9981384285204342
 20
-723.4541517087089915
 30
0.0
 40
1.0
 41
0.0
 71
1
 72
1
  1
\H5;RATIO
  7
textstyle48
 50
0.0
 73
2
 44
1.0
  0
MTEXT
  5
C7
100
AcDbEntity
  8
0
 62
256
370
-1
 48
1.0
  6
BYLAYER
100
AcDbMText
 10
64.6699953768925582
 20
-421.0739116081243765
 30
0.0
 40
1.0
 41
0.0
 71
1
 72
1
  1
\H5;ATTACK
  7
textstyle47
 50
0.0
 73
2
 44
1.0
  0
MTEXT
  5
C8
100
AcDbEntity
  8
0
 62
256
370
-1
 48
1.0
  6
BYLAYER
100
AcDbMText
 10
64.7171367790057417
 20
-670.3428999329653379
 30
0.0
 40
1.0
 41
0.0
 71
1
 72
1
  1
\H5;ATTACK
  7
textstyle50
 50
0.0
 73
2
 44
1.0
  0
MTEXT
  5
C9
100
AcDbEntity
  8
0
 62
256
370
-1
 48
1.0
  6
BYLAYER
100
AcDbMText
 10
60.1049014656406939
 20
-368.2981088965605068
 30
0.0
 40
1.0
 41
0.0
 71
1
 72
1
  1
\H5;RELEASE
  7
textstyle49
 50
0.0
 73
2
 44
1.0
  0
MTEXT
  5
CA
100
AcDbEntity
  8
0
 62
256
370
-1
 48
1.0
  6
BYLAYER
100
AcDbMText
 10
105.0187166207552423
 20
-616.7800222254916207
 30
0.0
 40
1.0
 41
0.0
 71
1
 72
1
  1
\H5;RELEASE
  7
textstyle33
 50
0.0
 73
2
 44
1.0
  0
MTEXT
  5
CB
100
AcDbEntity
  8
0
 62
256
370
-1
 48
1.0
  6
BYLAYER
100
AcDbMText
 10
61.3698969516958002
 20
-313.5849914731412582
 30
0.0
 40
1.0
 41
0.0
 71
1
 72
1
  1
\H5;THRESH
  7
textstyle32
 50
0.0
 73
2
 44
1.0
  0
MTEXT
  5
CC
100
AcDbEntity
  8
0
 62
256
370
-1
 48
1.0
  6
BYLAYER
100
AcDbMText
 10
61.4170383538093532
 20
-562.8539797979819923
 30
0.0
 40
1.0
 41
0.0
 71
1
 72
1
  1
\H5;THRESH
  7
textstyle34
 50
0.0
 73
2
 44
1.0
  0
LINE
  5
CD
100
AcDbEntity
  8
0
 62
256
370
-1
 48
1.0
  6
BYLAYER
100
AcDbLine
 10
50.1049014656408005
 20
-258.2981088965605068
 30
0.0
 11
50.1049014656408005
 21
-58.2981088965605068
 31
0.0
  0
LINE
  5
CE
100
AcDbEntity
  8
0
 62
256
370
-1
 48
1.0
  6
BYLAYER
100
AcDbLine
 10
150.3207444217767659
 20
-258.2981088965605068
 30
0.0
 11
150.3207444217767659
 21
-58.2981088965605068
 31
0.0
  0
LINE
  5
CF
100
AcDbEntity
  8
0
 62
256
370
-1
 48
1.0
  6
BYLAYER
100
AcDbLine
 10
50.1049014656408005
 20
181.7018911034394932
 30
0.0
 11
100.1049014656408076
 21
181.7018911034394932
 31
0.0
  0
LINE
  5
D0
100
AcDbEntity
  8
0
 62
256
370
-1
 48
1.0
  6
BYLAYER
100
AcDbLine
 10
69.7731762074817539
 20
-282.5718765958216636
 30
0.0
 11
74.7196436783549984
 21
-291.597789362996707
 31
0.0
  0
LINE
  5
D1
100
AcDbEntity
  8
0
 62
256
370
-1
 48
1.0
  6
BYLAYER
100
AcDbLine
 10
69.8203176095953495
 20
-531.8408649206625114
 30
0.0
 11
74.7667850804685941
 21
-540.866777687837498
 31
0.0
  0
LINE
  5
D2
100
AcDbEntity
  8
0
 62
256
370
-1
 48
1.0
  6
BYLAYER
100
AcDbLine
 10
70.1049014656408076
 20
-338.2981088965605068
 30
0.0
 11
75.191086310525975
 21
-346.0452982785652125
 31
0.0
  0
LINE
  5
D3
100
AcDbEntity
  8
0
 62
256
370
-1
 48
1.0
  6
BYLAYER
100
AcDbLine
 10
115.0187166207556402
 20
-586.7800222254916207
 30
0.0
 11
120.1049014656408076
 21
-594.5272116074963833
 31
0.0
  0
LINE
  5
D4
100
AcDbEntity
  8
0
 62
256
370
-1
 48
1.0
  6
BYLAYER
100
AcDbLine
 10
72.5232582284791079
 20
-391.7894197154317339
 30
0.0
 11
75.191086310525975
 21
-399.8257789637406177
 31
0.0
  0
LINE
  5
D5
100
AcDbEntity
  8
0
 62
256
370
-1
 48
1.0
  6
BYLAYER
100
AcDbLine
 10
72.5703996305927035
 20
-641.0584080402725249
 30
0.0
 11
75.2382277126395707
 21
-649.0947672885814654
 31
0.0
  0
LINE
  5
D6
100
AcDbEntity
  8
0
 62
256
370
-1
 48
1.0
  6
BYLAYER
100
AcDbLine
 10
75.6662091096189897
 20
-444.0409781143818577
 30
0.0
 11
75.191086310525975
 21
-452.2548463990876826
 31
0.0
  0
LINE
  5
D7
100
AcDbEntity
  8
0
 62
256
370
-1
 48
1.0
  6
BYLAYER
100
AcDbLine
 10
120.5800242647338223
 20
-694.0910860439878434
 30
0.0
 11
120.1049014656408076
 21
-702.3049543286936114
 31
0.0
  0
LINE
  5
D8
100
AcDbEntity
  8
0
 62
256
370
-1
 48
1.0
  6
BYLAYER
100
AcDbLine
 10
60.1049014656408005
 20
-248.2981088965605068
 30
0.0
 11
90.1049014656408076
 21
-248.2981088965605068
 31
0.0
  0
LINE
  5
D9
100
AcDbEntity
  8
0
 62
256
370
-1
 48
1.0
  6
BYLAYER
100
AcDbLine
 10
60.1049014656408005
 20
-228.2981088965605068
 30
0.0
 11
90.1049014656408076
 21
-228.2981088965605068
 31
0.0
  0
LINE
  5
DA
100
AcDbEntity
  8
0
 62
256
370
-1
 48
1.0
  6
BYLAYER
100
AcDbLine
 10
60.1049014656408005
 20
-208.2981088965605068
 30
0.0
 11
90.1049014656408076
 21
-208.2981088965605068
 31
0.0
  0
LINE
  5
DB
100
AcDbEntity
  8
0
 62
256
370
-1
 48
1.0
  6
BYLAYER
100
AcDbLine
 10
60.1049014656408005
 20
-188.2981088965605068
 30
0.0
 11
90.1049014656408076
 21
-188.2981088965605068
 31
0.0
  0
LINE
  5
DC
100
AcDbEntity
  8
0
 62
256
370
-1
 48
1.0
  6
BYLAYER
100
AcDbLine
 10
60.1049014656408005
 20
-168.2981088965605068
 30
0.0
 11
90.1049014656408076
 21
-168.2981088965605068
 31
0.0
  0
LINE
  5
DD
100
AcDbEntity
  8
0
 62
256
370
-1
 48
1.0
  6
BYLAYER
100
AcDbLine
 10
60.1049014656408005
 20
-148.2981088965605068
 30
0.0
 11
90.1049014656408076
 21
-148.2981088965605068
 31
0.0
  0
LINE
  5
DE
100
AcDbEntity
  8
0
 62
256
370
-1
 48
1.0
  6
BYLAYER
100
AcDbLine
 10
60.1049014656408005
 20
-128.2981088965605068
 30
0.0
 11
90.1049014656408076
 21
-128.2981088965605068
 31
0.0
  0
LINE
  5
DF
100
AcDbEntity
  8
0
 62
256
370
-1
 48
1.0
  6
BYLAYER
100
AcDbLine
 10
60.1049014656408005
 20
-108.2981088965605068
 30
0.0
 11
90.1049014656408076
 21
-108.2981088965605068
 31
0.0
  0
LINE
  5
E0
100
AcDbEntity
  8
0
 62
256
370
-1
 48
1.0
  6
BYLAYER
100
AcDbLine
 10
60.1049014656408005
 20
-88.2981088965605068
 30
0.0
 11
90.1049014656408076
 21
-88.2981088965605068
 31
0.0
  0
LINE
  5
E1
100
AcDbEntity
  8
0
 62
256
370
-1
 48
1.0
  6
BYLAYER
100
AcDbLine
 10
60.1049014656408005
 20
-68.2981088965605068
 30
0.0
 11
90.1049014656408076
 21
-68.2981088965605068
 31
0.0
  0
MTEXT
  5
E2
100
AcDbEntity
  8
0
 62
256
370
-1
 48
1.0
  6
BYLAYER
100
AcDbMText
 10
51.1049014656407863
 20
-247.2981088965605068
 30
0.0
 40
1.0
 41
0.0
 71
1
 72
1
  1
\C7;\H2.5;31.25
  7
textstyle36
 50
0.0
 73
2
 44
1.0
  0
MTEXT
  5
E3
100
AcDbEntity
  8
0
 62
256
370
-1
 48
1.0
  6
BYLAYER
100
AcDbMText
 10
52.1049014656406797
 20
-227.2981088965604499
 30
0.0
 40
1.0
 41
0.0
 71
1
 72
1
  1
\C7;\H2.5;62.5
  7
textstyle35
 50
0.0
 73
2
 44
1.0
  0
MTEXT
  5
E4
100
AcDbEntity
  8
0
 62
256
370
-1
 48
1.0
  6
BYLAYER
100
AcDbMText
 10
53.1049014656406158
 20
-207.2981088965605636
 30
0.0
 40
1.0
 41
0.0
 71
1
 72
1
  1
\C7;\H2.5;125
  7
textstyle38
 50
0.0
 73
2
 44
1.0
  0
MTEXT
  5
E5
100
AcDbEntity
  8
0
 62
256
370
-1
 48
1.0
  6
BYLAYER
100
AcDbMText
 10
53.1049014656407508
 20
-187.2981088965605068
 30
0.0
 40
1.0
 41
0.0
 71
1
 72
1
  1
\C7;\H2.5;250
  7
textstyle37
 50
0.0
 73
2
 44
1.0
  0
MTEXT
  5
E6
100
AcDbEntity
  8
0
 62
256
370
-1
 48
1.0
  6
BYLAYER
100
AcDbMText
 10
53.1049014656408502
 20
-167.2981088965605352
 30
0.0
 40
1.0
 41
0.0
 71
1
 72
1
  1
\C7;\H2.5;500
  7
textstyle40
 50
0.0
 73
2
 44
1.0
  0
MTEXT
  5
E7
100
AcDbEntity
  8
0
 62
256
370
-1
 48
1.0
  6
BYLAYER
100
AcDbMText
 10
54.1049014656406939
 20
-147.2981088965604783
 30
0.0
 40
1.0
 41
0.0
 71
1
 72
1
  1
\C7;\H2.5;1K
  7
textstyle39
 50
0.0
 73
2
 44
1.0
  0
MTEXT
  5
E8
100
AcDbEntity
  8
0
 62
256
370
-1
 48
1.0
  6
BYLAYER
100
AcDbMText
 10
54.1049014656408573
 20
-127.2981088965605068
 30
0.0
 40
1.0
 41
0.0
 71
1
 72
1
  1
\C7;\H2.5;2K
  7
textstyle42
 50
0.0
 73
2
 44
1.0
  0
MTEXT
  5
E9
100
AcDbEntity
  8
0
 62
256
370
-1
 48
1.0
  6
BYLAYER
100
AcDbMText
 10
54.1049014656408218
 20
-107.2981088965605068
 30
0.0
 40
1.0
 41
0.0
 71
1
 72
1
  1
\C7;\H2.5;4K
  7
textstyle41
 50
0.0
 73
2
 44
1.0
  0
MTEXT
  5
EA
100
AcDbEntity
  8
0
 62
256
370
-1
 48
1.0
  6
BYLAYER
100
AcDbMText
 10
54.1049014656407365
 20
-87.2981088965604783
 30
0.0
 40
1.0
 41
0.0
 71
1
 72
1
  1
\C7;\H2.5;8K
  7
textstyle61
 50
0.0
 73
2
 44
1.0
  0
MTEXT
  5
EB
100
AcDbEntity
  8
0
 62
256
370
-1
 48
1.0
  6
BYLAYER
100
AcDbMText
 10
53.1049014656408502
 20
-67.2981088965604783
 30
0.0
 40
1.0
 41
0.0
 71
1
 72
1
  1
\C7;\H2.5;16K
  7
textstyle60
 50
0.0
 73
2
 44
1.0
  0
LINE
  5
EC
100
AcDbEntity
  8
0
 62
256
370
-1
 48
1.0
  6
BYLAYER
100
AcDbLine
 10
49.6321141761096385
 20
-890.9393574304731374
 30
0.0
 11
50.1049014656408005
 21
-998.2981088965605068
 31
0.0
  0
LINE
  5
ED
100
AcDbEntity
  8
0
 62
256
370
-1
 48
1.0
  6
BYLAYER
100
AcDbLine
 10
149.8479571322456252
 20
-890.9393574304731374
 30
0.0
 11
150.3207444217767659
 21
-998.2981088965605068
 31
0.0
  0
LINE
  5
EE
100
AcDbEntity
  8
0
 62
256
370
-1
 48
1.0
  6
BYLAYER
100
AcDbLine
 10
50.1049014656408005
 20
-518.2981088965605068
 30
0.0
 11
100.1049014656408076
 21
-518.2981088965605068
 31
0.0
  0
LINE
  5
EF
100
AcDbEntity
  8
0
 62
256
370
-1
 48
1.0
  6
BYLAYER
100
AcDbLine
 10
50.1049014656408076
 20
-818.2981088965605068
 30
0.0
 11
50.1049014656408076
 21
-888.2981088965599383
 31
0.0
  0
LINE
  5
F0
100
AcDbEntity
  8
0
 62
256
370
-1
 48
1.0
  6
BYLAYER
100
AcDbLine
 10
150.3207444217767943
 20
-818.2981088965605068
 30
0.0
 11
150.3207444217767943
 21
-888.2981088965599383
 31
0.0
  0
LINE
  5
F1
100
AcDbEntity
  8
0
 62
256
370
-1
 48
1.0
  6
BYLAYER
100
AcDbLine
 10
50.1049014656408005
 20
-708.2981088965605068
 30
0.0
 11
50.1049014656408076
 21
-818.2981088965605068
 31
0.0
  0
LINE
  5
F2
100
AcDbEntity
  8
0
 62
256
370
-1
 48
1.0
  6
BYLAYER
100
AcDbLine
 10
150.3207444217767659
 20
-708.2981088965605068
 30
0.0
 11
150.3207444217767943
 21
-818.2981088965605068
 31
0.0
  0
CIRCLE
  5
F3
100
AcDbEntity
  8
0
 62
256
370
-1
 48
1.0
  6
BYLAYER
100
AcDbCircle
 10
74.9030513146152828
 20
-782.0725052144796337
 30
0.0
 40
10.7242325218254759
  0
MTEXT
  5
F4
100
AcDbEntity
  8
0
 62
256
370
-1
 48
1.0
  6
BYLAYER
100
AcDbMText
 10
120.063800088381555
 20
-507.2675887978142555
 30
0.0
 40
1.0
 41
0.0
 71
1
 72
1
  1
\C7;\H2.5;OPTO GAIN
  7
textstyle62
 50
0.0
 73
2
 44
1.0
  0
LINE
  5
F5
100
AcDbEntity
  8
0
 62
256
370
-1
 48
1.0
  6
BYLAYER
100
AcDbLine
 10
50.0638000883815764
 20
582.7324112021857445
 30
0.0
 11
50.0638000883815764
 21
682.7324112021857445
 31
0.0
  0
LINE
  5
F6
100
AcDbEntity
  8
0
 62
256
370
-1
 48
1.0
  6
BYLAYER
100
AcDbLine
 10
150.2796430445175417
 20
582.7324112021857445
 30
0.0
 11
150.2796430445175417
 21
682.7324112021857445
 31
0.0
  0
LINE
  5
F7
100
AcDbEntity
  8
0
 62
256
370
-1
 48
1.0
  6
BYLAYER
100
AcDbLine
 10
50.0638000883815764
 20
682.7324112021857445
 30
0.0
 11
100.0638000883815835
 21
682.7324112021857445
 31
0.0
  0
MTEXT
  5
F8
100
AcDbEntity
  8
0
 62
256
370
-1
 48
1.0
  6
BYLAYER
100
AcDbMText
 10
75.7577494869029522
 20
667.4099460422687571
 30
0.0
 40
1.0
 41
0.0
 71
5
 72
1
  1
\C7;\H4;UNBALANCED\PLINE \PCONVERSION
  7
textstyle63
 50
0.0
 73
2
 44
1.0
  0
LINE
  5
F9
100
AcDbEntity
  8
0
 62
256
370
-1
 48
1.0
  6
BYLAYER
100
AcDbLine
 10
70.0638000883815835
 20
652.7324112021857445
 30
0.0
 11
70.0638000883815835
 21
642.7324112021857445
 31
0.0
  0
LINE
  5
FA
100
AcDbEntity
  8
0
 62
256
370
-1
 48
1.0
  6
BYLAYER
100
AcDbLine
 10
70.0638000883815835
 20
642.7324112021857445
 30
0.0
 11
80.0638000883815835
 21
642.7324112021857445
 31
0.0
  0
LINE
  5
FB
100
AcDbEntity
  8
0
 62
256
370
-1
 48
1.0
  6
BYLAYER
100
AcDbLine
 10
80.0638000883815835
 20
642.7324112021857445
 30
0.0
 11
80.0638000883815835
 21
652.7324112021857445
 31
0.0
  0
LINE
  5
FC
100
AcDbEntity
  8
0
 62
256
370
-1
 48
1.0
  6
BYLAYER
100
AcDbLine
 10
80.0638000883815835
 20
652.7324112021857445
 30
0.0
 11
70.0638000883815835
 21
652.7324112021857445
 31
0.0
  0
LINE
  5
FD
100
AcDbEntity
  8
0
 62
256
370
-1
 48
1.0
  6
BYLAYER
100
AcDbLine
 10
70.0638000883815835
 20
622.7324112021857445
 30
0.0
 11
70.0638000883815835
 21
612.7324112021857445
 31
0.0
  0
LINE
  5
FE
100
AcDbEntity
  8
0
 62
256
370
-1
 48
1.0
  6
BYLAYER
100
AcDbLine
 10
70.0638000883815835
 20
612.7324112021857445
 30
0.0
 11
80.0638000883815835
 21
612.7324112021857445
 31
0.0
  0
LINE
  5
FF
100
AcDbEntity
  8
0
 62
256
370
-1
 48
1.0
  6
BYLAYER
100
AcDbLine
 10
80.0638000883815835
 20
612.7324112021857445
 30
0.0
 11
80.0638000883815835
 21
622.7324112021857445
 31
0.0
  0
LINE
  5
100
100
AcDbEntity
  8
0
 62
256
370
-1
 48
1.0
  6
BYLAYER
100
AcDbLine
 10
80.0638000883815835
 20
622.7324112021857445
 30
0.0
 11
70.0638000883815835
 21
622.7324112021857445
 31
0.0
  0
MTEXT
  5
101
100
AcDbEntity
  8
0
 62
256
370
-1
 48
1.0
  6
BYLAYER
100
AcDbMText
 10
74.8537873411122092
 20
636.5477932174778744
 30
0.0
 40
1.0
 41
0.0
 71
5
 72
1
  1
\C7;\H2;CLEAN
  7
textstyle64
 50
0.0
 73
2
 44
1.0
  0
MTEXT
  5
102
100
AcDbEntity
  8
0
 62
256
370
-1
 48
1.0
  6
BYLAYER
100
AcDbMText
 10
75.0432495614741129
 20
604.7181401966749945
 30
0.0
 40
1.0
 41
0.0
 71
5
 72
1
  1
\C7;\H2;VINTAGE
  7
textstyle65
 50
0.0
 73
2
 44
1.0
  0
LINE
  5
103
100
AcDbEntity
  8
0
 62
256
370
-1
 48
1.0
  6
BYLAYER
100
AcDbLine
 10
50.1049014656408005
 20
121.7018911034394932
 30
0.0
 11
50.1049014656408005
 21
-58.2981088965605068
 31
0.0
  0
LINE
  5
104
100
AcDbEntity
  8
0
 62
256
370
-1
 48
1.0
  6
BYLAYER
100
AcDbLine
 10
150.3207444217767659
 20
121.7018911034394932
 30
0.0
 11
150.3207444217767659
 21
-58.2981088965605068
 31
0.0
  0
LINE
  5
105
100
AcDbEntity
  8
0
 62
256
370
-1
 48
1.0
  6
BYLAYER
100
AcDbLine
 10
50.1049014656408005
 20
-58.2981088965605068
 30
0.0
 11
100.1049014656408076
 21
-58.2981088965605068
 31
0.0
  0
CIRCLE
  5
106
100
AcDbEntity
  8
0
 62
256
370
-1
 48
1.0
  6
BYLAYER
100
AcDbCircle
 10
120.1049014656408076
 20
99.7846891287993003
 30
0.0
 40
11.9172019746402356
  0
CIRCLE
  5
107
100
AcDbEntity
  8
0
 62
256
370
-1
 48
1.0
  6
BYLAYER
100
AcDbCircle
 10
75.0293956849496624
 20
64.5713622374311171
 30
0.0
 40
12.1796387101246051
  0
CIRCLE
  5
108
100
AcDbEntity
  8
0
 62
256
370
-1
 48
1.0
  6
BYLAYER
100
AcDbCircle
 10
119.9531874884000899
 20
23.2533333238336581
 30
0.0
 40
13.294643270507132
  0
CIRCLE
  5
109
100
AcDbEntity
  8
0
 62
256
370
-1
 48
1.0
  6
BYLAYER
100
AcDbCircle
 10
75.3567864017350644
 20
-14.4417498963098296
 30
0.0
 40
13.9285416825107617
  0
CIRCLE
  5
10A
100
AcDbEntity
  8
0
 62
256
370
-1
 48
1.0
  6
BYLAYER
100
AcDbCircle
 10
74.854647615958271
 20
144.9929505444807774
 30
0.0
 40
14.2743854302813773
  0
LINE
  5
10B
100
AcDbEntity
  8
0
 62
256
370
-1
 48
1.0
  6
BYLAYER
100
AcDbLine
 10
50.1049014656408005
 20
121.7018911034394932
 30
0.0
 11
50.1049014656408005
 21
181.7018911034394932
 31
0.0
  0
LINE
  5
10C
100
AcDbEntity
  8
0
 62
256
370
-1
 48
1.0
  6
BYLAYER
100
AcDbLine
 10
150.3207444217767659
 20
121.7018911034394932
 30
0.0
 11
150.3207444217767659
 21
181.7018911034394932
 31
0.0
  0
MTEXT
  5
10D
100
AcDbEntity
  8
0
 62
256
370
-1
 48
1.0
  6
BYLAYER
100
AcDbMText
 10
76.1116244817457215
 20
-36.0605925801024796
 30
0.0
 40
1.0
 41
0.0
 71
5
 72
1
  1
\C7;\H4;LOW
  7
textstyle51
 50
0.0
 73
2
 44
1.0
  0
MTEXT
  5
10E
100
AcDbEntity
  8
0
 62
256
370
-1
 48
1.0
  6
BYLAYER
100
AcDbMText
 10
120.1259976274588439
 20
4.2835935824688249
 30
0.0
 40
1.0
 41
0.0
 71
5
 72
1
  1
\C7;\H4;LOW-MID
  7
textstyle53
 50
0.0
 73
2
 44
1.0
  0
MTEXT
  5
10F
100
AcDbEntity
  8
0
 62
256
370
-1
 48
1.0
  6
BYLAYER
100
AcDbMText
 10
75.4295604884426893
 20
46.9238599384194686
 30
0.0
 40
1.0
 41
0.0
 71
5
 72
1
  1
\C7;\H4;MID
  7
textstyle52
 50
0.0
 73
2
 44
1.0
  0
MTEXT
  5
110
100
AcDbEntity
  8
0
 62
256
370
-1
 48
1.0
  6
BYLAYER
100
AcDbMText
 10
120.4764304944389437
 20
80.2204957298311001
 30
0.0
 40
1.0
 41
0.0
 71
5
 72
1
  1
\C7;\H4;HIGH-MID
  7
textstyle55
 50
0.0
 73
2
 44
1.0
  0
MTEXT
  5
111
100
AcDbEntity
  8
0
 62
256
370
-1
 48
1.0
  6
BYLAYER
100
AcDbMText
 10
74.4733176828559493
 20
123.2431612883373191
 30
0.0
 40
1.0
 41
0.0
 71
5
 72
1
  1
\C7;\H4;HIGH
  7
textstyle54
 50
0.0
 73
2
 44
1.0
  0
LINE
  5
112
100
AcDbEntity
  8
0
 62
256
370
-1
 48
1.0
  6
BYLAYER
100
AcDbLine
 10
70.1049014656408076
 20
151.7018911034394932
 30
0.0
 11
74.854647615958271
 21
144.9929505444807774
 31
0.0
  0
LINE
  5
113
100
AcDbEntity
  8
0
 62
256
370
-1
 48
1.0
  6
BYLAYER
100
AcDbLine
 10
116.9296977292638928
 20
105.3204506833785672
 30
0.0
 11
120.1049014656408076
 21
99.7846891287993003
 31
0.0
  0
LINE
  5
114
100
AcDbEntity
  8
0
 62
256
370
-1
 48
1.0
  6
BYLAYER
100
AcDbLine
 10
70.1049014656408076
 20
71.7018911034394932
 30
0.0
 11
75.0293956849496624
 21
64.5713622374311171
 31
0.0
  0
LINE
  5
115
100
AcDbEntity
  8
0
 62
256
370
-1
 48
1.0
  6
BYLAYER
100
AcDbLine
 10
115.0286932690912352
 20
28.166627030189602
 30
0.0
 11
119.9531874884000899
 21
23.2533333238336581
 31
0.0
  0
LINE
  5
116
100
AcDbEntity
  8
0
 62
256
370
-1
 48
1.0
  6
BYLAYER
100
AcDbLine
 10
70.1049014656408076
 20
-8.2981088965605068
 30
0.0
 11
75.3567864017350644
 21
-14.4417498963098296
 31
0.0
  0
LINE
  5
117
100
AcDbEntity
  8
0
 62
256
370
-1
 48
1.0
  6
BYLAYER
100
AcDbLine
 10
50.0638000883815764
 20
682.7324112021857445
 30
0.0
 11
50.0638000883815764
 21
742.7324112021856308
 31
0.0
  0
LINE
  5
118
100
AcDbEntity
  8
0
 62
256
370
-1
 48
1.0
  6
BYLAYER
100
AcDbLine
 10
150.2796430445175417
 20
682.7324112021857445
 30
0.0
 11
150.2796430445175417
 21
742.7324112021856308
 31
0.0
  0
LINE
  5
119
100
AcDbEntity
  8
0
 62
256
370
-1
 48
1.0
  6
BYLAYER
100
AcDbLine
 10
50.0638000883815764
 20
742.7324112021856308
 30
0.0
 11
50.0638000883815764
 21
772.7324112021856308
 31
0.0
  0
LINE
  5
11A
100
AcDbEntity
  8
0
 62
256
370
-1
 48
1.0
  6
BYLAYER
100
AcDbLine
 10
150.2796430445175417
 20
742.7324112021856308
 30
0.0
 11
150.2796430445175417
 21
772.7324112021856308
 31
0.0
  0
LINE
  5
11B
100
AcDbEntity
  8
0
 62
256
370
-1
 48
1.0
  6
BYLAYER
100
AcDbLine
 10
50.0638000883815764
 20
772.7324112021856308
 30
0.0
 11
100.0638000883815835
 21
772.7324112021856308
 31
0.0
  0
MTEXT
  5
11C
100
AcDbEntity
  8
0
 62
256
370
-1
 48
1.0
  6
BYLAYER
100
AcDbMText
 10
135.0134680025801117
 20
688.0770594721657289
 30
0.0
 40
1.0
 41
0.0
 71
5
 72
1
  1
\C7;\H1.5;SELECT
  7
textstyle57
 50
0.0
 73
2
 44
1.0
  0
MTEXT
  5
11D
100
AcDbEntity
  8
0
 62
256
370
-1
 48
1.0
  6
BYLAYER
100
AcDbMText
 10
134.4027237833292361
 20
779.3298563767762062
 30
0.0
 40
1.0
 41
0.0
 71
5
 72
1
  1
\C7;\H1.5;SELECT
  7
textstyle56
 50
0.0
 73
2
 44
1.0
  0
MTEXT
  5
11E
100
AcDbEntity
  8
0
 62
256
370
-1
 48
1.0
  6
BYLAYER
100
AcDbMText
 10
134.4027237833292361
 20
849.3298563767759788
 30
0.0
 40
1.0
 41
0.0
 71
5
 72
1
  1
\C7;\H1.5;SELECT
  7
textstyle59
 50
0.0
 73
2
 44
1.0
  0
MTEXT
  5
11F
100
AcDbEntity
  8
0
 62
256
370
-1
 48
1.0
  6
BYLAYER
100
AcDbMText
 10
103.0510294503190067
 20
763.3949799456577239
 30
0.0
 40
1.0
 41
0.0
 71
5
 72
1
  1
\C7;\H4;TUBE PREAMP
  7
textstyle58
 50
0.0
 73
2
 44
1.0
  0
CIRCLE
  5
120
100
AcDbEntity
  8
0
 62
256
370
-1
 48
1.0
  6
BYLAYER
100
AcDbCircle
 10
80.0638000883815835
 20
744.388138494622126
 30
0.0
 40
8.3442727075635137
  0
CIRCLE
  5
121
100
AcDbEntity
  8
0
 62
256
370
-1
 48
1.0
  6
BYLAYER
100
AcDbCircle
 10
124.5594520329848365
 20
744.4672810992633458
 30
0.0
 40
8.3513158688179896
  0
LINE
  5
122
100
AcDbEntity
  8
0
 62
256
370
-1
 48
1.0
  6
BYLAYER
100
AcDbLine
 10
50.0638000883815764
 20
772.7324112021856308
 30
0.0
 11
50.0638000883815764
 21
842.7324112021856308
 31
0.0
  0
LINE
  5
123
100
AcDbEntity
  8
0
 62
256
370
-1
 48
1.0
  6
BYLAYER
100
AcDbLine
 10
150.2796430445175417
 20
772.7324112021856308
 30
0.0
 11
150.2796430445175417
 21
842.7324112021856308
 31
0.0
  0
LINE
  5
124
100
AcDbEntity
  8
0
 62
256
370
-1
 48
1.0
  6
BYLAYER
100
AcDbLine
 10
50.0638000883815764
 20
842.7324112021856308
 30
0.0
 11
100.0638000883815835
 21
842.7324112021856308
 31
0.0
  0
LINE
  5
125
100
AcDbEntity
  8
0
 62
256
370
-1
 48
1.0
  6
BYLAYER
100
AcDbLine
 10
130.0638000883815835
 20
792.7324112021856308
 30
0.0
 11
130.0638000883815835
 21
782.7324112021856308
 31
0.0
  0
LINE
  5
126
100
AcDbEntity
  8
0
 62
256
370
-1
 48
1.0
  6
BYLAYER
100
AcDbLine
 10
130.0638000883815835
 20
862.7324112021856308
 30
0.0
 11
130.0638000883815835
 21
852.7324112021856308
 31
0.0
  0
LINE
  5
127
100
AcDbEntity
  8
0
 62
256
370
-1
 48
1.0
  6
BYLAYER
100
AcDbLine
 10
130.0638000883815835
 20
782.7324112021856308
 30
0.0
 11
140.0638000883815835
 21
782.7324112021856308
 31
0.0
  0
LINE
  5
128
100
AcDbEntity
  8
0
 62
256
370
-1
 48
1.0
  6
BYLAYER
100
AcDbLine
 10
130.0638000883815835
 20
852.7324112021856308
 30
0.0
 11
140.0638000883815835
 21
852.7324112021856308
 31
0.0
  0
LINE
  5
129
100
AcDbEntity
  8
0
 62
256
370
-1
 48
1.0
  6
BYLAYER
100
AcDbLine
 10
140.0638000883815835
 20
782.7324112021856308
 30
0.0
 11
140.0638000883815835
 21
792.7324112021856308
 31
0.0
  0
LINE
  5
12A
100
AcDbEntity
  8
0
 62
256
370
-1
 48
1.0
  6
BYLAYER
100
AcDbLine
 10
140.0638000883815835
 20
852.7324112021856308
 30
0.0
 11
140.0638000883815835
 21
862.7324112021856308
 31
0.0
  0
LINE
  5
12B
100
AcDbEntity
  8
0
 62
256
370
-1
 48
1.0
  6
BYLAYER
100
AcDbLine
 10
140.0638000883815835
 20
792.7324112021856308
 30
0.0
 11
130.0638000883815835
 21
792.7324112021856308
 31
0.0
  0
LINE
  5
12C
100
AcDbEntity
  8
0
 62
256
370
-1
 48
1.0
  6
BYLAYER
100
AcDbLine
 10
140.0638000883815835
 20
862.7324112021856308
 30
0.0
 11
130.0638000883815835
 21
862.7324112021856308
 31
0.0
  0
MTEXT
  5
12D
100
AcDbEntity
  8
0
 62
256
370
-1
 48
1.0
  6
BYLAYER
100
AcDbMText
 10
102.386843632899442
 20
835.3948823169885145
 30
0.0
 40
1.0
 41
0.0
 71
5
 72
1
  1
\C7;\H3;OLD-NEW PREAMP
  7
textstyle3
 50
0.0
 73
2
 44
1.0
  0
LINE
  5
12E
100
AcDbEntity
  8
0
 62
256
370
-1
 48
1.0
  6
BYLAYER
100
AcDbLine
 10
50.0638000883815764
 20
842.7324112021856308
 30
0.0
 11
50.0638000883815764
 21
942.7324112021856308
 31
0.0
  0
LINE
  5
12F
100
AcDbEntity
  8
0
 62
256
370
-1
 48
1.0
  6
BYLAYER
100
AcDbLine
 10
150.2796430445175417
 20
842.7324112021856308
 30
0.0
 11
150.2796430445175417
 21
942.7324112021856308
 31
0.0
  0
LINE
  5
130
100
AcDbEntity
  8
0
 62
256
370
-1
 48
1.0
  6
BYLAYER
100
AcDbLine
 10
50.0638000883815764
 20
942.7324112021856308
 30
0.0
 11
100.0638000883815835
 21
942.7324112021856308
 31
0.0
  0
LINE
  5
131
100
AcDbEntity
  8
0
 62
256
370
-1
 48
1.0
  6
BYLAYER
100
AcDbLine
 10
50.0638000883815764
 20
582.7324112021857445
 30
0.0
 11
50.0638000883815764
 21
182.7324112021857445
 31
0.0
  0
LINE
  5
132
100
AcDbEntity
  8
0
 62
256
370
-1
 48
1.0
  6
BYLAYER
100
AcDbLine
 10
150.2796430445175417
 20
582.7324112021857445
 30
0.0
 11
150.2796430445175417
 21
182.7324112021857445
 31
0.0
  0
LINE
  5
133
100
AcDbEntity
  8
0
 62
256
370
-1
 48
1.0
  6
BYLAYER
100
AcDbLine
 10
100.1049014656408076
 20
-258.2981088965605068
 30
0.0
 11
100.1049014656408076
 21
-258.2981088965605068
 31
0.0
  0
LINE
  5
134
100
AcDbEntity
  8
0
 62
256
370
-1
 48
1.0
  6
BYLAYER
100
AcDbLine
 10
50.1049014656408005
 20
-258.2981088965605068
 30
0.0
 11
100.1049014656408076
 21
-258.2981088965605068
 31
0.0
  0
CIRCLE
  5
135
100
AcDbEntity
  8
0
 62
256
370
-1
 48
1.0
  6
BYLAYER
100
AcDbCircle
 10
74.8613490304528995
 20
354.9997460674481999
 30
0.0
 40
14.5537533427959147
  0
CIRCLE
  5
136
100
AcDbEntity
  8
0
 62
256
370
-1
 48
1.0
  6
BYLAYER
100
AcDbCircle
 10
122.7126261671982945
 20
309.4810106306333637
 30
0.0
 40
16.3801891226451559
  0
CIRCLE
  5
137
100
AcDbEntity
  8
0
 62
256
370
-1
 48
1.0
  6
BYLAYER
100
AcDbCircle
 10
75.4820085803433187
 20
254.6309482347373887
 30
0.0
 40
14.2365862497490845
  0
MTEXT
  5
138
100
AcDbEntity
  8
0
 62
256
370
-1
 48
1.0
  6
BYLAYER
100
AcDbMText
 10
74.56927394815159
 20
332.7589587379063687
 30
0.0
 40
1.0
 41
0.0
 71
5
 72
1
  1
\C7;\H3;THRESH
  7
textstyle5
 50
0.0
 73
2
 44
1.0
  0
MTEXT
  5
139
100
AcDbEntity
  8
0
 62
256
370
-1
 48
1.0
  6
BYLAYER
100
AcDbMText
 10
123.3332857170887422
 20
283.9966178316149126
 30
0.0
 40
1.0
 41
0.0
 71
5
 72
1
  1
\C7;\H3;DEPTH
  7
textstyle4
 50
0.0
 73
2
 44
1.0
  0
MTEXT
  5
13A
100
AcDbEntity
  8
0
 62
256
370
-1
 48
1.0
  6
BYLAYER
100
AcDbMText
 10
75.0256412642474686
 20
230.5326799324345757
 30
0.0
 40
1.0
 41
0.0
 71
5
 72
1
  1
\C7;\H3;RELEASE/HOLD
  7
textstyle6
 50
0.0
 73
2
 44
1.0
  0
LINE
  5
13B
100
AcDbEntity
  8
0
 62
256
370
-1
 48
1.0
  6
BYLAYER
100
AcDbLine
 10
120.0638000883815835
 20
212.7324112021857445
 30
0.0
 11
120.0638000883815835
 21
202.7324112021857445
 31
0.0
  0
LINE
  5
13C
100
AcDbEntity
  8
0
 62
256
370
-1
 48
1.0
  6
BYLAYER
100
AcDbLine
 10
120.0638000883815835
 20
202.7324112021857445
 30
0.0
 11
130.0638000883815835
 21
202.7324112021857445
 31
0.0
  0
LINE
  5
13D
100
AcDbEntity
  8
0
 62
256
370
-1
 48
1.0
  6
BYLAYER
100
AcDbLine
 10
130.0638000883815835
 20
202.7324112021857445
 30
0.0
 11
130.0638000883815835
 21
212.7324112021857445
 31
0.0
  0
LINE
  5
13E
100
AcDbEntity
  8
0
 62
256
370
-1
 48
1.0
  6
BYLAYER
100
AcDbLine
 10
130.0638000883815835
 20
212.7324112021857445
 30
0.0
 11
120.0638000883815835
 21
212.7324112021857445
 31
0.0
  0
MTEXT
  5
13F
100
AcDbEntity
  8
0
 62
256
370
-1
 48
1.0
  6
BYLAYER
100
AcDbMText
 10
125.4689395460910077
 20
195.5719588152404071
 30
0.0
 40
1.0
 41
0.0
 71
5
 72
1
  1
\C7;\H3;FAST ATTACK
  7
textstyle7
 50
0.0
 73
2
 44
1.0
  0
LINE
  5
140
100
AcDbEntity
  8
0
 62
256
370
-1
 48
1.0
  6
BYLAYER
100
AcDbLine
 10
50.0638000883815764
 20
382.7324112021857445
 30
0.0
 11
100.0638000883815835
 21
382.7324112021857445
 31
0.0
  0
CIRCLE
  5
141
100
AcDbEntity
  8
0
 62
256
370
-1
 48
1.0
  6
BYLAYER
100
AcDbCircle
 10
75.4250977505568869
 20
531.0369755569854533
 30
0.0
 40
14.7964390619229835
  0
CIRCLE
  5
142
100
AcDbEntity
  8
0
 62
256
370
-1
 48
1.0
  6
BYLAYER
100
AcDbCircle
 10
113.3244132133248883
 20
452.7324112021857445
 30
0.0
 40
16.7393868750566881
  0
MTEXT
  5
143
100
AcDbEntity
  8
0
 62
256
370
-1
 48
1.0
  6
BYLAYER
100
AcDbMText
 10
74.9978928693759599
 20
509.6598515414098074
 30
0.0
 40
1.0
 41
0.0
 71
5
 72
1
  1
\C7;\H3;HPF
  7
textstyle8
 50
0.0
 73
2
 44
1.0
  0
MTEXT
  5
144
100
AcDbEntity
  8
0
 62
256
370
-1
 48
1.0
  6
BYLAYER
100
AcDbMText
 10
114.001420621700305
 20
430.2702460559813744
 30
0.0
 40
1.0
 41
0.0
 71
5
 72
1
  1
\C7;\H3;LPF
  7
textstyle10
 50
0.0
 73
2
 44
1.0
  0
MTEXT
  5
145
100
AcDbEntity
  8
0
 62
256
370
-1
 48
1.0
  6
BYLAYER
100
AcDbMText
 10
100.0638000883816119
 20
492.7324112021857445
 30
0.0
 40
1.0
 41
0.0
 71
5
 72
1
  1
\C7;\H5;FILTERS
  7
textstyle9
 50
0.0
 73
2
 44
1.0
  0
LINE
  5
146
100
AcDbEntity
  8
0
 62
256
370
-1
 48
1.0
  6
BYLAYER
100
AcDbLine
 10
130.0638000883815835
 20
922.7324112021856308
 30
0.0
 11
130.0638000883815835
 21
912.7324112021856308
 31
0.0
  0
LINE
  5
147
100
AcDbEntity
  8
0
 62
256
370
-1
 48
1.0
  6
BYLAYER
100
AcDbLine
 10
130.0638000883815835
 20
912.7324112021856308
 30
0.0
 11
140.0638000883815835
 21
912.7324112021856308
 31
0.0
  0
LINE
  5
148
100
AcDbEntity
  8
0
 62
256
370
-1
 48
1.0
  6
BYLAYER
100
AcDbLine
 10
140.0638000883815835
 20
912.7324112021856308
 30
0.0
 11
140.0638000883815835
 21
922.7324112021856308
 31
0.0
  0
LINE
  5
149
100
AcDbEntity
  8
0
 62
256
370
-1
 48
1.0
  6
BYLAYER
100
AcDbLine
 10
140.0638000883815835
 20
922.7324112021856308
 30
0.0
 11
130.0638000883815835
 21
922.7324112021856308
 31
0.0
  0
MTEXT
  5
14A
100
AcDbEntity
  8
0
 62
256
370
-1
 48
1.0
  6
BYLAYER
100
AcDbMText
 10
134.9217561613062344
 20
907.1849341152128545
 30
0.0
 40
1.0
 41
0.0
 71
5
 72
1
  1
\C7;\H2;-20dB Pad
  7
textstyle1
 50
0.0
 73
2
 44
1.0
  0
MTEXT
  5
14B
100
AcDbEntity
  8
0
 62
256
370
-1
 48
1.0
  6
BYLAYER
100
AcDbMText
 10
102.9146559096490137
 20
934.0861341686968444
 30
0.0
 40
1.0
 41
0.0
 71
5
 72
1
  1
\C7;\H4;OLD\H2; \H4;PREAMP
  7
textstyle0
 50
0.0
 73
2
 44
1.0
  0
MTEXT
  5
14C
100
AcDbEntity
  8
0
 62
256
370
-1
 48
1.0
  6
BYLAYER
100
AcDbMText
 10
100.0638000883814556
 20
1032.7324112021856308
 30
0.0
 40
1.0
 41
0.0
 71
5
 72
1
  1
\C7;\H4;500 SERIES SLOT
  7
textstyle2
 50
90.0
 73
2
 44
1.0
  0
LINE
  5
14D
100
AcDbEntity
  8
0
 62
256
370
-1
 48
1.0
  6
BYLAYER
100
AcDbLine
 10
50.1049014656408005
 20
-1198.2981088965602794
 30
0.0
 11
50.1049014656408005
 21
-1478.2981088965607341
 31
0.0
  0
LINE
  5
14E
100
AcDbEntity
  8
0
 62
256
370
-1
 48
1.0
  6
BYLAYER
100
AcDbLine
 10
150.3207444217767659
 20
-1198.2981088965602794
 30
0.0
 11
150.3207444217767659
 21
-1478.2981088965607341
 31
0.0
  0
LINE
  5
14F
100
AcDbEntity
  8
0
 62
256
370
-1
 48
1.0
  6
BYLAYER
100
AcDbLine
 10
100.1049014656407934
 20
-1198.2981088965602794
 30
0.0
 11
100.1049014656407792
 21
-1198.2981088965605068
 31
0.0
  0
LINE
  5
150
100
AcDbEntity
  8
0
 62
256
370
-1
 48
1.0
  6
BYLAYER
100
AcDbLine
 10
110.0638000883815835
 20
-1417.2675887978143692
 30
0.0
 11
109.998184609822971
 21
-1637.7516034159971241
 31
0.0
  0
LINE
  5
151
100
AcDbEntity
  8
0
 62
256
370
-1
 48
1.0
  6
BYLAYER
100
AcDbLine
 10
104.8690029188555002
 20
-1613.1571589183531614
 30
0.0
 11
104.8690029188555002
 21
-1633.1571589183531614
 31
0.0
  0
LINE
  5
152
100
AcDbEntity
  8
0
 62
256
370
-1
 48
1.0
  6
BYLAYER
100
AcDbLine
 10
104.8690029188555002
 20
-1633.1571589183531614
 30
0.0
 11
114.8690029188555002
 21
-1633.1571589183531614
 31
0.0
  0
LINE
  5
153
100
AcDbEntity
  8
0
 62
256
370
-1
 48
1.0
  6
BYLAYER
100
AcDbLine
 10
114.8690029188555002
 20
-1633.1571589183531614
 30
0.0
 11
114.8690029188555002
 21
-1613.1571589183531614
 31
0.0
  0
LINE
  5
154
100
AcDbEntity
  8
0
 62
256
370
-1
 48
1.0
  6
BYLAYER
100
AcDbLine
 10
114.8690029188555002
 20
-1613.1571589183531614
 30
0.0
 11
104.8690029188555002
 21
-1613.1571589183531614
 31
0.0
  0
LINE
  5
155
100
AcDbEntity
  8
0
 62
256
370
-1
 48
1.0
  6
BYLAYER
100
AcDbLine
 10
50.1049014656408005
 20
-998.2981088965605068
 30
0.0
 11
100.1049014656408076
 21
-998.2981088965605068
 31
0.0
  0
LINE
  5
156
100
AcDbEntity
  8
0
 62
256
370
-1
 48
1.0
  6
BYLAYER
100
AcDbLine
 10
50.1049014656408005
 20
-998.2981088965603931
 30
0.0
 11
50.1049014656408005
 21
-1198.2981088965605068
 31
0.0
  0
LINE
  5
157
100
AcDbEntity
  8
0
 62
256
370
-1
 48
1.0
  6
BYLAYER
100
AcDbLine
 10
150.3207444217767659
 20
-998.2981088965603931
 30
0.0
 11
150.3207444217767659
 21
-1198.2981088965605068
 31
0.0
  0
LINE
  5
158
100
AcDbEntity
  8
0
 62
256
370
-1
 48
1.0
  6
BYLAYER
100
AcDbLine
 10
75.4716919114035818
 20
-1014.3020445257668598
 30
0.0
 11
75.1420932942232866
 21
-1178.3534177923352217
 31
0.0
  0
LINE
  5
159
100
AcDbEntity
  8
0
 62
256
370
-1
 48
1.0
  6
BYLAYER
100
AcDbLine
 10
70.1049014656408076
 20
-1168.2981088965605068
 30
0.0
 11
70.1049014656408076
 21
-1178.2981088965605068
 31
0.0
  0
LINE
  5
15A
100
AcDbEntity
  8
0
 62
256
370
-1
 48
1.0
  6
BYLAYER
100
AcDbLine
 10
70.1049014656408076
 20
-1178.2981088965605068
 30
0.0
 11
80.1049014656408076
 21
-1178.2981088965605068
 31
0.0
  0
LINE
  5
15B
100
AcDbEntity
  8
0
 62
256
370
-1
 48
1.0
  6
BYLAYER
100
AcDbLine
 10
80.1049014656408076
 20
-1178.2981088965605068
 30
0.0
 11
80.1049014656408076
 21
-1158.2981088965605068
 31
0.0
  0
LINE
  5
15C
100
AcDbEntity
  8
0
 62
256
370
-1
 48
1.0
  6
BYLAYER
100
AcDbLine
 10
80.1049014656408076
 20
-1158.2981088965605068
 30
0.0
 11
70.1049014656408076
 21
-1158.2981088965605068
 31
0.0
  0
LINE
  5
15D
100
AcDbEntity
  8
0
 62
256
370
-1
 48
1.0
  6
BYLAYER
100
AcDbLine
 10
70.1049014656408076
 20
-1158.2981088965605068
 30
0.0
 11
70.1049014656408076
 21
-1168.2981088965605068
 31
0.0
  0
POINT
  5
15E
100
AcDbEntity
  8
0
 62
256
370
-1
 48
1.0
  6
BYLAYER
100
AcDbPoint
 10
94.8690029188555002
 20
-1423.1571589183531614
 30
0.0
  0
POINT
  5
15F
100
AcDbEntity
  8
0
 62
256
370
-1
 48
1.0
  6
BYLAYER
100
AcDbPoint
 10
94.8690029188555002
 20
-1443.1571589183531614
 30
0.0
  0
POINT
  5
160
100
AcDbEntity
  8
0
 62
256
370
-1
 48
1.0
  6
BYLAYER
100
AcDbPoint
 10
94.8690029188555002
 20
-1463.1571589183531614
 30
0.0
  0
POINT
  5
161
100
AcDbEntity
  8
0
 62
256
370
-1
 48
1.0
  6
BYLAYER
100
AcDbPoint
 10
94.8690029188555002
 20
-1483.1571589183531614
 30
0.0
  0
POINT
  5
162
100
AcDbEntity
  8
0
 62
256
370
-1
 48
1.0
  6
BYLAYER
100
AcDbPoint
 10
94.8690029188555002
 20
-1503.1571589183531614
 30
0.0
  0
POINT
  5
163
100
AcDbEntity
  8
0
 62
256
370
-1
 48
1.0
  6
BYLAYER
100
AcDbPoint
 10
94.8690029188555002
 20
-1523.1571589183531614
 30
0.0
  0
POINT
  5
164
100
AcDbEntity
  8
0
 62
256
370
-1
 48
1.0
  6
BYLAYER
100
AcDbPoint
 10
94.8690029188555002
 20
-1543.1571589183531614
 30
0.0
  0
POINT
  5
165
100
AcDbEntity
  8
0
 62
256
370
-1
 48
1.0
  6
BYLAYER
100
AcDbPoint
 10
94.8690029188555002
 20
-1563.1571589183531614
 30
0.0
  0
POINT
  5
166
100
AcDbEntity
  8
0
 62
256
370
-1
 48
1.0
  6
BYLAYER
100
AcDbPoint
 10
94.8690029188555002
 20
-1583.1571589183531614
 30
0.0
  0
POINT
  5
167
100
AcDbEntity
  8
0
 62
256
370
-1
 48
1.0
  6
BYLAYER
100
AcDbPoint
 10
94.8690029188555002
 20
-1603.1571589183531614
 30
0.0
  0
POINT
  5
168
100
AcDbEntity
  8
0
 62
256
370
-1
 48
1.0
  6
BYLAYER
100
AcDbPoint
 10
94.8690029188555002
 20
-1623.1571589183531614
 30
0.0
  0
POINT
  5
169
100
AcDbEntity
  8
0
 62
256
370
-1
 48
1.0
  6
BYLAYER
100
AcDbPoint
 10
94.8690029188555002
 20
-1643.1571589183531614
 30
0.0
  0
LINE
  5
16A
100
AcDbEntity
  8
0
 62
256
370
-1
 48
1.0
  6
BYLAYER
100
AcDbLine
 10
90.1049014656408076
 20
-128.2981088965605068
 30
0.0
 11
130.1049014656408076
 21
-128.2981088965605068
 31
0.0
  0
LINE
  5
16B
100
AcDbEntity
  8
0
 62
256
370
-1
 48
1.0
  6
BYLAYER
100
AcDbLine
 10
90.1049014656408076
 20
-108.2981088965605068
 30
0.0
 11
130.1049014656408076
 21
-108.2981088965605068
 31
0.0
  0
LINE
  5
16C
100
AcDbEntity
  8
0
 62
256
370
-1
 48
1.0
  6
BYLAYER
100
AcDbLine
 10
90.1049014656408076
 20
-88.2981088965605068
 30
0.0
 11
130.1049014656408076
 21
-88.2981088965605068
 31
0.0
  0
LINE
  5
16D
100
AcDbEntity
  8
0
 62
256
370
-1
 48
1.0
  6
BYLAYER
100
AcDbLine
 10
90.1049014656408076
 20
-68.2981088965605068
 30
0.0
 11
130.1049014656408076
 21
-68.2981088965605068
 31
0.0
  0
LINE
  5
16E
100
AcDbEntity
  8
0
 62
256
370
-1
 48
1.0
  6
BYLAYER
100
AcDbLine
 10
90.1049014656408076
 20
-148.2981088965605068
 30
0.0
 11
130.1049014656408076
 21
-148.2981088965605068
 31
0.0
  0
LINE
  5
16F
100
AcDbEntity
  8
0
 62
256
370
-1
 48
1.0
  6
BYLAYER
100
AcDbLine
 10
90.1049014656408076
 20
-168.2981088965605068
 30
0.0
 11
130.1049014656408076
 21
-168.2981088965605068
 31
0.0
  0
LINE
  5
170
100
AcDbEntity
  8
0
 62
256
370
-1
 48
1.0
  6
BYLAYER
100
AcDbLine
 10
90.1049014656408076
 20
-188.2981088965605068
 30
0.0
 11
130.1049014656408076
 21
-188.2981088965605068
 31
0.0
  0
LINE
  5
171
100
AcDbEntity
  8
0
 62
256
370
-1
 48
1.0
  6
BYLAYER
100
AcDbLine
 10
90.1049014656408076
 20
-208.2981088965605068
 30
0.0
 11
130.1049014656408076
 21
-208.2981088965605068
 31
0.0
  0
LINE
  5
172
100
AcDbEntity
  8
0
 62
256
370
-1
 48
1.0
  6
BYLAYER
100
AcDbLine
 10
90.1049014656408076
 20
-228.2981088965605068
 30
0.0
 11
130.1049014656408076
 21
-228.2981088965605068
 31
0.0
  0
LINE
  5
173
100
AcDbEntity
  8
0
 62
256
370
-1
 48
1.0
  6
BYLAYER
100
AcDbLine
 10
90.1049014656408076
 20
-248.2981088965605068
 30
0.0
 11
130.1049014656408076
 21
-248.2981088965605068
 31
0.0
  0
POINT
  5
174
100
AcDbEntity
  8
0
 62
256
370
-1
 48
1.0
  6
BYLAYER
100
AcDbPoint
 10
140.1049014656408076
 20
-68.2981088965605068
 30
0.0
  0
POINT
  5
175
100
AcDbEntity
  8
0
 62
256
370
-1
 48
1.0
  6
BYLAYER
100
AcDbPoint
 10
140.1049014656408076
 20
-88.2981088965605068
 30
0.0
  0
POINT
  5
176
100
AcDbEntity
  8
0
 62
256
370
-1
 48
1.0
  6
BYLAYER
100
AcDbPoint
 10
140.1049014656408076
 20
-108.2981088965605068
 30
0.0
  0
POINT
  5
177
100
AcDbEntity
  8
0
 62
256
370
-1
 48
1.0
  6
BYLAYER
100
AcDbPoint
 10
140.1049014656408076
 20
-128.2981088965605068
 30
0.0
  0
POINT
  5
178
100
AcDbEntity
  8
0
 62
256
370
-1
 48
1.0
  6
BYLAYER
100
AcDbPoint
 10
140.1049014656408076
 20
-148.2981088965605068
 30
0.0
  0
POINT
  5
179
100
AcDbEntity
  8
0
 62
256
370
-1
 48
1.0
  6
BYLAYER
100
AcDbPoint
 10
140.1049014656408076
 20
-168.2981088965605068
 30
0.0
  0
POINT
  5
17A
100
AcDbEntity
  8
0
 62
256
370
-1
 48
1.0
  6
BYLAYER
100
AcDbPoint
 10
140.1049014656408076
 20
-188.2981088965605068
 30
0.0
  0
POINT
  5
17B
100
AcDbEntity
  8
0
 62
256
370
-1
 48
1.0
  6
BYLAYER
100
AcDbPoint
 10
140.1049014656408076
 20
-208.2981088965605068
 30
0.0
  0
POINT
  5
17C
100
AcDbEntity
  8
0
 62
256
370
-1
 48
1.0
  6
BYLAYER
100
AcDbPoint
 10
140.1049014656408076
 20
-228.2981088965605068
 30
0.0
  0
POINT
  5
17D
100
AcDbEntity
  8
0
 62
256
370
-1
 48
1.0
  6
BYLAYER
100
AcDbPoint
 10
140.1049014656408076
 20
-248.2981088965605068
 30
0.0
  0
LINE
  5
17E
100
AcDbEntity
  8
0
 62
256
370
-1
 48
1.0
  6
BYLAYER
100
AcDbLine
 10
130.0638000883815835
 20
702.7324112021857445
 30
0.0
 11
130.0638000883815835
 21
692.7324112021857445
 31
0.0
  0
LINE
  5
17F
100
AcDbEntity
  8
0
 62
256
370
-1
 48
1.0
  6
BYLAYER
100
AcDbLine
 10
130.0638000883815835
 20
692.7324112021857445
 30
0.0
 11
140.0638000883815835
 21
692.7324112021857445
 31
0.0
  0
LINE
  5
180
100
AcDbEntity
  8
0
 62
256
370
-1
 48
1.0
  6
BYLAYER
100
AcDbLine
 10
140.0638000883815835
 20
692.7324112021857445
 30
0.0
 11
140.0638000883815835
 21
702.7324112021857445
 31
0.0
  0
LINE
  5
181
100
AcDbEntity
  8
0
 62
256
370
-1
 48
1.0
  6
BYLAYER
100
AcDbLine
 10
140.0638000883815835
 20
702.7324112021857445
 30
0.0
 11
130.0638000883815835
 21
702.7324112021857445
 31
0.0
  0
LINE
  5
182
100
AcDbEntity
  8
0
 62
256
370
-1
 48
1.0
  6
BYLAYER
100
AcDbLine
 10
110.0638000883815835
 20
912.7324112021856308
 30
0.0
 11
110.0638000883815835
 21
852.7324112021856308
 31
0.0
  0
LINE
  5
183
100
AcDbEntity
  8
0
 62
256
370
-1
 48
1.0
  6
BYLAYER
100
AcDbLine
 10
110.0638000883815835
 20
852.7324112021856308
 30
0.0
 11
120.0638000883815835
 21
852.7324112021856308
 31
0.0
  0
LINE
  5
184
100
AcDbEntity
  8
0
 62
256
370
-1
 48
1.0
  6
BYLAYER
100
AcDbLine
 10
120.0638000883815835
 20
852.7324112021856308
 30
0.0
 11
120.0638000883815835
 21
912.7324112021856308
 31
0.0
  0
LINE
  5
185
100
AcDbEntity
  8
0
 62
256
370
-1
 48
1.0
  6
BYLAYER
100
AcDbLine
 10
120.0638000883815835
 20
912.7324112021856308
 30
0.0
 11
110.0638000883815835
 21
912.7324112021856308
 31
0.0
  0
LINE
  5
186
100
AcDbEntity
  8
0
 62
256
370
-1
 48
1.0
  6
BYLAYER
100
AcDbLine
 10
110.0638000883815835
 20
902.7324112021856308
 30
0.0
 11
120.0638000883815835
 21
902.7324112021856308
 31
0.0
  0
LINE
  5
187
100
AcDbEntity
  8
0
 62
256
370
-1
 48
1.0
  6
BYLAYER
100
AcDbLine
 10
110.0638000883815835
 20
892.7324112021856308
 30
0.0
 11
120.0638000883815835
 21
892.7324112021856308
 31
0.0
  0
LINE
  5
188
100
AcDbEntity
  8
0
 62
256
370
-1
 48
1.0
  6
BYLAYER
100
AcDbLine
 10
110.0638000883815835
 20
882.7324112021856308
 30
0.0
 11
120.0638000883815835
 21
882.7324112021856308
 31
0.0
  0
LINE
  5
189
100
AcDbEntity
  8
0
 62
256
370
-1
 48
1.0
  6
BYLAYER
100
AcDbLine
 10
110.0638000883815835
 20
872.7324112021856308
 30
0.0
 11
120.0638000883815835
 21
872.7324112021856308
 31
0.0
  0
LINE
  5
18A
100
AcDbEntity
  8
0
 62
256
370
-1
 48
1.0
  6
BYLAYER
100
AcDbLine
 10
110.0638000883815835
 20
862.7324112021856308
 30
0.0
 11
120.0638000883815835
 21
862.7324112021856308
 31
0.0
  0
MTEXT
  5
18B
100
AcDbEntity
  8
0
 62
256
370
-1
 48
1.0
  6
BYLAYER
100
AcDbMText
 10
102.9088879655159019
 20
-828.8597874839982751
 30
0.0
 40
1.0
 41
0.0
 71
5
 72
1
  1
\C7;\H6;AUX SEND
  7
textstyle11
 50
0.0
 73
2
 44
1.0
  0
CIRCLE
  5
18C
100
AcDbEntity
  8
0
 62
256
370
-1
 48
1.0
  6
BYLAYER
100
AcDbCircle
 10
120.0638000883815835
 20
-857.2675887978142555
 30
0.0
 40
14.142135623730951
  0
CIRCLE
  5
18D
100
AcDbEntity
  8
0
 62
256
370
-1
 48
1.0
  6
BYLAYER
100
AcDbCircle
 10
75.1996488101909222
 20
-905.0317081013999996
 30
0.0
 40
18.4916434295423926
  0
CIRCLE
  5
18E
100
AcDbEntity
  8
0
 62
256
370
-1
 48
1.0
  6
BYLAYER
100
AcDbCircle
 10
125.495410638344481
 20
-960.1430215939512891
 30
0.0
 40
20.097546463525525
  0
LINE
  5
18F
100
AcDbEntity
  8
0
 62
256
370
-1
 48
1.0
  6
BYLAYER
100
AcDbLine
 10
114.2591234214165468
 20
-851.5255784969813249
 30
0.0
 11
120.0638000883815835
 21
-857.2675887978142555
 31
0.0
  0
LINE
  5
190
100
AcDbEntity
  8
0
 62
256
370
-1
 48
1.0
  6
BYLAYER
100
AcDbLine
 10
70.0638000883815835
 20
-897.2675887978142555
 30
0.0
 11
75.1996488101909222
 21
-905.0317081013999996
 31
0.0
  0
LINE
  5
191
100
AcDbEntity
  8
0
 62
256
370
-1
 48
1.0
  6
BYLAYER
100
AcDbLine
 10
120.0638000883815835
 20
-947.2675887978142555
 30
0.0
 11
125.495410638344481
 21
-960.1430215939512891
 31
0.0
  0
MTEXT
  5
192
100
AcDbEntity
  8
0
 62
256
370
-1
 48
1.0
  6
BYLAYER
100
AcDbMText
 10
80.0638000883809582
 20
-857.2675887978142555
 30
0.0
 40
1.0
 41
0.0
 71
5
 72
1
  1
\C7;\H4;1/2
  7
textstyle13
 50
0.0
 73
2
 44
1.0
  0
MTEXT
  5
193
100
AcDbEntity
  8
0
 62
256
370
-1
 48
1.0
  6
BYLAYER
100
AcDbMText
 10
120.6523647501637413
 20
-903.3597406366869791
 30
0.0
 40
1.0
 41
0.0
 71
5
 72
1
  1
\C7;\H4;3/4
  7
textstyle12
 50
0.0
 73
2
 44
1.0
  0
MTEXT
  5
194
100
AcDbEntity
  8
0
 62
256
370
-1
 48
1.0
  6
BYLAYER
100
AcDbMText
 10
81.2659082358001257
 20
-962.4394254082327507
 30
0.0
 40
1.0
 41
0.0
 71
5
 72
1
  1
\C7;\H4;5/6
  7
textstyle14
 50
0.0
 73
2
 44
1.0
  0
LINE
  5
195
100
AcDbEntity
  8
0
 62
256
370
-1
 48
1.0
  6
BYLAYER
100
AcDbLine
 10
50.1049014656408005
 20
-1478.2981088965607341
 30
0.0
 11
50.0638000883815764
 21
-1657.2675887978143692
 31
0.0
  0
LINE
  5
196
100
AcDbEntity
  8
0
 62
256
370
-1
 48
1.0
  6
BYLAYER
100
AcDbLine
 10
150.3207444217767659
 20
-1478.2981088965607341
 30
0.0
 11
150.2796430445175417
 21
-1657.2675887978143692
 31
0.0
  0
LINE
  5
197
100
AcDbEntity
  8
0
 62
256
370
-1
 48
1.0
  6
BYLAYER
100
AcDbLine
 10
70.0638000883815835
 20
-1377.2675887978143692
 30
0.0
 11
130.0638000883815835
 21
-1377.2675887978143692
 31
0.0
  0
LINE
  5
198
100
AcDbEntity
  8
0
 62
256
370
-1
 48
1.0
  6
BYLAYER
100
AcDbLine
 10
130.0638000883815835
 20
-1287.2675887978143692
 30
0.0
 11
70.0638000883815835
 21
-1287.2675887978143692
 31
0.0
  0
CIRCLE
  5
199
100
AcDbEntity
  8
0
 62
256
370
-1
 48
1.0
  6
BYLAYER
100
AcDbCircle
 10
128.6247380477488491
 20
-492.5252156719113259
 30
0.0
 40
10.0465068103974993
  0
LINE
  5
19A
100
AcDbEntity
  8
0
 62
256
370
-1
 48
1.0
  6
BYLAYER
100
AcDbLine
 10
71.6375509527456984
 20
-776.6097669179123386
 30
0.0
 11
73.5041233011330348
 21
-780.2184734581278462
 31
0.0
  0
MTEXT
  5
19B
100
AcDbEntity
  8
0
 62
256
370
-1
 48
1.0
  6
BYLAYER
100
AcDbMText
 10
62.6322523906229662
 20
-799.6352762649938768
 30
0.0
 40
1.0
 41
0.0
 71
1
 72
1
  1
\C7;\H4;VCA GAIN
  7
textstyle15
 50
0.0
 73
2
 44
1.0
  0
LINE
  5
19C
100
AcDbEntity
  8
0
 62
256
370
-1
 48
1.0
  6
BYLAYER
100
AcDbLine
 10
70.0638000883815835
 20
582.7324112021857445
 30
0.0
 11
70.0638000883815835
 21
572.7324112021857445
 31
0.0
  0
LINE
  5
19D
100
AcDbEntity
  8
0
 62
256
370
-1
 48
1.0
  6
BYLAYER
100
AcDbLine
 10
70.0638000883815835
 20
572.7324112021857445
 30
0.0
 11
80.0638000883815835
 21
572.7324112021857445
 31
0.0
  0
LINE
  5
19E
100
AcDbEntity
  8
0
 62
256
370
-1
 48
1.0
  6
BYLAYER
100
AcDbLine
 10
80.0638000883815835
 20
572.7324112021857445
 30
0.0
 11
80.0638000883815835
 21
582.7324112021857445
 31
0.0
  0
LINE
  5
19F
100
AcDbEntity
  8
0
 62
256
370
-1
 48
1.0
  6
BYLAYER
100
AcDbLine
 10
80.0638000883815835
 20
582.7324112021857445
 30
0.0
 11
70.0638000883815835
 21
582.7324112021857445
 31
0.0
  0
MTEXT
  5
1A0
100
AcDbEntity
  8
0
 62
256
370
-1
 48
1.0
  6
BYLAYER
100
AcDbMText
 10
57.5584322297924444
 20
568.9240625651046912
 30
0.0
 40
1.0
 41
0.0
 71
1
 72
1
  1
\C7;\H3;INVERSE POLARITY
  7
textstyle16
 50
0.0
 73
2
 44
1.0
  0
CIRCLE
  5
1A1
100
AcDbEntity
  8
0
 62
256
370
-1
 48
1.0
  6
BYLAYER
100
AcDbCircle
 10
130.7360155554304129
 20
576.9412993459271775
 30
0.0
 40
9.4929944397668908
  0
LINE
  5
1A2
100
AcDbEntity
  8
0
 62
256
370
-1
 48
1.0
  6
BYLAYER
100
AcDbLine
 10
126.6504619992802532
 20
581.4569111711457481
 30
0.0
 11
130.7360155554304129
 21
576.9412993459271775
 31
0.0
  0
MTEXT
  5
1A3
100
AcDbEntity
  8
0
 62
256
370
-1
 48
1.0
  6
BYLAYER
100
AcDbMText
 10
126.4354328647460761
 20
563.3944638702715793
 30
0.0
 40
1.0
 41
0.0
 71
1
 72
1
  1
\C7;\H3;TRIM
  7
textstyle17
 50
0.0
 73
2
 44
1.0
  0
CIRCLE
  5
1A4
100
AcDbEntity
  8
0
 62
256
370
-1
 48
1.0
  6
BYLAYER
100
AcDbCircle
 10
124.4071040297749846
 20
638.3139083158494032
 30
0.0
 40
14.7134349749063968
  0
MTEXT
  5
1A5
100
AcDbEntity
  8
0
 62
256
370
-1
 48
1.0
  6
BYLAYER
100
AcDbMText
 10
105.8285868060185635
 20
618.2491097141924001
 30
0.0
 40
1.0
 41
0.0
 71
1
 72
1
  1
\C7;\H4;PREAMP GAIN
  7
textstyle18
 50
0.0
 73
2
 44
1.0
  0
LINE
  5
1A6
100
AcDbEntity
  8
0
 62
256
370
-1
 48
1.0
  6
BYLAYER
100
AcDbLine
 10
120.0638000883815835
 20
642.7324112021857445
 30
0.0
 11
124.4071040297749846
 21
638.3139083158494032
 31
0.0
  0
LINE
  5
1A7
100
AcDbEntity
  8
0
 62
256
370
-1
 48
1.0
  6
BYLAYER
100
AcDbLine
 10
100.0638000883815835
 20
942.7324112021856308
 30
0.0
 11
150.0638000883815835
 21
942.7324112021856308
 31
0.0
  0
LINE
  5
1A8
100
AcDbEntity
  8
0
 62
256
370
-1
 48
1.0
  6
BYLAYER
100
AcDbLine
 10
50.0638000883815764
 20
-1657.2675887978143692
 30
0.0
 11
150.0638000883815835
 21
-1657.2675887978143692
 31
0.0
  0
LINE
  5
1A9
100
AcDbEntity
  8
0
 62
256
370
-1
 48
1.0
  6
BYLAYER
100
AcDbLine
 10
150.0638000883815835
 20
-1657.2675887978143692
 30
0.0
 11
150.0638000883815835
 21
942.7324112021856308
 31
0.0
  0
LINE
  5
1AA
100
AcDbEntity
  8
0
 62
256
370
-1
 48
1.0
  6
BYLAYER
100
AcDbLine
 10
100.0638000883815835
 20
842.7324112021856308
 30
0.0
 11
150.0638000883815835
 21
842.7324112021856308
 31
0.0
  0
LINE
  5
1AB
100
AcDbEntity
  8
0
 62
256
370
-1
 48
1.0
  6
BYLAYER
100
AcDbLine
 10
100.0638000883815835
 20
772.7324112021856308
 30
0.0
 11
150.0638000883815835
 21
772.7324112021856308
 31
0.0
  0
LINE
  5
1AC
100
AcDbEntity
  8
0
 62
256
370
-1
 48
1.0
  6
BYLAYER
100
AcDbLine
 10
100.0638000883815835
 20
682.7324112021857445
 30
0.0
 11
150.0638000883815835
 21
682.7324112021857445
 31
0.0
  0
LINE
  5
1AD
100
AcDbEntity
  8
0
 62
256
370
-1
 48
1.0
  6
BYLAYER
100
AcDbLine
 10
100.0638000883815835
 20
382.7324112021857445
 30
0.0
 11
150.0638000883815835
 21
382.7324112021857445
 31
0.0
  0
LINE
  5
1AE
100
AcDbEntity
  8
0
 62
256
370
-1
 48
1.0
  6
BYLAYER
100
AcDbLine
 10
100.1049014656408076
 20
181.7018911034394932
 30
0.0
 11
150.0638000883815835
 21
181.7018911034393795
 31
0.0
  0
LINE
  5
1AF
100
AcDbEntity
  8
0
 62
256
370
-1
 48
1.0
  6
BYLAYER
100
AcDbLine
 10
100.1049014656408076
 20
-58.2981088965605068
 30
0.0
 11
150.0638000883815835
 21
-58.2981088965606205
 31
0.0
  0
LINE
  5
1B0
100
AcDbEntity
  8
0
 62
256
370
-1
 48
1.0
  6
BYLAYER
100
AcDbLine
 10
100.1049014656408076
 20
-258.2981088965605068
 30
0.0
 11
150.0638000883815835
 21
-258.2981088965606205
 31
0.0
  0
LINE
  5
1B1
100
AcDbEntity
  8
0
 62
256
370
-1
 48
1.0
  6
BYLAYER
100
AcDbLine
 10
100.1049014656408076
 20
-518.2981088965605068
 30
0.0
 11
150.0638000883815835
 21
-518.2981088965606205
 31
0.0
  0
LINE
  5
1B2
100
AcDbEntity
  8
0
 62
256
370
-1
 48
1.0
  6
BYLAYER
100
AcDbLine
 10
100.1049014656408076
 20
-818.2981088965605068
 30
0.0
 11
150.0638000883815835
 21
-818.2981088965606205
 31
0.0
  0
LINE
  5
1B3
100
AcDbEntity
  8
0
 62
256
370
-1
 48
1.0
  6
BYLAYER
100
AcDbLine
 10
100.1049014656408076
 20
-998.2981088965605068
 30
0.0
 11
150.0638000883815835
 21
-998.2981088965605068
 31
0.0
  0
LINE
  5
1B4
100
AcDbEntity
  8
0
 62
256
370
-1
 48
1.0
  6
BYLAYER
100
AcDbLine
 10
100.1049014656407792
 20
-1198.2981088965605068
 30
0.0
 11
150.0638000883815835
 21
-1198.2981088965602794
 31
0.0
  0
LINE
  5
1B5
100
AcDbEntity
  8
0
 62
256
370
-1
 48
1.0
  6
BYLAYER
100
AcDbLine
 10
70.0638000883815835
 20
-1207.2675887978143692
 30
0.0
 11
70.0638000883815835
 21
-1217.2675887978143692
 31
0.0
  0
LINE
  5
1B6
100
AcDbEntity
  8
0
 62
256
370
-1
 48
1.0
  6
BYLAYER
100
AcDbLine
 10
70.0638000883815835
 20
-1217.2675887978143692
 30
0.0
 11
80.0638000883815835
 21
-1217.2675887978143692
 31
0.0
  0
LINE
  5
1B7
100
AcDbEntity
  8
0
 62
256
370
-1
 48
1.0
  6
BYLAYER
100
AcDbLine
 10
80.0638000883815835
 20
-1217.2675887978143692
 30
0.0
 11
80.0638000883815835
 21
-1207.2675887978143692
 31
0.0
  0
LINE
  5
1B8
100
AcDbEntity
  8
0
 62
256
370
-1
 48
1.0
  6
BYLAYER
100
AcDbLine
 10
80.0638000883815835
 20
-1207.2675887978143692
 30
0.0
 11
70.0638000883815835
 21
-1207.2675887978143692
 31
0.0
  0
LINE
  5
1B9
100
AcDbEntity
  8
0
 62
256
370
-1
 48
1.0
  6
BYLAYER
100
AcDbLine
 10
100.0638000883815835
 20
-1207.2675887978143692
 30
0.0
 11
100.0638000883815835
 21
-1217.2675887978143692
 31
0.0
  0
LINE
  5
1BA
100
AcDbEntity
  8
0
 62
256
370
-1
 48
1.0
  6
BYLAYER
100
AcDbLine
 10
100.0638000883815835
 20
-1217.2675887978143692
 30
0.0
 11
110.0638000883815835
 21
-1217.2675887978143692
 31
0.0
  0
LINE
  5
1BB
100
AcDbEntity
  8
0
 62
256
370
-1
 48
1.0
  6
BYLAYER
100
AcDbLine
 10
110.0638000883815835
 20
-1217.2675887978143692
 30
0.0
 11
110.0638000883815835
 21
-1207.2675887978143692
 31
0.0
  0
LINE
  5
1BC
100
AcDbEntity
  8
0
 62
256
370
-1
 48
1.0
  6
BYLAYER
100
AcDbLine
 10
110.0638000883815835
 20
-1207.2675887978143692
 30
0.0
 11
100.0638000883815835
 21
-1207.2675887978143692
 31
0.0
  0
LINE
  5
1BD
100
AcDbEntity
  8
0
 62
256
370
-1
 48
1.0
  6
BYLAYER
100
AcDbLine
 10
130.0638000883815835
 20
-1207.2675887978143692
 30
0.0
 11
130.0638000883815835
 21
-1217.2675887978143692
 31
0.0
  0
LINE
  5
1BE
100
AcDbEntity
  8
0
 62
256
370
-1
 48
1.0
  6
BYLAYER
100
AcDbLine
 10
130.0638000883815835
 20
-1217.2675887978143692
 30
0.0
 11
140.0638000883815835
 21
-1217.2675887978143692
 31
0.0
  0
LINE
  5
1BF
100
AcDbEntity
  8
0
 62
256
370
-1
 48
1.0
  6
BYLAYER
100
AcDbLine
 10
140.0638000883815835
 20
-1217.2675887978143692
 30
0.0
 11
140.0638000883815835
 21
-1207.2675887978143692
 31
0.0
  0
LINE
  5
1C0
100
AcDbEntity
  8
0
 62
256
370
-1
 48
1.0
  6
BYLAYER
100
AcDbLine
 10
140.0638000883815835
 20
-1207.2675887978143692
 30
0.0
 11
130.0638000883815835
 21
-1207.2675887978143692
 31
0.0
  0
MTEXT
  5
1C1
100
AcDbEntity
  8
0
 62
256
370
-1
 48
1.0
  6
BYLAYER
100
AcDbMText
 10
68.7732738720010701
 20
-1220.7582550181523402
 30
0.0
 40
1.0
 41
0.0
 71
1
 72
1
  1
\C7;\H4;NEW
  7
textstyle29
 50
0.0
 73
2
 44
1.0
  0
MTEXT
  5
1C2
100
AcDbEntity
  8
0
 62
256
370
-1
 48
1.0
  6
BYLAYER
100
AcDbMText
 10
92.426478670764908
 20
-1220.9374459635976109
 30
0.0
 40
1.0
 41
0.0
 71
1
 72
1
  1
\C7;\H4;OLD NEW
  7
textstyle31
 50
0.0
 73
2
 44
1.0
  0
MTEXT
  5
1C3
100
AcDbEntity
  8
0
 62
256
370
-1
 48
1.0
  6
BYLAYER
100
AcDbMText
 10
129.8773862688078111
 20
-1220.5790640727072969
 30
0.0
 40
1.0
 41
0.0
 71
1
 72
1
  1
\C7;\H4;OLD
  7
textstyle30
 50
0.0
 73
2
 44
1.0
  0
LINE
  5
1C4
100
AcDbEntity
  8
0
 62
256
370
-1
 48
1.0
  6
BYLAYER
100
AcDbLine
 10
50.0638000883815764
 20
552.7324112021857445
 30
0.0
 11
150.0638000883815835
 21
552.7324112021857445
 31
0.0
  0
LINE
  5
1C5
100
AcDbEntity
  8
0
 62
256
370
-1
 48
1.0
  6
BYLAYER
100
AcDbLine
 10
71.2133097314866461
 20
539.8241891908548951
 30
0.0
 11
75.4250977505568869
 21
531.0369755569854533
 31
0.0
  0
LINE
  5
1C6
100
AcDbEntity
  8
0
 62
256
370
-1
 48
1.0
  6
BYLAYER
100
AcDbLine
 10
106.0480295260300636
 20
462.4137007585362653
 30
0.0
 11
113.3244132133248883
 21
452.7324112021857445
 31
0.0
  0
LINE
  5
1C7
100
AcDbEntity
  8
0
 62
256
370
-1
 48
1.0
  6
BYLAYER
100
AcDbLine
 10
70.0638000883815835
 20
-1287.2675887978143692
 30
0.0
 11
70.0638000883815835
 21
-1377.2675887978143692
 31
0.0
  0
LINE
  5
1C8
100
AcDbEntity
  8
0
 62
256
370
-1
 48
1.0
  6
BYLAYER
100
AcDbLine
 10
130.0638000883815835
 20
-1287.2675887978143692
 30
0.0
 11
130.0638000883815835
 21
-1377.2675887978143692
 31
0.0
  0
LINE
  5
1C9
100
AcDbEntity
  8
0
 62
256
370
-1
 48
1.0
  6
BYLAYER
100
AcDbLine
 10
50.0638000883815764
 20
-1237.2675887978143692
 30
0.0
 11
150.0638000883815835
 21
-1237.2675887978143692
 31
0.0
  0
LINE
  5
1CA
100
AcDbEntity
  8
0
 62
256
370
-1
 48
1.0
  6
BYLAYER
100
AcDbLine
 10
70.0638000883815835
 20
-1247.2675887978143692
 30
0.0
 11
70.0638000883815835
 21
-1257.2675887978143692
 31
0.0
  0
LINE
  5
1CB
100
AcDbEntity
  8
0
 62
256
370
-1
 48
1.0
  6
BYLAYER
100
AcDbLine
 10
70.0638000883815835
 20
-1257.2675887978143692
 30
0.0
 11
80.0638000883815835
 21
-1257.2675887978143692
 31
0.0
  0
LINE
  5
1CC
100
AcDbEntity
  8
0
 62
256
370
-1
 48
1.0
  6
BYLAYER
100
AcDbLine
 10
80.0638000883815835
 20
-1257.2675887978143692
 30
0.0
 11
80.0638000883815835
 21
-1247.2675887978143692
 31
0.0
  0
LINE
  5
1CD
100
AcDbEntity
  8
0
 62
256
370
-1
 48
1.0
  6
BYLAYER
100
AcDbLine
 10
80.0638000883815835
 20
-1247.2675887978143692
 30
0.0
 11
70.0638000883815835
 21
-1247.2675887978143692
 31
0.0
  0
MTEXT
  5
1CE
100
AcDbEntity
  8
0
 62
256
370
-1
 48
1.0
  6
BYLAYER
100
AcDbMText
 10
69.3699045166070505
 20
-1261.2991730154931247
 30
0.0
 40
1.0
 41
0.0
 71
1
 72
1
  1
\C7;\H4;CUT
  7
textstyle19
 50
0.0
 73
2
 44
1.0
  0
LINE
  5
1CF
100
AcDbEntity
  8
0
 62
256
370
-1
 48
1.0
  6
BYLAYER
100
AcDbLine
 10
110.0638000883815835
 20
-1247.2675887978143692
 30
0.0
 11
110.0638000883815835
 21
-1257.2675887978143692
 31
0.0
  0
LINE
  5
1D0
100
AcDbEntity
  8
0
 62
256
370
-1
 48
1.0
  6
BYLAYER
100
AcDbLine
 10
110.0638000883815835
 20
-1257.2675887978143692
 30
0.0
 11
120.0638000883815835
 21
-1257.2675887978143692
 31
0.0
  0
LINE
  5
1D1
100
AcDbEntity
  8
0
 62
256
370
-1
 48
1.0
  6
BYLAYER
100
AcDbLine
 10
120.0638000883815835
 20
-1257.2675887978143692
 30
0.0
 11
120.0638000883815835
 21
-1247.2675887978143692
 31
0.0
  0
LINE
  5
1D2
100
AcDbEntity
  8
0
 62
256
370
-1
 48
1.0
  6
BYLAYER
100
AcDbLine
 10
120.0638000883815835
 20
-1247.2675887978143692
 30
0.0
 11
110.0638000883815835
 21
-1247.2675887978143692
 31
0.0
  0
MTEXT
  5
1D3
100
AcDbEntity
  8
0
 62
256
370
-1
 48
1.0
  6
BYLAYER
100
AcDbMText
 10
107.3943100246217881
 20
-1260.8708660329766644
 30
0.0
 40
1.0
 41
0.0
 71
1
 72
1
  1
\C7;\H4;MUTE
  7
textstyle20
 50
0.0
 73
2
 44
1.0
  0
LINE
  5
1D4
100
AcDbEntity
  8
0
 62
256
370
-1
 48
1.0
  6
BYLAYER
100
AcDbLine
 10
90.0638000883815835
 20
-1247.2675887978143692
 30
0.0
 11
90.0638000883815835
 21
-1257.2675887978143692
 31
0.0
  0
LINE
  5
1D5
100
AcDbEntity
  8
0
 62
256
370
-1
 48
1.0
  6
BYLAYER
100
AcDbLine
 10
90.0638000883815835
 20
-1257.2675887978143692
 30
0.0
 11
100.0638000883815835
 21
-1257.2675887978143692
 31
0.0
  0
LINE
  5
1D6
100
AcDbEntity
  8
0
 62
256
370
-1
 48
1.0
  6
BYLAYER
100
AcDbLine
 10
100.0638000883815835
 20
-1257.2675887978143692
 30
0.0
 11
100.0638000883815835
 21
-1247.2675887978143692
 31
0.0
  0
LINE
  5
1D7
100
AcDbEntity
  8
0
 62
256
370
-1
 48
1.0
  6
BYLAYER
100
AcDbLine
 10
100.0638000883815835
 20
-1247.2675887978143692
 30
0.0
 11
90.0638000883815835
 21
-1247.2675887978143692
 31
0.0
  0
MTEXT
  5
1D8
100
AcDbEntity
  8
0
 62
256
370
-1
 48
1.0
  6
BYLAYER
100
AcDbMText
 10
89.3559459868151009
 20
-1261.2493173097568615
 30
0.0
 40
1.0
 41
0.0
 71
1
 72
1
  1
\C7;\H4;REC
  7
textstyle22
 50
0.0
 73
2
 44
1.0
  0
MTEXT
  5
1D9
100
AcDbEntity
  8
0
 62
256
370
-1
 48
1.0
  6
BYLAYER
100
AcDbMText
 10
118.2841835855815162
 20
-1111.6022840924415505
 30
0.0
 40
1.0
 41
0.0
 71
1
 72
1
  1
\C7;\H4;PLAY
  7
textstyle21
 50
0.0
 73
2
 44
1.0
  0
LINE
  5
1DA
100
AcDbEntity
  8
0
 62
256
370
-1
 48
1.0
  6
BYLAYER
100
AcDbLine
 10
50.0638000883815693
 20
942.7324112021856308
 30
0.0
 11
50.0
 21
1150.0
 31
0.0
  0
LINE
  5
1DB
100
AcDbEntity
  8
0
 62
256
370
-1
 48
1.0
  6
BYLAYER
100
AcDbLine
 10
50.0
 20
1150.0
 30
0.0
 11
150.0
 21
1150.0
 31
0.0
  0
LINE
  5
1DC
100
AcDbEntity
  8
0
 62
256
370
-1
 48
1.0
  6
BYLAYER
100
AcDbLine
 10
150.0
 20
1150.0
 30
0.0
 11
150.063800088381555
 21
942.7324112021856308
 31
0.0
  0
LINE
  5
1DD
100
AcDbEntity
  8
0
 62
4
420
65535
370
-1
 48
1.0
  6
BYLAYER
100
AcDbLine
 10
160.0
 20
940.0
 30
0.0
 11
160.0
 21
560.0
 31
0.0
  0
MTEXT
  5
1DE
100
AcDbEntity
  8
0
 62
256
370
-1
 48
1.0
  6
BYLAYER
100
AcDbMText
 10
170.0
 20
770.0
 30
0.0
 40
1.0
 41
0.0
 71
1
 72
1
  1
\C4;\H16;PREAMP & CONVERSION
  7
textstyle23
 50
0.0
 73
2
 44
1.0
  0
LINE
  5
1DF
100
AcDbEntity
  8
0
 62
6
420
16711935
370
-1
 48
1.0
  6
BYLAYER
100
AcDbLine
 10
160.0
 20
540.0
 30
0.0
 11
160.0
 21
390.0
 31
0.0
  0
MTEXT
  5
1E0
100
AcDbEntity
  8
0
 62
256
370
-1
 48
1.0
  6
BYLAYER
100
AcDbMText
 10
170.0
 20
470.0
 30
0.0
 40
1.0
 41
0.0
 71
1
 72
1
  1
\C6;\H16;FILTERS
  7
textstyle24
 50
0.0
 73
2
 44
1.0
  0
LINE
  5
1E1
100
AcDbEntity
  8
0
 62
174
420
128
370
-1
 48
1.0
  6
BYLAYER
100
AcDbLine
 10
160.0
 20
380.0
 30
0.0
 11
160.0
 21
190.0
 31
0.0
  0
MTEXT
  5
1E2
100
AcDbEntity
  8
0
 62
256
370
-1
 48
1.0
  6
BYLAYER
100
AcDbMText
 10
170.0
 20
300.0
 30
0.0
 40
1.0
 41
0.0
 71
1
 72
1
  1
\C174;\H16;GATE/EXPANDER
  7
textstyle25
 50
0.0
 73
2
 44
1.0
  0
LINE
  5
1E3
100
AcDbEntity
  8
0
 62
3
420
65280
370
-1
 48
1.0
  6
BYLAYER
100
AcDbLine
 10
160.0
 20
180.0
 30
0.0
 11
160.0
 21
-250.0
 31
0.0
  0
MTEXT
  5
1E4
100
AcDbEntity
  8
0
 62
256
370
-1
 48
1.0
  6
BYLAYER
100
AcDbMText
 10
170.0
 20
-40.0
 30
0.0
 40
1.0
 41
0.0
 71
1
 72
1
  1
\C3;\H16;EQ
  7
textstyle26
 50
0.0
 73
2
 44
1.0
  0
LINE
  5
1E5
100
AcDbEntity
  8
0
 62
30
420
16744192
370
-1
 48
1.0
  6
BYLAYER
100
AcDbLine
 10
160.0
 20
-270.0
 30
0.0
 11
160.0
 21
-810.0
 31
0.0
  0
MTEXT
  5
1E6
100
AcDbEntity
  8
0
 62
256
370
-1
 48
1.0
  6
BYLAYER
100
AcDbMText
 10
170.0
 20
-530.0
 30
0.0
 40
1.0
 41
0.0
 71
1
 72
1
  1
\c32767;\H16;COMPRESSOR/DYNAMICS
  7
textstyle27
 50
0.0
 73
2
 44
1.0
  0
LINE
  5
1E7
100
AcDbEntity
  8
0
 62
1
420
16711680
370
-1
 48
1.0
  6
BYLAYER
100
AcDbLine
 10
160.0
 20
-830.0
 30
0.0
 11
160.0
 21
-1650.0
 31
0.0
  0
MTEXT
  5
1E8
100
AcDbEntity
  8
0
 62
256
370
-1
 48
1.0
  6
BYLAYER
100
AcDbMText
 10
173.7325073809838898
 20
-1183.9606478281505133
 30
0.0
 40
1.0
 41
0.0
 71
1
 72
1
  1
\C1;\H16;OUTPUT
  7
textstyle28
 50
0.0
 73
2
 44
1.0
  0
ENDSEC
  0
SECTION
  2
OBJECTS
  0
DICTIONARY
  5
C
100
AcDbDictionary
280
0
281
1
  3
ACAD_GROUP
350
D
  3
ACAD_LAYOUT
350
1A
  3
ACAD_MLINESTYLE
350
17
  3
ACAD_PLOTSETTINGS
350
19
  3
ACAD_PLOTSTYLENAME
350
E
  3
AcDbVariableDictionary
350
1E9
  3
QCAD_OBJECTS
350
1EA
  0
DICTIONARY
  5
D
100
AcDbDictionary
280
0
281
1
  0
ACDBDICTIONARYWDFLT
  5
E
100
AcDbDictionary
281
1
  3
Normal
350
F
100
AcDbDictionaryWithDefault
340
F
  0
ACDBPLACEHOLDER
  5
F
  0
DICTIONARY
  5
17
100
AcDbDictionary
280
0
281
1
  3
Standard
350
18
  0
MLINESTYLE
  5
18
100
AcDbMlineStyle
  2
STANDARD
 70
0
  3

 62
256
 51
90.0
 52
90.0
 71
2
 49
0.5
 62
256
  6
BYLAYER
 49
-0.5
 62
256
  6
BYLAYER
  0
DICTIONARY
  5
19
100
AcDbDictionary
280
0
281
1
  0
DICTIONARY
  5
1A
100
AcDbDictionary
281
1
  3
Layout1
350
1E
  3
Layout2
350
26
  3
Model
350
22
  0
LAYOUT
  5
1E
100
AcDbPlotSettings
  1

  2
none_device
  4

  6

 40
0.0
 41
0.0
 42
0.0
 43
0.0
 44
0.0
 45
0.0
 46
0.0
 47
0.0
 48
0.0
 49
0.0
140
0.0
141
0.0
142
1.0
143
1.0
 70
688
 72
0
 73
0
 74
5
  7

 75
16
147
1.0
148
0.0
149
0.0
100
AcDbLayout
  1
Layout1
 70
1
 71
1
 10
0.0
 20
0.0
 11
420.0
 21
297.0
 12
0.0
 22
0.0
 32
0.0
 14
100000000000000000000.0
 24
100000000000000000000.0
 34
100000000000000000000.0
 15
-100000000000000000000.0
 25
-100000000000000000000.0
 35
-100000000000000000000.0
146
0.0
 13
0.0
 23
0.0
 33
0.0
 16
1.0
 26
0.0
 36
0.0
 17
0.0
 27
1.0
 37
0.0
 76
0
330
1B
  0
LAYOUT
  5
22
100
AcDbPlotSettings
  1

  2
none_device
  4

  6

 40
0.0
 41
0.0
 42
0.0
 43
0.0
 44
0.0
 45
0.0
 46
0.0
 47
0.0
 48
0.0
 49
0.0
140
0.0
141
0.0
142
1.0
143
1.0
 70
1712
 72
0
 73
0
 74
0
  7

 75
0
147
1.0
148
0.0
149
0.0
100
AcDbLayout
  1
Model
 70
1
 71
0
 10
0.0
 20
0.0
 11
12.0
 21
9.0
 12
0.0
 22
0.0
 32
0.0
 14
0.0
 24
0.0
 34
0.0
 15
0.0
 25
0.0
 35
0.0
146
0.0
 13
0.0
 23
0.0
 33
0.0
 16
1.0
 26
0.0
 36
0.0
 17
0.0
 27
1.0
 37
0.0
 76
0
330
1F
  0
LAYOUT
  5
26
100
AcDbPlotSettings
  1

  2
none_device
  4

  6

 40
0.0
 41
0.0
 42
0.0
 43
0.0
 44
0.0
 45
0.0
 46
0.0
 47
0.0
 48
0.0
 49
0.0
140
0.0
141
0.0
142
1.0
143
1.0
 70
688
 72
0
 73
0
 74
5
  7

 75
16
147
1.0
148
0.0
149
0.0
100
AcDbLayout
  1
Layout2
 70
1
 71
2
 10
0.0
 20
0.0
 11
12.0
 21
9.0
 12
0.0
 22
0.0
 32
0.0
 14
0.0
 24
0.0
 34
0.0
 15
0.0
 25
0.0
 35
0.0
146
0.0
 13
0.0
 23
0.0
 33
0.0
 16
1.0
 26
0.0
 36
0.0
 17
0.0
 27
1.0
 37
0.0
 76
0
330
23
  0
DICTIONARY
  5
1E9
100
AcDbDictionary
281
1
  3
DIMASSOC
350
1EC
  3
HIDETEXT
350
1EB
  0
DICTIONARYVAR
  5
1EB
100
DictionaryVariables
280
0
  1
2
  0
DICTIONARYVAR
  5
1EC
100
DictionaryVariables
280
0
  1
1
  0
DICTIONARY
  5
1EA
100
AcDbDictionary
281
1
  3
ColorSettings/BackgroundColor
350
1ED
  3
ColorSettings/ColorMode
350
1EE
  3
Grid/DisplayGrid00
350
1EF
  3
Grid/DisplayGrid01
350
1F0
  3
Grid/DisplayGrid02
350
1F1
  3
Grid/DisplayGrid03
350
1F2
  3
Grid/GridSpacingX00
350
1F3
  3
Grid/GridSpacingX01
350
1F4
  3
Grid/GridSpacingX02
350
1F5
  3
Grid/GridSpacingX03
350
1F6
  3
Grid/GridSpacingY00
350
1F7
  3
Grid/GridSpacingY01
350
1F8
  3
Grid/GridSpacingY02
350
1F9
  3
Grid/GridSpacingY03
350
1FA
  3
Grid/IsometricGrid00
350
1FB
  3
Grid/IsometricGrid01
350
1FC
  3
Grid/IsometricGrid02
350
1FD
  3
Grid/IsometricGrid03
350
1FE
  3
Grid/IsometricProjection00
350
1FF
  3
Grid/IsometricProjection01
350
200
  3
Grid/IsometricProjection02
350
201
  3
Grid/IsometricProjection03
350
202
  3
Grid/MetaGridSpacingX00
350
203
  3
Grid/MetaGridSpacingX01
350
204
  3
Grid/MetaGridSpacingX02
350
205
  3
Grid/MetaGridSpacingX03
350
206
  3
Grid/MetaGridSpacingY00
350
207
  3
Grid/MetaGridSpacingY01
350
208
  3
Grid/MetaGridSpacingY02
350
209
  3
Grid/MetaGridSpacingY03
350
20A
  3
MultiPageSettings/Columns
350
20B
  3
MultiPageSettings/GlueMarginsBottom
350
20C
  3
MultiPageSettings/GlueMarginsLeft
350
20D
  3
MultiPageSettings/GlueMarginsRight
350
20E
  3
MultiPageSettings/GlueMarginsTop
350
20F
  3
MultiPageSettings/PrintCropMarks
350
210
  3
MultiPageSettings/Rows
350
211
  3
PageSettings/OffsetX
350
212
  3
PageSettings/OffsetY
350
213
  3
PageSettings/PageOrientation
350
214
  3
PageSettings/PaperHeight
350
215
  3
PageSettings/PaperWidth
350
216
  3
PageSettings/Scale
350
217
  3
PageSettings/ShowPaperBorders
350
218
  3
PageTagSettings/EnablePageTags
350
219
  3
PageTagSettings/TagAlignment
350
21A
  3
PageTagSettings/TagFont
350
21B
  3
PageTagSettings/TagPosition
350
21C
  3
QCADVersion
350
21D
  3
UnitSettings/PaperUnit
350
21E
  3
ViewportCenter
350
21F
  3
ViewportHeight
350
220
  3
ViewportWidth
350
221
  0
XRECORD
  5
1ED
330
1EA
100
AcDbXrecord
280
1
1000
White
  0
XRECORD
  5
1EE
330
1EA
100
AcDbXrecord
280
1
1000
FullColor
  0
XRECORD
  5
1EF
330
1EA
100
AcDbXrecord
280
1
290
1
  0
XRECORD
  5
1F0
330
1EA
100
AcDbXrecord
280
1
290
1
  0
XRECORD
  5
1F1
330
1EA
100
AcDbXrecord
280
1
290
1
  0
XRECORD
  5
1F2
330
1EA
100
AcDbXrecord
280
1
290
1
  0
XRECORD
  5
1F3
330
1EA
100
AcDbXrecord
280
1
1000
auto
  0
XRECORD
  5
1F4
330
1EA
100
AcDbXrecord
280
1
1000
auto
  0
XRECORD
  5
1F5
330
1EA
100
AcDbXrecord
280
1
1000
auto
  0
XRECORD
  5
1F6
330
1EA
100
AcDbXrecord
280
1
1000
auto
  0
XRECORD
  5
1F7
330
1EA
100
AcDbXrecord
280
1
1000
auto
  0
XRECORD
  5
1F8
330
1EA
100
AcDbXrecord
280
1
1000
auto
  0
XRECORD
  5
1F9
330
1EA
100
AcDbXrecord
280
1
1000
auto
  0
XRECORD
  5
1FA
330
1EA
100
AcDbXrecord
280
1
1000
auto
  0
XRECORD
  5
1FB
330
1EA
100
AcDbXrecord
280
1
290
0
  0
XRECORD
  5
1FC
330
1EA
100
AcDbXrecord
280
1
290
0
  0
XRECORD
  5
1FD
330
1EA
100
AcDbXrecord
280
1
290
0
  0
XRECORD
  5
1FE
330
1EA
100
AcDbXrecord
280
1
290
0
  0
XRECORD
  5
1FF
330
1EA
100
AcDbXrecord
280
1
 90
65537
  0
XRECORD
  5
200
330
1EA
100
AcDbXrecord
280
1
 90
65537
  0
XRECORD
  5
201
330
1EA
100
AcDbXrecord
280
1
 90
65537
  0
XRECORD
  5
202
330
1EA
100
AcDbXrecord
280
1
 90
65537
  0
XRECORD
  5
203
330
1EA
100
AcDbXrecord
280
1
1000
auto
  0
XRECORD
  5
204
330
1EA
100
AcDbXrecord
280
1
1000
auto
  0
XRECORD
  5
205
330
1EA
100
AcDbXrecord
280
1
1000
auto
  0
XRECORD
  5
206
330
1EA
100
AcDbXrecord
280
1
1000
auto
  0
XRECORD
  5
207
330
1EA
100
AcDbXrecord
280
1
1000
auto
  0
XRECORD
  5
208
330
1EA
100
AcDbXrecord
280
1
1000
auto
  0
XRECORD
  5
209
330
1EA
100
AcDbXrecord
280
1
1000
auto
  0
XRECORD
  5
20A
330
1EA
100
AcDbXrecord
280
1
1000
auto
  0
XRECORD
  5
20B
330
1EA
100
AcDbXrecord
280
1
 90
1
  0
XRECORD
  5
20C
330
1EA
100
AcDbXrecord
280
1
 40
0.5
  0
XRECORD
  5
20D
330
1EA
100
AcDbXrecord
280
1
 40
0.5
  0
XRECORD
  5
20E
330
1EA
100
AcDbXrecord
280
1
 40
0.5
  0
XRECORD
  5
20F
330
1EA
100
AcDbXrecord
280
1
 40
0.5
  0
XRECORD
  5
210
330
1EA
100
AcDbXrecord
280
1
290
0
  0
XRECORD
  5
211
330
1EA
100
AcDbXrecord
280
1
 90
1
  0
XRECORD
  5
212
330
1EA
100
AcDbXrecord
280
1
 40
-985.0021700043397459
  0
XRECORD
  5
213
330
1EA
100
AcDbXrecord
280
1
 40
-1788.1368634050452329
  0
XRECORD
  5
214
330
1EA
100
AcDbXrecord
280
1
1000
Portrait
  0
XRECORD
  5
215
330
1EA
100
AcDbXrecord
280
1
 40
11.6929133858267722
  0
XRECORD
  5
216
330
1EA
100
AcDbXrecord
280
1
 40
8.2677165354330704
  0
XRECORD
  5
217
330
1EA
100
AcDbXrecord
280
1
1000
0.00381
  0
XRECORD
  5
218
330
1EA
100
AcDbXrecord
280
1
290
1
  0
XRECORD
  5
219
330
1EA
100
AcDbXrecord
280
1
290
0
  0
XRECORD
  5
21A
330
1EA
100
AcDbXrecord
280
1
1000
Inside
  0
XRECORD
  5
21B
330
1EA
100
AcDbXrecord
280
1
1000
Arial,10,-1,5,50,0,0,0,0,0
  0
XRECORD
  5
21C
330
1EA
100
AcDbXrecord
280
1
1000
TopLeft
  0
XRECORD
  5
21D
330
1EA
100
AcDbXrecord
280
1
1000
3.32.6
  0
XRECORD
  5
21E
330
1EA
100
AcDbXrecord
280
1
 90
1
  0
XRECORD
  5
220
330
1EA
100
AcDbXrecord
280
1
 40
488.0538966764877387
  0
XRECORD
  5
221
330
1EA
100
AcDbXrecord
280
1
 40
1027.4089131740834091
  0
ENDSEC
  0
EOF
