999
dxflib 3.26.4.0
  0
SECTION
  2
HEADER
  9
$ACADVER
  1
AC1015
  9
$HANDSEED
  5
FFFF
  9
$DIMADEC
 70
0
  9
$DIMASZ
 40
0.125
  9
$DIMATFIT
 70
0
  9
$DIMAUNIT
 70
0
  9
$DIMAZIN
 70
2
  9
$DIMBLK
  1
0
  9
$DIMBLK1
  1
0
  9
$DIMBLK2
  1
0
  9
$DIMDEC
 70
4
  9
$DIMDLI
 40
0.25
  9
$DIMDSEP
 70
46
  9
$DIMEXE
 40
0.0625
  9
$DIMEXO
 40
0.03125
  9
$DIMGAP
 40
0.03125
  9
$DIMLFAC
 40
1.0
  9
$DIMLUNIT
 70
3
  9
$DIMSCALE
 40
1.0
  9
$DIMTAD
 70
1
  9
$DIMTIH
 70
0
  9
$DIMTSZ
 40
0.0
  9
$DIMTXT
 40
0.125
  9
$DIMZIN
 70
8
  9
$DWGCODEPAGE
  3
ANSI_1252
  9
$INSUNITS
 70
1
  9
$LTSCALE
 40
1.0
  9
$MAXACTVP
 70
64
  9
$MEASUREMENT
 70
0
  9
$MIRRTEXT
 70
0
  9
$PDMODE
 70
0
  9
$PDSIZE
 40
0.0
  0
ENDSEC
  0
SECTION
  2
TABLES
  0
TABLE
  2
VPORT
  5
8
100
AcDbSymbolTable
 70
1
  0
VPORT
  5
30
100
AcDbSymbolTableRecord
100
AcDbViewportTableRecord
  2
*Active
 70
0
 10
0.0
 20
0.0
 11
1.0
 21
1.0
 12
286.3055555555554861
 22
148.5
 13
0.0
 23
0.0
 14
10.0
 24
10.0
 15
10.0
 25
10.0
 16
0.0
 26
0.0
 36
1.0
 17
0.0
 27
0.0
 37
0.0
 40
297.0
 41
1.92798353909465
 42
50.0
 43
0.0
 44
0.0
 50
0.0
 51
0.0
 71
0
 72
100
 73
1
 74
3
 75
1
 76
1
 77
0
 78
0
281
0
 65
1
110
0.0
120
0.0
130
0.0
111
1.0
121
0.0
131
0.0
112
0.0
122
1.0
132
0.0
 79
0
146
0.0
  0
ENDTAB
  0
TABLE
  2
LTYPE
  5
5
100
AcDbSymbolTable
 70
41
  0
LTYPE
  5
16
100
AcDbSymbolTableRecord
100
AcDbLinetypeTableRecord
  2
Continuous
 70
0
  3
Solid line
 72
65
 73
0
 40
0.0
  0
LTYPE
  5
31
100
AcDbSymbolTableRecord
100
AcDbLinetypeTableRecord
  2
DOTX2
 70
0
  3
Dot (2x) .  .  .  .  .  .  .  .  .  .  .  .  .  .
 72
65
 73
2
 40
0.5
 49
0.1
 74
0
 49
-0.4
 74
0
  0
LTYPE
  5
32
100
AcDbSymbolTableRecord
100
AcDbLinetypeTableRecord
  2
ACAD_ISO08W100
 70
0
  3
ISO long-dash short-dash ____ __ ____ __ ____ _
 72
65
 73
4
 40
36.0
 49
24.0
 74
0
 49
-3.0
 74
0
 49
6.0
 74
0
 49
-3.0
 74
0
  0
LTYPE
  5
33
100
AcDbSymbolTableRecord
100
AcDbLinetypeTableRecord
  2
DOT
 70
0
  3
Dot . . . . . . . . . . . . . . . . . . . . . . . .
 72
65
 73
2
 40
0.25
 49
0.1
 74
0
 49
-0.15
 74
0
  0
LTYPE
  5
34
100
AcDbSymbolTableRecord
100
AcDbLinetypeTableRecord
  2
ACAD_ISO12W100
 70
0
  3
ISO dash double-dot __ . . __ . . __ . . __ . . 
 72
65
 73
6
 40
21.0
 49
12.0
 74
0
 49
-2.9500000000000002
 74
0
 49
0.1
 74
0
 49
-2.9000000000000004
 74
0
 49
0.1
 74
0
 49
-2.9500000000000002
 74
0
  0
LTYPE
  5
14
100
AcDbSymbolTableRecord
100
AcDbLinetypeTableRecord
  2
BYBLOCK
 70
0
  3

 72
65
 73
0
 40
0.0
  0
LTYPE
  5
35
100
AcDbSymbolTableRecord
100
AcDbLinetypeTableRecord
  2
ACAD_ISO11W100
 70
0
  3
ISO double-dash dot __ __ . __ __ . __ __ . __ _
 72
65
 73
6
 40
33.0
 49
12.0
 74
0
 49
-3.0
 74
0
 49
12.0
 74
0
 49
-2.9500000000000002
 74
0
 49
0.1
 74
0
 49
-2.9500000000000002
 74
0
  0
LTYPE
  5
36
100
AcDbSymbolTableRecord
100
AcDbLinetypeTableRecord
  2
PHANTOM
 70
0
  3
Phantom ______  __  __  ______  __  __  ______ 
 72
65
 73
6
 40
2.5
 49
1.25
 74
0
 49
-0.25
 74
0
 49
0.25
 74
0
 49
-0.25
 74
0
 49
0.25
 74
0
 49
-0.25
 74
0
  0
LTYPE
  5
15
100
AcDbSymbolTableRecord
100
AcDbLinetypeTableRecord
  2
BYLAYER
 70
0
  3

 72
65
 73
0
 40
0.0
  0
LTYPE
  5
37
100
AcDbSymbolTableRecord
100
AcDbLinetypeTableRecord
  2
DASHED2
 70
0
  3
Dashed (.5x) _ _ _ _ _ _ _ _ _ _ _ _ _ _ _ _ _ 
 72
65
 73
2
 40
0.375
 49
0.25
 74
0
 49
-0.125
 74
0
  0
LTYPE
  5
38
100
AcDbSymbolTableRecord
100
AcDbLinetypeTableRecord
  2
ACAD_ISO13W100
 70
0
  3
ISO double-dash double-dot __ __ . . __ __ . . _
 72
65
 73
8
 40
36.0000000000000071
 49
12.0
 74
0
 49
-3.0
 74
0
 49
12.0
 74
0
 49
-2.9500000000000002
 74
0
 49
0.1
 74
0
 49
-2.9000000000000004
 74
0
 49
0.1
 74
0
 49
-2.9500000000000002
 74
0
  0
LTYPE
  5
39
100
AcDbSymbolTableRecord
100
AcDbLinetypeTableRecord
  2
DIVIDE
 70
0
  3
Divide ____ . . ____ . . ____ . . ____ . . ____
 72
65
 73
6
 40
1.25
 49
0.5
 74
0
 49
-0.2
 74
0
 49
0.1
 74
0
 49
-0.15
 74
0
 49
0.1
 74
0
 49
-0.2
 74
0
  0
LTYPE
  5
3A
100
AcDbSymbolTableRecord
100
AcDbLinetypeTableRecord
  2
ACAD_ISO06W100
 70
0
  3
ISO long-dash triple-dot ____ ... ____ ... ____
 72
65
 73
8
 40
36.0000000000000071
 49
24.0
 74
0
 49
-2.9500000000000002
 74
0
 49
0.1
 74
0
 49
-2.9000000000000004
 74
0
 49
0.1
 74
0
 49
-2.9000000000000004
 74
0
 49
0.1
 74
0
 49
-2.9500000000000002
 74
0
  0
LTYPE
  5
3B
100
AcDbSymbolTableRecord
100
AcDbLinetypeTableRecord
  2
PHANTOMX2
 70
0
  3
Phantom (2x) ____________    ____    ____   _
 72
65
 73
6
 40
5.0
 49
2.5
 74
0
 49
-0.5
 74
0
 49
0.5
 74
0
 49
-0.5
 74
0
 49
0.5
 74
0
 49
-0.5
 74
0
  0
LTYPE
  5
3C
100
AcDbSymbolTableRecord
100
AcDbLinetypeTableRecord
  2
DIVIDE2
 70
0
  3
Divide (.5x) __..__..__..__..__..__..__..__.._
 72
65
 73
6
 40
0.625
 49
0.25
 74
0
 49
-0.075
 74
0
 49
0.1
 74
0
 49
-0.025
 74
0
 49
0.1
 74
0
 49
-0.075
 74
0
  0
LTYPE
  5
3D
100
AcDbSymbolTableRecord
100
AcDbLinetypeTableRecord
  2
ACAD_ISO15W100
 70
0
  3
ISO double-dash triple-dot __ __ . . . __ __ . .
 72
65
 73
10
 40
39.0000000000000071
 49
12.0
 74
0
 49
-3.0
 74
0
 49
12.0
 74
0
 49
-2.9500000000000002
 74
0
 49
0.1
 74
0
 49
-2.9000000000000004
 74
0
 49
0.1
 74
0
 49
-2.9000000000000004
 74
0
 49
0.1
 74
0
 49
-2.9500000000000002
 74
0
  0
LTYPE
  5
3E
100
AcDbSymbolTableRecord
100
AcDbLinetypeTableRecord
  2
ACAD_ISO10W100
 70
0
  3
ISO dash dot __ . __ . __ . __ . __ . __ . __ . 
 72
65
 73
4
 40
18.0
 49
12.0
 74
0
 49
-2.9500000000000002
 74
0
 49
0.1
 74
0
 49
-2.9500000000000002
 74
0
  0
LTYPE
  5
3F
100
AcDbSymbolTableRecord
100
AcDbLinetypeTableRecord
  2
ACAD_ISO07W100
 70
0
  3
ISO dot . . . . . . . . . . . . . . . . . . . . 
 72
65
 73
2
 40
3.0
 49
0.1
 74
0
 49
-2.8999999999999999
 74
0
  0
LTYPE
  5
40
100
AcDbSymbolTableRecord
100
AcDbLinetypeTableRecord
  2
BORDER2
 70
0
  3
Border (.5x) __.__.__.__.__.__.__.__.__.__.__.
 72
65
 73
6
 40
0.8749999999999999
 49
0.25
 74
0
 49
-0.125
 74
0
 49
0.25
 74
0
 49
-0.075
 74
0
 49
0.1
 74
0
 49
-0.075
 74
0
  0
LTYPE
  5
41
100
AcDbSymbolTableRecord
100
AcDbLinetypeTableRecord
  2
DASHDOT2
 70
0
  3
Dash dot (.5x) _._._._._._._._._._._._._._._.
 72
65
 73
4
 40
0.5
 49
0.25
 74
0
 49
-0.075
 74
0
 49
0.1
 74
0
 49
-0.075
 74
0
  0
LTYPE
  5
42
100
AcDbSymbolTableRecord
100
AcDbLinetypeTableRecord
  2
DIVIDEX2
 70
0
  3
Divide (2x) ________  .  .  ________  .  .  _
 72
65
 73
6
 40
2.5000000000000004
 49
1.0
 74
0
 49
-0.45
 74
0
 49
0.1
 74
0
 49
-0.4
 74
0
 49
0.1
 74
0
 49
-0.45
 74
0
  0
LTYPE
  5
43
100
AcDbSymbolTableRecord
100
AcDbLinetypeTableRecord
  2
ACAD_ISO09W100
 70
0
  3
ISO long-dash double-short-dash ____ __ __ ____
 72
65
 73
6
 40
45.0
 49
24.0
 74
0
 49
-3.0
 74
0
 49
6.0
 74
0
 49
-3.0
 74
0
 49
6.0
 74
0
 49
-3.0
 74
0
  0
LTYPE
  5
44
100
AcDbSymbolTableRecord
100
AcDbLinetypeTableRecord
  2
HIDDENX2
 70
0
  3
Hidden (2x) ____ ____ ____ ____ ____ ____ ____ 
 72
65
 73
2
 40
0.75
 49
0.5
 74
0
 49
-0.25
 74
0
  0
LTYPE
  5
45
100
AcDbSymbolTableRecord
100
AcDbLinetypeTableRecord
  2
BORDER
 70
0
  3
Border __ __ . __ __ . __ __ . __ __ . __ __ .
 72
65
 73
6
 40
1.75
 49
0.5
 74
0
 49
-0.25
 74
0
 49
0.5
 74
0
 49
-0.2
 74
0
 49
0.1
 74
0
 49
-0.2
 74
0
  0
LTYPE
  5
46
100
AcDbSymbolTableRecord
100
AcDbLinetypeTableRecord
  2
ACAD_ISO03W100
 70
0
  3
ISO dash space __    __    __    __    __    __
 72
65
 73
2
 40
30.0
 49
12.0
 74
0
 49
-18.0
 74
0
  0
LTYPE
  5
47
100
AcDbSymbolTableRecord
100
AcDbLinetypeTableRecord
  2
HIDDEN
 70
0
  3
Hidden __ __ __ __ __ __ __ __ __ __ __ __ __ __
 72
65
 73
2
 40
0.375
 49
0.25
 74
0
 49
-0.125
 74
0
  0
LTYPE
  5
48
100
AcDbSymbolTableRecord
100
AcDbLinetypeTableRecord
  2
DASHED
 70
0
  3
Dashed __ __ __ __ __ __ __ __ __ __ __ __ __ _
 72
65
 73
2
 40
0.75
 49
0.5
 74
0
 49
-0.25
 74
0
  0
LTYPE
  5
49
100
AcDbSymbolTableRecord
100
AcDbLinetypeTableRecord
  2
ACAD_ISO14W100
 70
0
  3
ISO dash triple-dot __ . . . __ . . . __ . . . _
 72
65
 73
8
 40
24.0000000000000036
 49
12.0
 74
0
 49
-2.9500000000000002
 74
0
 49
0.1
 74
0
 49
-2.9000000000000004
 74
0
 49
0.1
 74
0
 49
-2.9000000000000004
 74
0
 49
0.1
 74
0
 49
-2.9500000000000002
 74
0
  0
LTYPE
  5
4A
100
AcDbSymbolTableRecord
100
AcDbLinetypeTableRecord
  2
DASHDOTX2
 70
0
  3
Dash dot (2x) ____  .  ____  .  ____  .  ___
 72
65
 73
4
 40
2.0
 49
1.0
 74
0
 49
-0.45
 74
0
 49
0.1
 74
0
 49
-0.45
 74
0
  0
LTYPE
  5
4B
100
AcDbSymbolTableRecord
100
AcDbLinetypeTableRecord
  2
BORDERX2
 70
0
  3
Border (2x) ____  ____  .  ____  ____  .  ___
 72
65
 73
6
 40
3.5000000000000004
 49
1.0
 74
0
 49
-0.5
 74
0
 49
1.0
 74
0
 49
-0.45
 74
0
 49
0.1
 74
0
 49
-0.45
 74
0
  0
LTYPE
  5
4C
100
AcDbSymbolTableRecord
100
AcDbLinetypeTableRecord
  2
PHANTOM2
 70
0
  3
Phantom (.5x) ___ _ _ ___ _ _ ___ _ _ ___ _ _
 72
65
 73
6
 40
1.25
 49
0.625
 74
0
 49
-0.125
 74
0
 49
0.125
 74
0
 49
-0.125
 74
0
 49
0.125
 74
0
 49
-0.125
 74
0
  0
LTYPE
  5
4D
100
AcDbSymbolTableRecord
100
AcDbLinetypeTableRecord
  2
DOT2
 70
0
  3
Dot (.5x) ........................................
 72
65
 73
2
 40
0.125
 49
0.1
 74
0
 49
-0.025
 74
0
  0
LTYPE
  5
4E
100
AcDbSymbolTableRecord
100
AcDbLinetypeTableRecord
  2
HIDDEN2
 70
0
  3
Hidden (.5x) _ _ _ _ _ _ _ _ _ _ _ _ _ _ _ _ _ 
 72
65
 73
2
 40
0.1875
 49
0.125
 74
0
 49
-0.0625
 74
0
  0
LTYPE
  5
4F
100
AcDbSymbolTableRecord
100
AcDbLinetypeTableRecord
  2
CENTER
 70
0
  3
Center ____ _ ____ _ ____ _ ____ _ ____ _ ____
 72
65
 73
4
 40
2.0
 49
1.25
 74
0
 49
-0.25
 74
0
 49
0.25
 74
0
 49
-0.25
 74
0
  0
LTYPE
  5
50
100
AcDbSymbolTableRecord
100
AcDbLinetypeTableRecord
  2
DASHEDX2
 70
0
  3
Dashed (2x) ____  ____  ____  ____  ____  ___
 72
65
 73
2
 40
1.5
 49
1.0
 74
0
 49
-0.5
 74
0
  0
LTYPE
  5
51
100
AcDbSymbolTableRecord
100
AcDbLinetypeTableRecord
  2
CENTERX2
 70
0
  3
Center (2x) ________  __  ________  __  _____
 72
65
 73
4
 40
4.0
 49
2.5
 74
0
 49
-0.5
 74
0
 49
0.5
 74
0
 49
-0.5
 74
0
  0
LTYPE
  5
52
100
AcDbSymbolTableRecord
100
AcDbLinetypeTableRecord
  2
ACAD_ISO02W100
 70
0
  3
ISO dash __ __ __ __ __ __ __ __ __ __ __ __ __
 72
65
 73
2
 40
15.0
 49
12.0
 74
0
 49
-3.0
 74
0
  0
LTYPE
  5
53
100
AcDbSymbolTableRecord
100
AcDbLinetypeTableRecord
  2
CENTER2
 70
0
  3
Center (.5x) ___ _ ___ _ ___ _ ___ _ ___ _ ___
 72
65
 73
4
 40
1.125
 49
0.75
 74
0
 49
-0.125
 74
0
 49
0.125
 74
0
 49
-0.125
 74
0
  0
LTYPE
  5
54
100
AcDbSymbolTableRecord
100
AcDbLinetypeTableRecord
  2
DASHDOT
 70
0
  3
Dash dot __ . __ . __ . __ . __ . __ . __ . __
 72
65
 73
4
 40
1.0
 49
0.5
 74
0
 49
-0.2
 74
0
 49
0.1
 74
0
 49
-0.2
 74
0
  0
LTYPE
  5
55
100
AcDbSymbolTableRecord
100
AcDbLinetypeTableRecord
  2
ACAD_ISO04W100
 70
0
  3
ISO long-dash dot ____ . ____ . ____ . ____ . _
 72
65
 73
4
 40
30.0
 49
24.0
 74
0
 49
-2.9500000000000002
 74
0
 49
0.1
 74
0
 49
-2.9500000000000002
 74
0
  0
LTYPE
  5
56
100
AcDbSymbolTableRecord
100
AcDbLinetypeTableRecord
  2
ACAD_ISO05W100
 70
0
  3
ISO long-dash double-dot ____ .. ____ .. ____ . 
 72
65
 73
6
 40
33.0000000000000071
 49
24.0
 74
0
 49
-2.9500000000000002
 74
0
 49
0.1
 74
0
 49
-2.9000000000000004
 74
0
 49
0.1
 74
0
 49
-2.9500000000000002
 74
0
  0
ENDTAB
  0
TABLE
  2
LAYER
  5
2
100
AcDbSymbolTable
 70
1
  0
LAYER
  5
10
100
AcDbSymbolTableRecord
100
AcDbLayerTableRecord
  2
0
 70
0
 62
7
420
16777215
  6
Continuous
370
25
390
F
  0
ENDTAB
  0
TABLE
  2
STYLE
  5
3
100
AcDbSymbolTable
 70
19
  0
STYLE
  5
57
100
AcDbSymbolTableRecord
100
AcDbTextStyleTableRecord
  2
Standard
 70
0
 40
0.0
 41
1.0
 50
0.0
 71
0
 42
2.5
  3

  4

1001
ACAD
1000
txt
1071
0
  0
STYLE
  5
58
100
AcDbSymbolTableRecord
100
AcDbTextStyleTableRecord
  2
textstyle0
 70
0
 40
0.0
 41
1.0
 50
0.0
 71
0
 42
1.0
  3

  4

1001
ACAD
1000
Liberation Sans
1071
0
  0
STYLE
  5
59
100
AcDbSymbolTableRecord
100
AcDbTextStyleTableRecord
  2
textstyle1
 70
0
 40
0.0
 41
1.0
 50
0.0
 71
0
 42
1.0
  3

  4

1001
ACAD
1000
Liberation Sans
1071
0
  0
STYLE
  5
5A
100
AcDbSymbolTableRecord
100
AcDbTextStyleTableRecord
  2
textstyle2
 70
0
 40
0.0
 41
1.0
 50
0.0
 71
0
 42
1.0
  3

  4

1001
ACAD
1000
Liberation Sans
1071
0
  0
STYLE
  5
5B
100
AcDbSymbolTableRecord
100
AcDbTextStyleTableRecord
  2
textstyle3
 70
0
 40
0.0
 41
1.0
 50
0.0
 71
0
 42
1.0
  3

  4

1001
ACAD
1000
Liberation Sans
1071
0
  0
STYLE
  5
5C
100
AcDbSymbolTableRecord
100
AcDbTextStyleTableRecord
  2
textstyle4
 70
0
 40
0.0
 41
1.0
 50
0.0
 71
0
 42
1.0
  3

  4

1001
ACAD
1000
Liberation Sans
1071
0
  0
STYLE
  5
5D
100
AcDbSymbolTableRecord
100
AcDbTextStyleTableRecord
  2
textstyle5
 70
0
 40
0.0
 41
1.0
 50
0.0
 71
0
 42
1.0
  3

  4

1001
ACAD
1000
Liberation Sans
1071
0
  0
STYLE
  5
5E
100
AcDbSymbolTableRecord
100
AcDbTextStyleTableRecord
  2
textstyle6
 70
0
 40
0.0
 41
1.0
 50
0.0
 71
0
 42
1.0
  3

  4

1001
ACAD
1000
Liberation Sans
1071
0
  0
STYLE
  5
5F
100
AcDbSymbolTableRecord
100
AcDbTextStyleTableRecord
  2
textstyle7
 70
0
 40
0.0
 41
1.0
 50
0.0
 71
0
 42
1.0
  3

  4

1001
ACAD
1000
Liberation Sans
1071
0
  0
STYLE
  5
60
100
AcDbSymbolTableRecord
100
AcDbTextStyleTableRecord
  2
textstyle8
 70
0
 40
0.0
 41
1.0
 50
0.0
 71
0
 42
1.0
  3

  4

1001
ACAD
1000
Liberation Sans
1071
0
  0
STYLE
  5
61
100
AcDbSymbolTableRecord
100
AcDbTextStyleTableRecord
  2
textstyle9
 70
0
 40
0.0
 41
1.0
 50
0.0
 71
0
 42
1.0
  3

  4

1001
ACAD
1000
Liberation Sans
1071
0
  0
STYLE
  5
62
100
AcDbSymbolTableRecord
100
AcDbTextStyleTableRecord
  2
textstyle10
 70
0
 40
0.0
 41
1.0
 50
0.0
 71
0
 42
1.0
  3

  4

1001
ACAD
1000
Liberation Sans
1071
0
  0
STYLE
  5
63
100
AcDbSymbolTableRecord
100
AcDbTextStyleTableRecord
  2
textstyle11
 70
0
 40
0.0
 41
1.0
 50
0.0
 71
0
 42
1.0
  3

  4

1001
ACAD
1000
Liberation Sans
1071
0
  0
STYLE
  5
64
100
AcDbSymbolTableRecord
100
AcDbTextStyleTableRecord
  2
textstyle12
 70
0
 40
0.0
 41
1.0
 50
0.0
 71
0
 42
1.0
  3

  4

1001
ACAD
1000
Liberation Sans
1071
0
  0
STYLE
  5
65
100
AcDbSymbolTableRecord
100
AcDbTextStyleTableRecord
  2
textstyle13
 70
0
 40
0.0
 41
1.0
 50
0.0
 71
0
 42
1.0
  3

  4

1001
ACAD
1000
Liberation Sans
1071
0
  0
STYLE
  5
66
100
AcDbSymbolTableRecord
100
AcDbTextStyleTableRecord
  2
textstyle14
 70
0
 40
0.0
 41
1.0
 50
0.0
 71
0
 42
1.0
  3

  4

1001
ACAD
1000
Liberation Sans
1071
0
  0
STYLE
  5
67
100
AcDbSymbolTableRecord
100
AcDbTextStyleTableRecord
  2
textstyle15
 70
0
 40
0.0
 41
1.0
 50
0.0
 71
0
 42
1.0
  3

  4

1001
ACAD
1000
Liberation Sans
1071
0
  0
STYLE
  5
68
100
AcDbSymbolTableRecord
100
AcDbTextStyleTableRecord
  2
textstyle16
 70
0
 40
0.0
 41
1.0
 50
0.0
 71
0
 42
1.0
  3

  4

1001
ACAD
1000
Liberation Sans
1071
0
  0
STYLE
  5
69
100
AcDbSymbolTableRecord
100
AcDbTextStyleTableRecord
  2
textstyle17
 70
0
 40
0.0
 41
1.0
 50
0.0
 71
0
 42
1.0
  3

  4

1001
ACAD
1000
Liberation Sans
1071
0
  0
ENDTAB
  0
TABLE
  2
VIEW
  5
6
100
AcDbSymbolTable
 70
0
  0
ENDTAB
  0
TABLE
  2
UCS
  5
7
100
AcDbSymbolTable
 70
0
  0
ENDTAB
  0
TABLE
  2
APPID
  5
9
100
AcDbSymbolTable
 70
1
  0
APPID
  5
12
100
AcDbSymbolTableRecord
100
AcDbRegAppTableRecord
  2
ACAD
 70
0
  0
APPID
  5
6A
100
AcDbSymbolTableRecord
100
AcDbRegAppTableRecord
  2
QCAD
 70
0
  0
ENDTAB
  0
TABLE
  2
DIMSTYLE
  5
A
100
AcDbSymbolTable
 70
1
100
AcDbDimStyleTable
 71
0
  0
DIMSTYLE
105
27
100
AcDbSymbolTableRecord
100
AcDbDimStyleTableRecord
  2
Standard
 41
0.125
 42
0.03125
 43
3.75
 44
0.0625
 70
0
 73
0
 74
0
 77
1
 78
8
140
0.125
141
2.5
143
0.03937007874016
147
0.03125
171
3
172
1
271
2
272
2
274
3
278
44
283
0
284
8
340
57
  0
ENDTAB
  0
TABLE
  2
BLOCK_RECORD
  5
1
100
AcDbSymbolTable
 70
1
  0
BLOCK_RECORD
  5
1F
100
AcDbSymbolTableRecord
100
AcDbBlockTableRecord
  2
*Model_Space
340
22
  0
BLOCK_RECORD
  5
1B
100
AcDbSymbolTableRecord
100
AcDbBlockTableRecord
  2
*Paper_Space
340
1E
  0
BLOCK_RECORD
  5
23
100
AcDbSymbolTableRecord
100
AcDbBlockTableRecord
  2
*Paper_Space0
340
26
  0
BLOCK_RECORD
  5
6B
100
AcDbSymbolTableRecord
100
AcDbBlockTableRecord
  2
XLR Connector
340
0
  0
BLOCK_RECORD
  5
6C
100
AcDbSymbolTableRecord
100
AcDbBlockTableRecord
  2
block_2
340
0
  0
BLOCK_RECORD
  5
6D
100
AcDbSymbolTableRecord
100
AcDbBlockTableRecord
  2
block_1
340
0
  0
BLOCK_RECORD
  5
6E
100
AcDbSymbolTableRecord
100
AcDbBlockTableRecord
  2
DB25 Connector
340
0
  0
ENDTAB
  0
ENDSEC
  0
SECTION
  2
BLOCKS
  0
BLOCK
  5
20
100
AcDbEntity
  8
0
100
AcDbBlockBegin
  2
*Model_Space
 70
0
 10
0.0
 20
0.0
 30
0.0
  3
*Model_Space
  1

  0
ENDBLK
  5
21
100
AcDbEntity
  8
0
100
AcDbBlockEnd
  0
BLOCK
  5
1C
100
AcDbEntity
 67
1
  8
0
100
AcDbBlockBegin
  2
*Paper_Space
 70
0
 10
0.0
 20
0.0
 30
0.0
  3
*Paper_Space
  1

  0
ENDBLK
  5
1D
100
AcDbEntity
 67
1
  8
0
100
AcDbBlockEnd
  0
BLOCK
  5
24
100
AcDbEntity
  8
0
100
AcDbBlockBegin
  2
*Paper_Space0
 70
0
 10
0.0
 20
0.0
 30
0.0
  3
*Paper_Space0
  1

  0
ENDBLK
  5
25
100
AcDbEntity
  8
0
100
AcDbBlockEnd
  0
BLOCK
  5
6F
100
AcDbEntity
  8
0
100
AcDbBlockBegin
  2
XLR Connector
 70
0
 10
0.0
 20
0.0
 30
0.0
  3
XLR Connector
  1

  0
ARC
  5
70
100
AcDbEntity
  8
0
 62
256
370
-1
 48
1.0
  6
BYLAYER
100
AcDbCircle
 10
-0.5656854249492369
 20
0.0
 30
0.0
 40
0.424264068711928
100
AcDbArc
 50
135.0000000000001705
 51
44.9999999999999147
  0
CIRCLE
  5
71
100
AcDbEntity
  8
0
 62
256
370
-1
 48
1.0
  6
BYLAYER
100
AcDbCircle
 10
-0.5656854249492369
 20
0.0
 30
0.0
 40
0.5656854249492381
  0
CIRCLE
  5
72
100
AcDbEntity
  8
0
 62
256
370
-1
 48
1.0
  6
BYLAYER
100
AcDbCircle
 10
-0.715685424949239
 20
0.0085786437626885
 30
0.0
 40
0.0707106781186551
  0
CIRCLE
  5
73
100
AcDbEntity
  8
0
 62
256
370
-1
 48
1.0
  6
BYLAYER
100
AcDbCircle
 10
-0.4156854249492383
 20
0.0085786437626885
 30
0.0
 40
0.0707106781186551
  0
CIRCLE
  5
74
100
AcDbEntity
  8
0
 62
256
370
-1
 48
1.0
  6
BYLAYER
100
AcDbCircle
 10
-0.5656854249492369
 20
-0.2401569291092978
 30
0.0
 40
0.0700784645546487
  0
LINE
  5
75
100
AcDbEntity
  8
0
 62
256
370
-1
 48
1.0
  6
BYLAYER
100
AcDbLine
 10
-0.8656854249492376
 20
0.2999999999999989
 30
0.0
 11
-0.2656854249492362
 21
0.2999999999999989
 31
0.0
  0
ENDBLK
  5
76
100
AcDbEntity
  8
0
100
AcDbBlockEnd
  0
BLOCK
  5
77
100
AcDbEntity
  8
0
100
AcDbBlockBegin
  2
block_2
 70
0
 10
0.0
 20
0.0
 30
0.0
  3
block_2
  1

  0
ENDBLK
  5
78
100
AcDbEntity
  8
0
100
AcDbBlockEnd
  0
BLOCK
  5
79
100
AcDbEntity
  8
0
100
AcDbBlockBegin
  2
block_1
 70
0
 10
0.0
 20
0.0
 30
0.0
  3
block_1
  1

  0
ENDBLK
  5
7A
100
AcDbEntity
  8
0
100
AcDbBlockEnd
  0
BLOCK
  5
7B
100
AcDbEntity
  8
0
100
AcDbBlockBegin
  2
DB25 Connector
 70
0
 10
0.0
 20
0.0
 30
0.0
  3
DB25 Connector
  1

  0
LINE
  5
7C
100
AcDbEntity
  8
0
 62
256
370
-1
 48
1.0
  6
BYLAYER
100
AcDbLine
 10
-2.0
 20
0.5
 30
0.0
 11
-2.0
 21
0.0
 31
0.0
  0
LINE
  5
7D
100
AcDbEntity
  8
0
 62
256
370
-1
 48
1.0
  6
BYLAYER
100
AcDbLine
 10
-2.0
 20
0.0
 30
0.0
 11
0.0
 21
0.0
 31
0.0
  0
LINE
  5
7E
100
AcDbEntity
  8
0
 62
256
370
-1
 48
1.0
  6
BYLAYER
100
AcDbLine
 10
0.0
 20
0.0
 30
0.0
 11
0.0
 21
0.5
 31
0.0
  0
LINE
  5
7F
100
AcDbEntity
  8
0
 62
256
370
-1
 48
1.0
  6
BYLAYER
100
AcDbLine
 10
0.0
 20
0.5
 30
0.0
 11
-2.0
 21
0.5
 31
0.0
  0
LINE
  5
80
100
AcDbEntity
  8
0
 62
256
370
-1
 48
1.0
  6
BYLAYER
100
AcDbLine
 10
-1.8000000000000007
 20
0.3999999999999999
 30
0.0
 11
-1.7000000000000028
 21
0.1000000000000001
 31
0.0
  0
LINE
  5
81
100
AcDbEntity
  8
0
 62
256
370
-1
 48
1.0
  6
BYLAYER
100
AcDbLine
 10
-1.7000000000000028
 20
0.1000000000000001
 30
0.0
 11
-0.3000000000000007
 21
0.1000000000000001
 31
0.0
  0
LINE
  5
82
100
AcDbEntity
  8
0
 62
256
370
-1
 48
1.0
  6
BYLAYER
100
AcDbLine
 10
-0.3000000000000007
 20
0.1000000000000001
 30
0.0
 11
-0.2000000000000028
 21
0.3999999999999999
 31
0.0
  0
LINE
  5
83
100
AcDbEntity
  8
0
 62
256
370
-1
 48
1.0
  6
BYLAYER
100
AcDbLine
 10
-0.2000000000000028
 20
0.3999999999999999
 30
0.0
 11
-1.8000000000000007
 21
0.3999999999999999
 31
0.0
  0
POINT
  5
84
100
AcDbEntity
  8
0
 62
256
370
-1
 48
1.0
  6
BYLAYER
100
AcDbPoint
 10
-1.7000000000000028
 20
0.3000000000000003
 30
0.0
  0
POINT
  5
85
100
AcDbEntity
  8
0
 62
256
370
-1
 48
1.0
  6
BYLAYER
100
AcDbPoint
 10
-1.6000000000000014
 20
0.2000000000000002
 30
0.0
  0
POINT
  5
86
100
AcDbEntity
  8
0
 62
256
370
-1
 48
1.0
  6
BYLAYER
100
AcDbPoint
 10
-1.5
 20
0.3000000000000003
 30
0.0
  0
POINT
  5
87
100
AcDbEntity
  8
0
 62
256
370
-1
 48
1.0
  6
BYLAYER
100
AcDbPoint
 10
-1.4000000000000021
 20
0.2000000000000002
 30
0.0
  0
POINT
  5
88
100
AcDbEntity
  8
0
 62
256
370
-1
 48
1.0
  6
BYLAYER
100
AcDbPoint
 10
-1.3000000000000007
 20
0.3000000000000003
 30
0.0
  0
POINT
  5
89
100
AcDbEntity
  8
0
 62
256
370
-1
 48
1.0
  6
BYLAYER
100
AcDbPoint
 10
-1.2000000000000028
 20
0.2000000000000002
 30
0.0
  0
POINT
  5
8A
100
AcDbEntity
  8
0
 62
256
370
-1
 48
1.0
  6
BYLAYER
100
AcDbPoint
 10
-1.1000000000000014
 20
0.3000000000000003
 30
0.0
  0
POINT
  5
8B
100
AcDbEntity
  8
0
 62
256
370
-1
 48
1.0
  6
BYLAYER
100
AcDbPoint
 10
-1.0
 20
0.2000000000000002
 30
0.0
  0
POINT
  5
8C
100
AcDbEntity
  8
0
 62
256
370
-1
 48
1.0
  6
BYLAYER
100
AcDbPoint
 10
-0.9000000000000021
 20
0.3000000000000003
 30
0.0
  0
POINT
  5
8D
100
AcDbEntity
  8
0
 62
256
370
-1
 48
1.0
  6
BYLAYER
100
AcDbPoint
 10
-0.8000000000000007
 20
0.2000000000000002
 30
0.0
  0
POINT
  5
8E
100
AcDbEntity
  8
0
 62
256
370
-1
 48
1.0
  6
BYLAYER
100
AcDbPoint
 10
-0.7000000000000028
 20
0.3000000000000003
 30
0.0
  0
POINT
  5
8F
100
AcDbEntity
  8
0
 62
256
370
-1
 48
1.0
  6
BYLAYER
100
AcDbPoint
 10
-0.6000000000000014
 20
0.2000000000000002
 30
0.0
  0
POINT
  5
90
100
AcDbEntity
  8
0
 62
256
370
-1
 48
1.0
  6
BYLAYER
100
AcDbPoint
 10
-0.5
 20
0.3000000000000003
 30
0.0
  0
POINT
  5
91
100
AcDbEntity
  8
0
 62
256
370
-1
 48
1.0
  6
BYLAYER
100
AcDbPoint
 10
-0.4000000000000021
 20
0.2000000000000002
 30
0.0
  0
POINT
  5
92
100
AcDbEntity
  8
0
 62
256
370
-1
 48
1.0
  6
BYLAYER
100
AcDbPoint
 10
-0.3000000000000007
 20
0.3000000000000003
 30
0.0
  0
CIRCLE
  5
93
100
AcDbEntity
  8
0
 62
256
370
-1
 48
1.0
  6
BYLAYER
100
AcDbCircle
 10
-0.1225233738183071
 20
0.2473967658027307
 30
0.0
 40
0.0524762401160566
  0
CIRCLE
  5
94
100
AcDbEntity
  8
0
 62
256
370
-1
 48
1.0
  6
BYLAYER
100
AcDbCircle
 10
-1.896904762272996
 20
0.2615514440412037
 30
0.0
 40
0.0564082534082316
  0
POINT
  5
95
100
AcDbEntity
  8
0
 62
256
370
-1
 48
1.0
  6
BYLAYER
100
AcDbPoint
 10
-1.6000000000000014
 20
0.3000000000000003
 30
0.0
  0
POINT
  5
96
100
AcDbEntity
  8
0
 62
256
370
-1
 48
1.0
  6
BYLAYER
100
AcDbPoint
 10
-1.5
 20
0.2000000000000002
 30
0.0
  0
POINT
  5
97
100
AcDbEntity
  8
0
 62
256
370
-1
 48
1.0
  6
BYLAYER
100
AcDbPoint
 10
-1.4000000000000021
 20
0.3000000000000003
 30
0.0
  0
POINT
  5
98
100
AcDbEntity
  8
0
 62
256
370
-1
 48
1.0
  6
BYLAYER
100
AcDbPoint
 10
-1.3000000000000007
 20
0.2000000000000002
 30
0.0
  0
POINT
  5
99
100
AcDbEntity
  8
0
 62
256
370
-1
 48
1.0
  6
BYLAYER
100
AcDbPoint
 10
-1.2000000000000028
 20
0.3000000000000003
 30
0.0
  0
POINT
  5
9A
100
AcDbEntity
  8
0
 62
256
370
-1
 48
1.0
  6
BYLAYER
100
AcDbPoint
 10
-1.1000000000000014
 20
0.2000000000000002
 30
0.0
  0
POINT
  5
9B
100
AcDbEntity
  8
0
 62
256
370
-1
 48
1.0
  6
BYLAYER
100
AcDbPoint
 10
-1.0
 20
0.3000000000000003
 30
0.0
  0
POINT
  5
9C
100
AcDbEntity
  8
0
 62
256
370
-1
 48
1.0
  6
BYLAYER
100
AcDbPoint
 10
-0.9000000000000021
 20
0.2000000000000002
 30
0.0
  0
POINT
  5
9D
100
AcDbEntity
  8
0
 62
256
370
-1
 48
1.0
  6
BYLAYER
100
AcDbPoint
 10
-0.8000000000000007
 20
0.3000000000000003
 30
0.0
  0
POINT
  5
9E
100
AcDbEntity
  8
0
 62
256
370
-1
 48
1.0
  6
BYLAYER
100
AcDbPoint
 10
-0.7000000000000028
 20
0.2000000000000002
 30
0.0
  0
POINT
  5
9F
100
AcDbEntity
  8
0
 62
256
370
-1
 48
1.0
  6
BYLAYER
100
AcDbPoint
 10
-0.6000000000000014
 20
0.3000000000000003
 30
0.0
  0
POINT
  5
A0
100
AcDbEntity
  8
0
 62
256
370
-1
 48
1.0
  6
BYLAYER
100
AcDbPoint
 10
-0.5
 20
0.2000000000000002
 30
0.0
  0
POINT
  5
A1
100
AcDbEntity
  8
0
 62
256
370
-1
 48
1.0
  6
BYLAYER
100
AcDbPoint
 10
-0.4000000000000021
 20
0.3000000000000003
 30
0.0
  0
ENDBLK
  5
A2
100
AcDbEntity
  8
0
100
AcDbBlockEnd
  0
ENDSEC
  0
SECTION
  2
ENTITIES
  0
LINE
  5
A3
100
AcDbEntity
  8
0
 62
256
370
-1
 48
1.0
  6
BYLAYER
100
AcDbLine
 10
0.0
 20
0.0
 30
0.0
 11
36.0
 21
0.0
 31
0.0
  0
LINE
  5
A4
100
AcDbEntity
  8
0
 62
256
370
-1
 48
1.0
  6
BYLAYER
100
AcDbLine
 10
0.0
 20
3.0
 30
0.0
 11
0.0
 21
0.0
 31
0.0
  0
LINE
  5
A5
100
AcDbEntity
  8
0
 62
256
370
-1
 48
1.0
  6
BYLAYER
100
AcDbLine
 10
-0.0
 20
-0.0
 30
0.0
 11
-18.0
 21
0.0
 31
0.0
  0
LINE
  5
A6
100
AcDbEntity
  8
0
 62
256
370
-1
 48
1.0
  6
BYLAYER
100
AcDbLine
 10
-18.0
 20
0.0
 30
0.0
 11
-18.0
 21
19.0
 31
0.0
  0
LINE
  5
A7
100
AcDbEntity
  8
0
 62
256
370
-1
 48
1.0
  6
BYLAYER
100
AcDbLine
 10
-18.0
 20
19.0
 30
0.0
 11
36.0
 21
19.0
 31
0.0
  0
LINE
  5
A8
100
AcDbEntity
  8
0
 62
256
370
-1
 48
1.0
  6
BYLAYER
100
AcDbLine
 10
36.0
 20
19.0
 30
0.0
 11
36.0
 21
0.0
 31
0.0
  0
LINE
  5
A9
100
AcDbEntity
  8
0
 62
256
370
-1
 48
1.0
  6
BYLAYER
100
AcDbLine
 10
0.0
 20
3.0
 30
0.0
 11
0.0
 21
19.0
 31
0.0
  0
LINE
  5
AA
100
AcDbEntity
  8
0
 62
256
370
-1
 48
1.0
  6
BYLAYER
100
AcDbLine
 10
36.0
 20
19.0
 30
0.0
 11
70.0
 21
19.0
 31
0.0
  0
LINE
  5
AB
100
AcDbEntity
  8
0
 62
256
370
-1
 48
1.0
  6
BYLAYER
100
AcDbLine
 10
70.0
 20
19.0
 30
0.0
 11
70.0
 21
0.0
 31
0.0
  0
LINE
  5
AC
100
AcDbEntity
  8
0
 62
256
370
-1
 48
1.0
  6
BYLAYER
100
AcDbLine
 10
70.0
 20
0.0
 30
0.0
 11
36.0
 21
-0.0
 31
0.0
  0
INSERT
  5
AD
100
AcDbEntity
  8
0
 62
256
370
-1
 48
1.0
  6
BYLAYER
100
AcDbBlockReference
  2
block_1
 10
40.4763431336238355
 20
2.9631052058274729
 30
0.0
  0
INSERT
  5
AE
100
AcDbEntity
  8
0
 62
256
370
-1
 48
1.0
  6
BYLAYER
100
AcDbBlockReference
  2
block_2
 10
44.4485296230933926
 20
3.627034994217162
 30
0.0
  0
INSERT
  5
AF
100
AcDbEntity
  8
0
 62
256
370
-1
 48
1.0
  6
BYLAYER
100
AcDbBlockReference
  2
block_2
 10
44.9532345696241649
 20
3.6718976561310086
 30
0.0
  0
INSERT
  5
B0
100
AcDbEntity
  8
0
 62
256
370
-1
 48
1.0
  6
BYLAYER
100
AcDbBlockReference
  2
block_2
 10
45.1214695518010842
 20
3.9074266311787014
 30
0.0
  0
INSERT
  5
B1
100
AcDbEntity
  8
0
 62
256
370
-1
 48
1.0
  6
BYLAYER
100
AcDbBlockReference
  2
block_2
 10
45.042959893451858
 20
4.154171271704854
 30
0.0
  0
INSERT
  5
B2
100
AcDbEntity
  8
0
 62
256
370
-1
 48
1.0
  6
BYLAYER
100
AcDbBlockReference
  2
block_2
 10
45.042959893451858
 20
4.154171271704854
 30
0.0
  0
INSERT
  5
B3
100
AcDbEntity
  8
0
 62
256
370
-1
 48
1.0
  6
BYLAYER
100
AcDbBlockReference
  2
block_2
 10
44.7177055945764721
 20
4.0083676204848544
 30
0.0
  0
INSERT
  5
B4
100
AcDbEntity
  8
0
 62
256
370
-1
 48
1.0
  6
BYLAYER
100
AcDbBlockReference
  2
block_2
 10
44.9763431336238355
 20
2.4631052058274747
 30
0.0
  0
INSERT
  5
B5
100
AcDbEntity
  8
0
 62
256
370
-1
 48
1.0
  6
BYLAYER
100
AcDbBlockReference
  2
block_2
 10
44.9763431336238355
 20
3.4631052058274747
 30
0.0
  0
INSERT
  5
B6
100
AcDbEntity
  8
0
 62
256
370
-1
 48
1.0
  6
BYLAYER
100
AcDbBlockReference
  2
block_2
 10
45.2784888684995508
 20
3.3354276917771628
 30
0.0
  0
INSERT
  5
B7
100
AcDbEntity
  8
0
 62
256
370
-1
 48
1.0
  6
BYLAYER
100
AcDbBlockReference
  2
block_2
 10
45.2672732030210838
 20
3.8401326383079315
 30
0.0
  0
INSERT
  5
B8
100
AcDbEntity
  8
0
 62
256
370
-1
 48
1.0
  6
BYLAYER
100
AcDbBlockReference
  2
block_2
 10
45.1214695518010842
 20
3.9074266311787014
 30
0.0
  0
INSERT
  5
B9
100
AcDbEntity
  8
0
 62
256
370
-1
 48
1.0
  6
BYLAYER
100
AcDbBlockReference
  2
DB25 Connector
 10
12.999159517561985
 20
2.0029025915143341
 30
0.0
  0
INSERT
  5
BA
100
AcDbEntity
  8
0
 62
256
370
-1
 48
1.0
  6
BYLAYER
100
AcDbBlockReference
  2
DB25 Connector
 10
15.9991595175619832
 20
2.0029025915143341
 30
0.0
  0
INSERT
  5
BB
100
AcDbEntity
  8
0
 62
256
370
-1
 48
1.0
  6
BYLAYER
100
AcDbBlockReference
  2
DB25 Connector
 10
25.00544251279306
 20
1.9981739495324251
 30
0.0
  0
INSERT
  5
BC
100
AcDbEntity
  8
0
 62
256
370
-1
 48
1.0
  6
BYLAYER
100
AcDbBlockReference
  2
DB25 Connector
 10
18.9983190351239699
 20
2.0058051830286683
 30
0.0
  0
INSERT
  5
BD
100
AcDbEntity
  8
0
 62
256
370
-1
 48
1.0
  6
BYLAYER
100
AcDbBlockReference
  2
DB25 Connector
 10
28.0046020303550449
 20
2.0010765410467597
 30
0.0
  0
INSERT
  5
BE
100
AcDbEntity
  8
0
 62
256
370
-1
 48
1.0
  6
BYLAYER
100
AcDbBlockReference
  2
DB25 Connector
 10
22.00544251279306
 20
1.9981739495324253
 30
0.0
  0
INSERT
  5
BF
100
AcDbEntity
  8
0
 62
256
370
-1
 48
1.0
  6
BYLAYER
100
AcDbBlockReference
  2
XLR Connector
 10
32.0999999999999943
 20
2.5
 30
0.0
  0
INSERT
  5
C0
100
AcDbEntity
  8
0
 62
256
370
-1
 48
1.0
  6
BYLAYER
100
AcDbBlockReference
  2
XLR Connector
 10
34.0424187384465711
 20
2.4526862672476533
 30
0.0
  0
INSERT
  5
C1
100
AcDbEntity
  8
0
 62
256
370
-1
 48
1.0
  6
BYLAYER
100
AcDbBlockReference
  2
XLR Connector
 10
38.0
 20
10.0
 30
0.0
 50
90.0
  0
INSERT
  5
C2
100
AcDbEntity
  8
0
 62
256
370
-1
 48
1.0
  6
BYLAYER
100
AcDbBlockReference
  2
XLR Connector
 10
40.0
 20
10.0
 30
0.0
 50
90.0
  0
INSERT
  5
C3
100
AcDbEntity
  8
0
 62
256
370
-1
 48
1.0
  6
BYLAYER
100
AcDbBlockReference
  2
XLR Connector
 10
42.0
 20
10.0
 30
0.0
 50
90.0
  0
INSERT
  5
C4
100
AcDbEntity
  8
0
 62
256
370
-1
 48
1.0
  6
BYLAYER
100
AcDbBlockReference
  2
XLR Connector
 10
44.0
 20
10.0
 30
0.0
 50
90.0
  0
INSERT
  5
C5
100
AcDbEntity
  8
0
 62
256
370
-1
 48
1.0
  6
BYLAYER
100
AcDbBlockReference
  2
XLR Connector
 10
46.0
 20
10.0
 30
0.0
 50
90.0
  0
INSERT
  5
C6
100
AcDbEntity
  8
0
 62
256
370
-1
 48
1.0
  6
BYLAYER
100
AcDbBlockReference
  2
XLR Connector
 10
48.0
 20
10.0
 30
0.0
 50
90.0
  0
INSERT
  5
C7
100
AcDbEntity
  8
0
 62
256
370
-1
 48
1.0
  6
BYLAYER
100
AcDbBlockReference
  2
XLR Connector
 10
50.0
 20
10.0
 30
0.0
 50
90.0
  0
INSERT
  5
C8
100
AcDbEntity
  8
0
 62
256
370
-1
 48
1.0
  6
BYLAYER
100
AcDbBlockReference
  2
XLR Connector
 10
52.0
 20
10.0
 30
0.0
 50
90.0
  0
INSERT
  5
C9
100
AcDbEntity
  8
0
 62
256
370
-1
 48
1.0
  6
BYLAYER
100
AcDbBlockReference
  2
XLR Connector
 10
54.0
 20
10.0
 30
0.0
 50
90.0
  0
INSERT
  5
CA
100
AcDbEntity
  8
0
 62
256
370
-1
 48
1.0
  6
BYLAYER
100
AcDbBlockReference
  2
XLR Connector
 10
56.0
 20
10.0
 30
0.0
 50
90.0
  0
INSERT
  5
CB
100
AcDbEntity
  8
0
 62
256
370
-1
 48
1.0
  6
BYLAYER
100
AcDbBlockReference
  2
XLR Connector
 10
38.0
 20
5.0
 30
0.0
 50
90.0
  0
INSERT
  5
CC
100
AcDbEntity
  8
0
 62
256
370
-1
 48
1.0
  6
BYLAYER
100
AcDbBlockReference
  2
XLR Connector
 10
40.0
 20
5.0
 30
0.0
 50
90.0
  0
INSERT
  5
CD
100
AcDbEntity
  8
0
 62
256
370
-1
 48
1.0
  6
BYLAYER
100
AcDbBlockReference
  2
XLR Connector
 10
42.0
 20
5.0
 30
0.0
 50
90.0
  0
INSERT
  5
CE
100
AcDbEntity
  8
0
 62
256
370
-1
 48
1.0
  6
BYLAYER
100
AcDbBlockReference
  2
XLR Connector
 10
44.0
 20
5.0
 30
0.0
 50
90.0
  0
INSERT
  5
CF
100
AcDbEntity
  8
0
 62
256
370
-1
 48
1.0
  6
BYLAYER
100
AcDbBlockReference
  2
XLR Connector
 10
46.0
 20
5.0
 30
0.0
 50
90.0
  0
INSERT
  5
D0
100
AcDbEntity
  8
0
 62
256
370
-1
 48
1.0
  6
BYLAYER
100
AcDbBlockReference
  2
XLR Connector
 10
48.0
 20
5.0
 30
0.0
 50
90.0
  0
INSERT
  5
D1
100
AcDbEntity
  8
0
 62
256
370
-1
 48
1.0
  6
BYLAYER
100
AcDbBlockReference
  2
XLR Connector
 10
50.0
 20
5.0
 30
0.0
 50
90.0
  0
INSERT
  5
D2
100
AcDbEntity
  8
0
 62
256
370
-1
 48
1.0
  6
BYLAYER
100
AcDbBlockReference
  2
XLR Connector
 10
52.0
 20
5.0
 30
0.0
 50
90.0
  0
INSERT
  5
D3
100
AcDbEntity
  8
0
 62
256
370
-1
 48
1.0
  6
BYLAYER
100
AcDbBlockReference
  2
XLR Connector
 10
54.0
 20
5.0
 30
0.0
 50
90.0
  0
INSERT
  5
D4
100
AcDbEntity
  8
0
 62
256
370
-1
 48
1.0
  6
BYLAYER
100
AcDbBlockReference
  2
XLR Connector
 10
56.0
 20
5.0
 30
0.0
 50
90.0
  0
INSERT
  5
D5
100
AcDbEntity
  8
0
 62
256
370
-1
 48
1.0
  6
BYLAYER
100
AcDbBlockReference
  2
XLR Connector
 10
12.0368947941725253
 20
17.4763431336238284
 30
0.0
  0
INSERT
  5
D6
100
AcDbEntity
  8
0
 62
256
370
-1
 48
1.0
  6
BYLAYER
100
AcDbBlockReference
  2
XLR Connector
 10
7.5368947941725244
 20
17.4763431336238284
 30
0.0
  0
INSERT
  5
D7
100
AcDbEntity
  8
0
 62
256
370
-1
 48
1.0
  6
BYLAYER
100
AcDbBlockReference
  2
XLR Connector
 10
37.9526862672476639
 20
8.0575812615534232
 30
0.0
 50
90.0
  0
INSERT
  5
D8
100
AcDbEntity
  8
0
 62
256
370
-1
 48
1.0
  6
BYLAYER
100
AcDbBlockReference
  2
XLR Connector
 10
3.4763431336238351
 20
12.0944760557259468
 30
0.0
 50
90.0
  0
INSERT
  5
D9
100
AcDbEntity
  8
0
 62
256
370
-1
 48
1.0
  6
BYLAYER
100
AcDbBlockReference
  2
XLR Connector
 10
39.9526862672476639
 20
8.0575812615534232
 30
0.0
 50
90.0
  0
INSERT
  5
DA
100
AcDbEntity
  8
0
 62
256
370
-1
 48
1.0
  6
BYLAYER
100
AcDbBlockReference
  2
XLR Connector
 10
41.9526862672476639
 20
8.0575812615534232
 30
0.0
 50
90.0
  0
INSERT
  5
DB
100
AcDbEntity
  8
0
 62
256
370
-1
 48
1.0
  6
BYLAYER
100
AcDbBlockReference
  2
XLR Connector
 10
43.9526862672476639
 20
8.0575812615534232
 30
0.0
 50
90.0
  0
INSERT
  5
DC
100
AcDbEntity
  8
0
 62
256
370
-1
 48
1.0
  6
BYLAYER
100
AcDbBlockReference
  2
XLR Connector
 10
45.9526862672476639
 20
8.0575812615534232
 30
0.0
 50
90.0
  0
INSERT
  5
DD
100
AcDbEntity
  8
0
 62
256
370
-1
 48
1.0
  6
BYLAYER
100
AcDbBlockReference
  2
XLR Connector
 10
47.9526862672476639
 20
8.0575812615534232
 30
0.0
 50
90.0
  0
INSERT
  5
DE
100
AcDbEntity
  8
0
 62
256
370
-1
 48
1.0
  6
BYLAYER
100
AcDbBlockReference
  2
XLR Connector
 10
49.9526862672476639
 20
8.0575812615534232
 30
0.0
 50
90.0
  0
INSERT
  5
DF
100
AcDbEntity
  8
0
 62
256
370
-1
 48
1.0
  6
BYLAYER
100
AcDbBlockReference
  2
XLR Connector
 10
51.9526862672476639
 20
8.0575812615534232
 30
0.0
 50
90.0
  0
INSERT
  5
E0
100
AcDbEntity
  8
0
 62
256
370
-1
 48
1.0
  6
BYLAYER
100
AcDbBlockReference
  2
XLR Connector
 10
53.9526862672476639
 20
8.0575812615534232
 30
0.0
 50
90.0
  0
INSERT
  5
E1
100
AcDbEntity
  8
0
 62
256
370
-1
 48
1.0
  6
BYLAYER
100
AcDbBlockReference
  2
XLR Connector
 10
55.9526862672476639
 20
8.0575812615534232
 30
0.0
 50
90.0
  0
INSERT
  5
E2
100
AcDbEntity
  8
0
 62
256
370
-1
 48
1.0
  6
BYLAYER
100
AcDbBlockReference
  2
XLR Connector
 10
37.9526862672476639
 20
3.0575812615534232
 30
0.0
 50
90.0
  0
INSERT
  5
E3
100
AcDbEntity
  8
0
 62
256
370
-1
 48
1.0
  6
BYLAYER
100
AcDbBlockReference
  2
XLR Connector
 10
39.9526862672476639
 20
3.0575812615534232
 30
0.0
 50
90.0
  0
INSERT
  5
E4
100
AcDbEntity
  8
0
 62
256
370
-1
 48
1.0
  6
BYLAYER
100
AcDbBlockReference
  2
XLR Connector
 10
41.9526862672476639
 20
3.0575812615534232
 30
0.0
 50
90.0
  0
INSERT
  5
E5
100
AcDbEntity
  8
0
 62
256
370
-1
 48
1.0
  6
BYLAYER
100
AcDbBlockReference
  2
XLR Connector
 10
43.9526862672476639
 20
3.0575812615534232
 30
0.0
 50
90.0
  0
INSERT
  5
E6
100
AcDbEntity
  8
0
 62
256
370
-1
 48
1.0
  6
BYLAYER
100
AcDbBlockReference
  2
XLR Connector
 10
45.9526862672476639
 20
3.0575812615534232
 30
0.0
 50
90.0
  0
INSERT
  5
E7
100
AcDbEntity
  8
0
 62
256
370
-1
 48
1.0
  6
BYLAYER
100
AcDbBlockReference
  2
XLR Connector
 10
47.9526862672476639
 20
3.0575812615534232
 30
0.0
 50
90.0
  0
INSERT
  5
E8
100
AcDbEntity
  8
0
 62
256
370
-1
 48
1.0
  6
BYLAYER
100
AcDbBlockReference
  2
XLR Connector
 10
49.9526862672476639
 20
3.0575812615534232
 30
0.0
 50
90.0
  0
INSERT
  5
E9
100
AcDbEntity
  8
0
 62
256
370
-1
 48
1.0
  6
BYLAYER
100
AcDbBlockReference
  2
XLR Connector
 10
51.9526862672476639
 20
3.0575812615534232
 30
0.0
 50
90.0
  0
INSERT
  5
EA
100
AcDbEntity
  8
0
 62
256
370
-1
 48
1.0
  6
BYLAYER
100
AcDbBlockReference
  2
XLR Connector
 10
53.9526862672476639
 20
3.0575812615534232
 30
0.0
 50
90.0
  0
INSERT
  5
EB
100
AcDbEntity
  8
0
 62
256
370
-1
 48
1.0
  6
BYLAYER
100
AcDbBlockReference
  2
XLR Connector
 10
55.9526862672476639
 20
3.0575812615534232
 30
0.0
 50
90.0
  0
LINE
  5
EC
100
AcDbEntity
  8
0
 62
256
370
-1
 48
1.0
  6
BYLAYER
100
AcDbLine
 10
10.0
 20
3.0
 30
0.0
 11
10.0
 21
1.0
 31
0.0
  0
LINE
  5
ED
100
AcDbEntity
  8
0
 62
256
370
-1
 48
1.0
  6
BYLAYER
100
AcDbLine
 10
10.0
 20
1.0
 30
0.0
 11
29.0
 21
1.0
 31
0.0
  0
LINE
  5
EE
100
AcDbEntity
  8
0
 62
256
370
-1
 48
1.0
  6
BYLAYER
100
AcDbLine
 10
29.0
 20
1.0
 30
0.0
 11
29.0
 21
4.0
 31
0.0
  0
LINE
  5
EF
100
AcDbEntity
  8
0
 62
256
370
-1
 48
1.0
  6
BYLAYER
100
AcDbLine
 10
29.0
 20
4.0
 30
0.0
 11
10.0
 21
4.0
 31
0.0
  0
LINE
  5
F0
100
AcDbEntity
  8
0
 62
256
370
-1
 48
1.0
  6
BYLAYER
100
AcDbLine
 10
10.0
 20
4.0
 30
0.0
 11
10.0
 21
3.0
 31
0.0
  0
LINE
  5
F1
100
AcDbEntity
  8
0
 62
256
370
-1
 48
1.0
  6
BYLAYER
100
AcDbLine
 10
30.0
 20
4.0
 30
0.0
 11
30.0
 21
1.0
 31
0.0
  0
LINE
  5
F2
100
AcDbEntity
  8
0
 62
256
370
-1
 48
1.0
  6
BYLAYER
100
AcDbLine
 10
30.0
 20
1.0
 30
0.0
 11
35.0
 21
1.0
 31
0.0
  0
LINE
  5
F3
100
AcDbEntity
  8
0
 62
256
370
-1
 48
1.0
  6
BYLAYER
100
AcDbLine
 10
35.0
 20
1.0
 30
0.0
 11
35.0
 21
4.0
 31
0.0
  0
LINE
  5
F4
100
AcDbEntity
  8
0
 62
256
370
-1
 48
1.0
  6
BYLAYER
100
AcDbLine
 10
35.0
 20
4.0
 30
0.0
 11
30.0
 21
4.0
 31
0.0
  0
LINE
  5
F5
100
AcDbEntity
  8
0
 62
256
370
-1
 48
1.0
  6
BYLAYER
100
AcDbLine
 10
37.0
 20
11.0
 30
0.0
 11
37.0
 21
1.0
 31
0.0
  0
LINE
  5
F6
100
AcDbEntity
  8
0
 62
256
370
-1
 48
1.0
  6
BYLAYER
100
AcDbLine
 10
37.0
 20
1.0
 30
0.0
 11
57.0
 21
1.0
 31
0.0
  0
LINE
  5
F7
100
AcDbEntity
  8
0
 62
256
370
-1
 48
1.0
  6
BYLAYER
100
AcDbLine
 10
57.0
 20
1.0
 30
0.0
 11
57.0
 21
11.0
 31
0.0
  0
LINE
  5
F8
100
AcDbEntity
  8
0
 62
256
370
-1
 48
1.0
  6
BYLAYER
100
AcDbLine
 10
57.0
 20
11.0
 30
0.0
 11
37.0
 21
11.0
 31
0.0
  0
INSERT
  5
F9
100
AcDbEntity
  8
0
 62
256
370
-1
 48
1.0
  6
BYLAYER
100
AcDbBlockReference
  2
XLR Connector
 10
10.0944760557259485
 20
17.5236568663761716
 30
0.0
  0
INSERT
  5
FA
100
AcDbEntity
  8
0
 62
256
370
-1
 48
1.0
  6
BYLAYER
100
AcDbBlockReference
  2
XLR Connector
 10
5.5944760557259476
 20
17.5236568663761716
 30
0.0
  0
CIRCLE
  5
FB
100
AcDbEntity
  8
0
 62
256
370
-1
 48
1.0
  6
BYLAYER
100
AcDbCircle
 10
8.0999999999999996
 20
17.7999999999999972
 30
0.0
 40
0.1414213562373093
  0
CIRCLE
  5
FC
100
AcDbEntity
  8
0
 62
256
370
-1
 48
1.0
  6
BYLAYER
100
AcDbCircle
 10
8.0999999999999996
 20
17.25
 30
0.0
 40
0.1500000000000004
  0
LINE
  5
FD
100
AcDbEntity
  8
0
 62
256
370
-1
 48
1.0
  6
BYLAYER
100
AcDbLine
 10
3.3300000000000001
 20
18.1000000000000014
 30
0.0
 11
3.3300000000000001
 21
17.8000000000000007
 31
0.0
  0
LINE
  5
FE
100
AcDbEntity
  8
0
 62
256
370
-1
 48
1.0
  6
BYLAYER
100
AcDbLine
 10
3.7050000000000001
 20
18.1000000000000014
 30
0.0
 11
3.7050000000000001
 21
17.8000000000000007
 31
0.0
  0
LINE
  5
FF
100
AcDbEntity
  8
0
 62
256
370
-1
 48
1.0
  6
BYLAYER
100
AcDbLine
 10
3.5999999999999996
 20
17.7999999999999972
 30
0.0
 11
3.5999999999999996
 21
18.0999999999999979
 31
0.0
  0
LINE
  5
100
100
AcDbEntity
  8
0
 62
256
370
-1
 48
1.0
  6
BYLAYER
100
AcDbLine
 10
3.9749999999999996
 20
17.7999999999999972
 30
0.0
 11
3.9749999999999996
 21
18.0999999999999979
 31
0.0
  0
LINE
  5
101
100
AcDbEntity
  8
0
 62
256
370
-1
 48
1.0
  6
BYLAYER
100
AcDbLine
 10
3.3500000000000001
 20
18.0599999999999987
 30
0.0
 11
3.3700000000000001
 21
17.8399999999999999
 31
0.0
  0
LINE
  5
102
100
AcDbEntity
  8
0
 62
256
370
-1
 48
1.0
  6
BYLAYER
100
AcDbLine
 10
3.7250000000000001
 20
18.0599999999999987
 30
0.0
 11
3.7450000000000001
 21
17.8399999999999999
 31
0.0
  0
LINE
  5
103
100
AcDbEntity
  8
0
 62
256
370
-1
 48
1.0
  6
BYLAYER
100
AcDbLine
 10
3.3700000000000001
 20
17.8399999999999999
 30
0.0
 11
3.5500000000000003
 21
17.8399999999999999
 31
0.0
  0
LINE
  5
104
100
AcDbEntity
  8
0
 62
256
370
-1
 48
1.0
  6
BYLAYER
100
AcDbLine
 10
3.7450000000000001
 20
17.8399999999999999
 30
0.0
 11
3.9250000000000003
 21
17.8399999999999999
 31
0.0
  0
LINE
  5
105
100
AcDbEntity
  8
0
 62
256
370
-1
 48
1.0
  6
BYLAYER
100
AcDbLine
 10
3.5500000000000003
 20
17.8399999999999999
 30
0.0
 11
3.5800000000000001
 21
18.0599999999999987
 31
0.0
  0
LINE
  5
106
100
AcDbEntity
  8
0
 62
256
370
-1
 48
1.0
  6
BYLAYER
100
AcDbLine
 10
3.9250000000000003
 20
17.8399999999999999
 30
0.0
 11
3.9550000000000001
 21
18.0599999999999987
 31
0.0
  0
LINE
  5
107
100
AcDbEntity
  8
0
 62
256
370
-1
 48
1.0
  6
BYLAYER
100
AcDbLine
 10
3.5800000000000001
 20
18.0599999999999987
 30
0.0
 11
3.3500000000000001
 21
18.0599999999999987
 31
0.0
  0
LINE
  5
108
100
AcDbEntity
  8
0
 62
256
370
-1
 48
1.0
  6
BYLAYER
100
AcDbLine
 10
3.9550000000000001
 20
18.0599999999999987
 30
0.0
 11
3.7250000000000001
 21
18.0599999999999987
 31
0.0
  0
LINE
  5
109
100
AcDbEntity
  8
0
 62
256
370
-1
 48
1.0
  6
BYLAYER
100
AcDbLine
 10
3.4649999999999999
 20
18.0599999999999987
 30
0.0
 11
3.4649999999999999
 21
17.8399999999999999
 31
0.0
  0
LINE
  5
10A
100
AcDbEntity
  8
0
 62
256
370
-1
 48
1.0
  6
BYLAYER
100
AcDbLine
 10
3.8399999999999999
 20
18.0599999999999987
 30
0.0
 11
3.8399999999999999
 21
17.8399999999999999
 31
0.0
  0
LINE
  5
10B
100
AcDbEntity
  8
0
 62
256
370
-1
 48
1.0
  6
BYLAYER
100
AcDbLine
 10
3.3300000000000001
 20
18.1000000000000014
 30
0.0
 11
3.5999999999999996
 21
18.0999999999999979
 31
0.0
  0
LINE
  5
10C
100
AcDbEntity
  8
0
 62
256
370
-1
 48
1.0
  6
BYLAYER
100
AcDbLine
 10
3.7050000000000001
 20
18.1000000000000014
 30
0.0
 11
3.9749999999999996
 21
18.0999999999999979
 31
0.0
  0
LINE
  5
10D
100
AcDbEntity
  8
0
 62
256
370
-1
 48
1.0
  6
BYLAYER
100
AcDbLine
 10
3.3300000000000001
 20
17.8000000000000007
 30
0.0
 11
3.5999999999999996
 21
17.7999999999999972
 31
0.0
  0
LINE
  5
10E
100
AcDbEntity
  8
0
 62
256
370
-1
 48
1.0
  6
BYLAYER
100
AcDbLine
 10
3.7050000000000001
 20
17.8000000000000007
 30
0.0
 11
3.9749999999999996
 21
17.7999999999999972
 31
0.0
  0
LINE
  5
10F
100
AcDbEntity
  8
0
 62
256
370
-1
 48
1.0
  6
BYLAYER
100
AcDbLine
 10
2.9999999999999996
 20
18.2999999999999972
 30
0.0
 11
2.9999999999999996
 21
16.7999999999999972
 31
0.0
  0
LINE
  5
110
100
AcDbEntity
  8
0
 62
256
370
-1
 48
1.0
  6
BYLAYER
100
AcDbLine
 10
2.9999999999999996
 20
16.7999999999999972
 30
0.0
 11
12.3999999999999986
 21
16.7999999999999972
 31
0.0
  0
LINE
  5
111
100
AcDbEntity
  8
0
 62
256
370
-1
 48
1.0
  6
BYLAYER
100
AcDbLine
 10
12.3999999999999986
 20
16.7999999999999972
 30
0.0
 11
12.3999999999999986
 21
18.1999999999999993
 31
0.0
  0
LINE
  5
112
100
AcDbEntity
  8
0
 62
256
370
-1
 48
1.0
  6
BYLAYER
100
AcDbLine
 10
12.3999999999999986
 20
18.1999999999999993
 30
0.0
 11
12.3999999999999986
 21
18.2999999999999972
 31
0.0
  0
LINE
  5
113
100
AcDbEntity
  8
0
 62
256
370
-1
 48
1.0
  6
BYLAYER
100
AcDbLine
 10
12.3999999999999986
 20
18.2999999999999972
 30
0.0
 11
2.9999999999999996
 21
18.2999999999999972
 31
0.0
  0
MTEXT
  5
114
100
AcDbEntity
  8
0
 62
256
370
-1
 48
1.0
  6
BYLAYER
100
AcDbMText
 10
46.7371006850350881
 20
10.5852279383454437
 30
0.0
 40
1.0
 41
0.0
 71
1
 72
1
  1
\C7;\H0.25;SEND
  7
textstyle3
 50
0.0
 73
2
 44
1.0
  0
MTEXT
  5
115
100
AcDbEntity
  8
0
 62
256
370
-1
 48
1.0
  6
BYLAYER
100
AcDbMText
 10
46.5621934570061882
 20
5.8379271926231322
 30
0.0
 40
1.0
 41
0.0
 71
1
 72
1
  1
\C7;\H0.25;RETURN
  7
textstyle4
 50
0.0
 73
2
 44
1.0
  0
MTEXT
  5
116
100
AcDbEntity
  8
0
 62
256
370
-1
 48
1.0
  6
BYLAYER
100
AcDbMText
 10
18.1778881543847213
 20
3.5239139928401784
 30
0.0
 40
1.0
 41
0.0
 71
1
 72
1
  1
\C7;\H0.25;CHANNEL INPUTS
  7
textstyle5
 50
0.0
 73
2
 44
1.0
  0
MTEXT
  5
117
100
AcDbEntity
  8
0
 62
256
370
-1
 48
1.0
  6
BYLAYER
100
AcDbMText
 10
31.1471624232050743
 20
3.6762610213627767
 30
0.0
 40
1.0
 41
0.0
 71
1
 72
1
  1
\C7;\H0.25;LEFT
  7
textstyle6
 50
0.0
 73
2
 44
1.0
  0
MTEXT
  5
118
100
AcDbEntity
  8
0
 62
256
370
-1
 48
1.0
  6
BYLAYER
100
AcDbMText
 10
33.0032295597377612
 20
3.712301159936227
 30
0.0
 40
1.0
 41
0.0
 71
1
 72
1
  1
\C7;\H0.25;RIGHT
  7
textstyle7
 50
0.0
 73
2
 44
1.0
  0
MTEXT
  5
119
100
AcDbEntity
  8
0
 62
256
370
-1
 48
1.0
  6
BYLAYER
100
AcDbMText
 10
31.2713006782914036
 20
1.5924402313450949
 30
0.0
 40
1.0
 41
0.0
 71
1
 72
1
  1
\C7;\H0.25;MAIN OUTPUTS
  7
textstyle8
 50
0.0
 73
2
 44
1.0
  0
INSERT
  5
11A
100
AcDbEntity
  8
0
 62
256
370
-1
 48
1.0
  6
BYLAYER
100
AcDbBlockReference
  2
XLR Connector
 10
3.5236568663761711
 20
14.0368947941725235
 30
0.0
 50
90.0
  0
INSERT
  5
11B
100
AcDbEntity
  8
0
 62
256
370
-1
 48
1.0
  6
BYLAYER
100
AcDbBlockReference
  2
XLR Connector
 10
11.5236568663761663
 20
14.0368947941725235
 30
0.0
 50
90.0
  0
INSERT
  5
11C
100
AcDbEntity
  8
0
 62
256
370
-1
 48
1.0
  6
BYLAYER
100
AcDbBlockReference
  2
XLR Connector
 10
13.5236568663761663
 20
14.0368947941725235
 30
0.0
 50
90.0
  0
INSERT
  5
11D
100
AcDbEntity
  8
0
 62
256
370
-1
 48
1.0
  6
BYLAYER
100
AcDbBlockReference
  2
XLR Connector
 10
15.5236568663761663
 20
14.0368947941725235
 30
0.0
 50
90.0
  0
INSERT
  5
11E
100
AcDbEntity
  8
0
 62
256
370
-1
 48
1.0
  6
BYLAYER
100
AcDbBlockReference
  2
XLR Connector
 10
17.523656866376168
 20
14.0368947941725235
 30
0.0
 50
90.0
  0
INSERT
  5
11F
100
AcDbEntity
  8
0
 62
256
370
-1
 48
1.0
  6
BYLAYER
100
AcDbBlockReference
  2
XLR Connector
 10
19.4236568663761666
 20
14.0368947941725235
 30
0.0
 50
90.0
  0
INSERT
  5
120
100
AcDbEntity
  8
0
 62
256
370
-1
 48
1.0
  6
BYLAYER
100
AcDbBlockReference
  2
XLR Connector
 10
23.4736568663761673
 20
14.0368947941725235
 30
0.0
 50
90.0
  0
INSERT
  5
121
100
AcDbEntity
  8
0
 62
256
370
-1
 48
1.0
  6
BYLAYER
100
AcDbBlockReference
  2
XLR Connector
 10
25.4736568663761673
 20
14.0368947941725235
 30
0.0
 50
90.0
  0
INSERT
  5
122
100
AcDbEntity
  8
0
 62
256
370
-1
 48
1.0
  6
BYLAYER
100
AcDbBlockReference
  2
XLR Connector
 10
27.4736568663761673
 20
14.0368947941725235
 30
0.0
 50
90.0
  0
INSERT
  5
123
100
AcDbEntity
  8
0
 62
256
370
-1
 48
1.0
  6
BYLAYER
100
AcDbBlockReference
  2
XLR Connector
 10
29.3736568663761659
 20
14.0368947941725235
 30
0.0
 50
90.0
  0
INSERT
  5
124
100
AcDbEntity
  8
0
 62
256
370
-1
 48
1.0
  6
BYLAYER
100
AcDbBlockReference
  2
XLR Connector
 10
11.4763431336238302
 20
12.0944760557259468
 30
0.0
 50
90.0
  0
INSERT
  5
125
100
AcDbEntity
  8
0
 62
256
370
-1
 48
1.0
  6
BYLAYER
100
AcDbBlockReference
  2
XLR Connector
 10
21.4263431336238312
 20
12.0944760557259468
 30
0.0
 50
90.0
  0
INSERT
  5
126
100
AcDbEntity
  8
0
 62
256
370
-1
 48
1.0
  6
BYLAYER
100
AcDbBlockReference
  2
XLR Connector
 10
13.4763431336238302
 20
12.0944760557259468
 30
0.0
 50
90.0
  0
INSERT
  5
127
100
AcDbEntity
  8
0
 62
256
370
-1
 48
1.0
  6
BYLAYER
100
AcDbBlockReference
  2
XLR Connector
 10
23.4263431336238312
 20
12.0944760557259468
 30
0.0
 50
90.0
  0
INSERT
  5
128
100
AcDbEntity
  8
0
 62
256
370
-1
 48
1.0
  6
BYLAYER
100
AcDbBlockReference
  2
XLR Connector
 10
15.4763431336238302
 20
12.0944760557259468
 30
0.0
 50
90.0
  0
INSERT
  5
129
100
AcDbEntity
  8
0
 62
256
370
-1
 48
1.0
  6
BYLAYER
100
AcDbBlockReference
  2
XLR Connector
 10
25.4263431336238312
 20
12.0944760557259468
 30
0.0
 50
90.0
  0
INSERT
  5
12A
100
AcDbEntity
  8
0
 62
256
370
-1
 48
1.0
  6
BYLAYER
100
AcDbBlockReference
  2
XLR Connector
 10
17.476343133623832
 20
12.0944760557259468
 30
0.0
 50
90.0
  0
INSERT
  5
12B
100
AcDbEntity
  8
0
 62
256
370
-1
 48
1.0
  6
BYLAYER
100
AcDbBlockReference
  2
XLR Connector
 10
27.4263431336238312
 20
12.0944760557259468
 30
0.0
 50
90.0
  0
INSERT
  5
12C
100
AcDbEntity
  8
0
 62
256
370
-1
 48
1.0
  6
BYLAYER
100
AcDbBlockReference
  2
XLR Connector
 10
19.3763431336238305
 20
12.0944760557259468
 30
0.0
 50
90.0
  0
INSERT
  5
12D
100
AcDbEntity
  8
0
 62
256
370
-1
 48
1.0
  6
BYLAYER
100
AcDbBlockReference
  2
XLR Connector
 10
29.3263431336238298
 20
12.0944760557259468
 30
0.0
 50
90.0
  0
INSERT
  5
12E
100
AcDbEntity
  8
0
 62
256
370
-1
 48
1.0
  6
BYLAYER
100
AcDbBlockReference
  2
XLR Connector
 10
31.3763431336238305
 20
12.0944760557259468
 30
0.0
 50
90.0
  0
INSERT
  5
12F
100
AcDbEntity
  8
0
 62
256
370
-1
 48
1.0
  6
BYLAYER
100
AcDbBlockReference
  2
XLR Connector
 10
21.4736568663761673
 20
14.0368947941725235
 30
0.0
 50
90.0
  0
INSERT
  5
130
100
AcDbEntity
  8
0
 62
256
370
-1
 48
1.0
  6
BYLAYER
100
AcDbBlockReference
  2
XLR Connector
 10
31.4236568663761666
 20
14.0368947941725235
 30
0.0
 50
90.0
  0
CIRCLE
  5
131
100
AcDbEntity
  8
0
 62
256
370
-1
 48
1.0
  6
BYLAYER
100
AcDbCircle
 10
8.5
 20
2.5
 30
0.0
 40
0.5000000000000003
  0
LINE
  5
132
100
AcDbEntity
  8
0
 62
256
370
-1
 48
1.0
  6
BYLAYER
100
AcDbLine
 10
7.8999999999999995
 20
3.2999999999999998
 30
0.0
 11
7.8999999999999995
 21
1.5999999999999999
 31
0.0
  0
LINE
  5
133
100
AcDbEntity
  8
0
 62
256
370
-1
 48
1.0
  6
BYLAYER
100
AcDbLine
 10
7.8999999999999995
 20
1.5999999999999999
 30
0.0
 11
9.0999999999999996
 21
1.5999999999999999
 31
0.0
  0
LINE
  5
134
100
AcDbEntity
  8
0
 62
256
370
-1
 48
1.0
  6
BYLAYER
100
AcDbLine
 10
9.0999999999999996
 20
1.5999999999999999
 30
0.0
 11
9.0999999999999996
 21
3.2999999999999998
 31
0.0
  0
LINE
  5
135
100
AcDbEntity
  8
0
 62
256
370
-1
 48
1.0
  6
BYLAYER
100
AcDbLine
 10
9.0999999999999996
 20
3.2999999999999998
 30
0.0
 11
7.8999999999999995
 21
3.2999999999999998
 31
0.0
  0
MTEXT
  5
136
100
AcDbEntity
  8
0
 62
256
370
-1
 48
1.0
  6
BYLAYER
100
AcDbMText
 10
7.3999999999999995
 20
0.9999999999999999
 30
0.0
 40
1.0
 41
0.0
 71
1
 72
1
  1
\C7;\H0.25;OCCILATOR OUT
  7
textstyle2
 50
90.0
 73
2
 44
1.0
  0
POINT
  5
137
100
AcDbEntity
  8
0
 62
256
370
-1
 48
1.0
  6
BYLAYER
100
AcDbPoint
 10
8.5
 20
2.5
 30
0.0
  0
LINE
  5
138
100
AcDbEntity
  8
0
 62
256
370
-1
 48
1.0
  6
BYLAYER
100
AcDbLine
 10
2.7999999999999998
 20
10.6999999999999993
 30
0.0
 11
4.6999999999999993
 21
10.6999999999999993
 31
0.0
  0
LINE
  5
139
100
AcDbEntity
  8
0
 62
256
370
-1
 48
1.0
  6
BYLAYER
100
AcDbLine
 10
4.6999999999999993
 20
10.6999999999999993
 30
0.0
 11
4.6999999999999993
 21
14.2999999999999989
 31
0.0
  0
LINE
  5
13A
100
AcDbEntity
  8
0
 62
256
370
-1
 48
1.0
  6
BYLAYER
100
AcDbLine
 10
4.6999999999999993
 20
14.2999999999999989
 30
0.0
 11
2.7999999999999998
 21
14.2999999999999989
 31
0.0
  0
MTEXT
  5
13B
100
AcDbEntity
  8
0
 62
256
370
-1
 48
1.0
  6
BYLAYER
100
AcDbMText
 10
4.1999999999999993
 20
11.1999999999999993
 30
0.0
 40
1.0
 41
0.0
 71
1
 72
1
  1
\C7;\H0.25;CONVERTER IN
  7
textstyle0
 50
90.0
 73
2
 44
1.0
  0
LINE
  5
13C
100
AcDbEntity
  8
0
 62
256
370
-1
 48
1.0
  6
BYLAYER
100
AcDbLine
 10
10.0
 20
15.0
 30
0.0
 11
10.0
 21
10.0
 31
0.0
  0
LINE
  5
13D
100
AcDbEntity
  8
0
 62
256
370
-1
 48
1.0
  6
BYLAYER
100
AcDbLine
 10
10.0
 20
10.0
 30
0.0
 11
33.0
 21
10.0
 31
0.0
  0
LINE
  5
13E
100
AcDbEntity
  8
0
 62
256
370
-1
 48
1.0
  6
BYLAYER
100
AcDbLine
 10
33.0
 20
10.0
 30
0.0
 11
33.0
 21
15.0
 31
0.0
  0
LINE
  5
13F
100
AcDbEntity
  8
0
 62
256
370
-1
 48
1.0
  6
BYLAYER
100
AcDbLine
 10
33.0
 20
15.0
 30
0.0
 11
10.0
 21
15.0
 31
0.0
  0
MTEXT
  5
140
100
AcDbEntity
  8
0
 62
256
370
-1
 48
1.0
  6
BYLAYER
100
AcDbMText
 10
19.9925942651485684
 20
14.6709420502075361
 30
0.0
 40
1.0
 41
0.0
 71
1
 72
1
  1
\C7;\H0.25;MONITOR OUT
  7
textstyle1
 50
0.0
 73
2
 44
1.0
  0
LINE
  5
141
100
AcDbEntity
  8
0
 62
256
370
-1
 48
1.0
  6
BYLAYER
100
AcDbLine
 10
59.0
 20
4.0
 30
0.0
 11
59.0
 21
1.0
 31
0.0
  0
LINE
  5
142
100
AcDbEntity
  8
0
 62
256
370
-1
 48
1.0
  6
BYLAYER
100
AcDbLine
 10
59.0
 20
1.0
 30
0.0
 11
66.0
 21
1.0
 31
0.0
  0
LINE
  5
143
100
AcDbEntity
  8
0
 62
256
370
-1
 48
1.0
  6
BYLAYER
100
AcDbLine
 10
59.0
 20
4.0
 30
0.0
 11
59.0
 21
6.0
 31
0.0
  0
LINE
  5
144
100
AcDbEntity
  8
0
 62
256
370
-1
 48
1.0
  6
BYLAYER
100
AcDbLine
 10
59.0
 20
6.0
 30
0.0
 11
66.0
 21
6.0
 31
0.0
  0
LINE
  5
145
100
AcDbEntity
  8
0
 62
256
370
-1
 48
1.0
  6
BYLAYER
100
AcDbLine
 10
66.0
 20
6.0
 30
0.0
 11
66.0
 21
1.0
 31
0.0
  0
LINE
  5
146
100
AcDbEntity
  8
0
 62
256
370
-1
 48
1.0
  6
BYLAYER
100
AcDbLine
 10
61.0
 20
5.0
 30
0.0
 11
61.0
 21
3.0
 31
0.0
  0
LINE
  5
147
100
AcDbEntity
  8
0
 62
256
370
-1
 48
1.0
  6
BYLAYER
100
AcDbLine
 10
61.0
 20
3.0
 30
0.0
 11
64.0
 21
3.0
 31
0.0
  0
LINE
  5
148
100
AcDbEntity
  8
0
 62
256
370
-1
 48
1.0
  6
BYLAYER
100
AcDbLine
 10
64.0
 20
3.0
 30
0.0
 11
64.0
 21
5.0
 31
0.0
  0
LINE
  5
149
100
AcDbEntity
  8
0
 62
256
370
-1
 48
1.0
  6
BYLAYER
100
AcDbLine
 10
64.0
 20
5.0
 30
0.0
 11
61.0
 21
5.0
 31
0.0
  0
POINT
  5
14A
100
AcDbEntity
  8
0
 62
256
370
-1
 48
1.0
  6
BYLAYER
100
AcDbPoint
 10
61.4999999999999929
 20
4.3999999999999995
 30
0.0
  0
POINT
  5
14B
100
AcDbEntity
  8
0
 62
256
370
-1
 48
1.0
  6
BYLAYER
100
AcDbPoint
 10
63.4999999999999929
 20
4.3999999999999995
 30
0.0
  0
POINT
  5
14C
100
AcDbEntity
  8
0
 62
256
370
-1
 48
1.0
  6
BYLAYER
100
AcDbPoint
 10
62.542429925170822
 20
3.6599213084956812
 30
0.0
  0
MTEXT
  5
14D
100
AcDbEntity
  8
0
 62
256
370
-1
 48
1.0
  6
BYLAYER
100
AcDbMText
 10
61.7681740289529415
 20
2.09054998329899
 30
0.0
 40
1.0
 41
0.0
 71
1
 72
1
  1
\C7;\H0.25;POWER IN
  7
textstyle16
 50
0.0
 73
2
 44
1.0
  0
LINE
  5
14E
100
AcDbEntity
  8
0
 62
256
370
-1
 48
1.0
  6
BYLAYER
100
AcDbLine
 10
2.7999999999999998
 20
14.2999999999999989
 30
0.0
 11
1.9999999999999998
 21
14.2999999999999989
 31
0.0
  0
LINE
  5
14F
100
AcDbEntity
  8
0
 62
256
370
-1
 48
1.0
  6
BYLAYER
100
AcDbLine
 10
1.9999999999999998
 20
14.2999999999999989
 30
0.0
 11
1.9999999999999998
 21
10.6999999999999993
 31
0.0
  0
LINE
  5
150
100
AcDbEntity
  8
0
 62
256
370
-1
 48
1.0
  6
BYLAYER
100
AcDbLine
 10
1.9999999999999998
 20
10.6999999999999993
 30
0.0
 11
2.7999999999999998
 21
10.6999999999999993
 31
0.0
  0
MTEXT
  5
151
100
AcDbEntity
  8
0
 62
256
370
-1
 48
1.0
  6
BYLAYER
100
AcDbMText
 10
2.3776914010655137
 20
11.1715557604067861
 30
0.0
 40
1.0
 41
0.0
 71
1
 72
1
  1
\C7;\H0.25;LEFT
  7
textstyle17
 50
90.0
 73
2
 44
1.0
  0
MTEXT
  5
152
100
AcDbEntity
  8
0
 62
256
370
-1
 48
1.0
  6
BYLAYER
100
AcDbMText
 10
2.3526635270561744
 20
12.8359093820279249
 30
0.0
 40
1.0
 41
0.0
 71
1
 72
1
  1
\C7;\H0.25;RIGHT
  7
textstyle15
 50
90.0
 73
2
 44
1.0
  0
LINE
  5
153
100
AcDbEntity
  8
0
 62
256
370
-1
 48
1.0
  6
BYLAYER
100
AcDbLine
 10
5.4999999999999991
 20
14.2999999999999989
 30
0.0
 11
5.4999999999999991
 21
10.6999999999999993
 31
0.0
  0
LINE
  5
154
100
AcDbEntity
  8
0
 62
256
370
-1
 48
1.0
  6
BYLAYER
100
AcDbLine
 10
5.4999999999999991
 20
10.6999999999999993
 30
0.0
 11
7.5999999999999996
 21
10.6999999999999993
 31
0.0
  0
LINE
  5
155
100
AcDbEntity
  8
0
 62
256
370
-1
 48
1.0
  6
BYLAYER
100
AcDbLine
 10
7.5999999999999996
 20
10.6999999999999993
 30
0.0
 11
7.5999999999999996
 21
14.2999999999999989
 31
0.0
  0
LINE
  5
156
100
AcDbEntity
  8
0
 62
256
370
-1
 48
1.0
  6
BYLAYER
100
AcDbLine
 10
7.5999999999999996
 20
14.2999999999999989
 30
0.0
 11
5.4999999999999991
 21
14.2999999999999989
 31
0.0
  0
LINE
  5
157
100
AcDbEntity
  8
0
 62
256
370
-1
 48
1.0
  6
BYLAYER
100
AcDbLine
 10
7.9999999999999991
 20
14.2999999999999989
 30
0.0
 11
7.9999999999999991
 21
10.6999999999999993
 31
0.0
  0
LINE
  5
158
100
AcDbEntity
  8
0
 62
256
370
-1
 48
1.0
  6
BYLAYER
100
AcDbLine
 10
7.9999999999999991
 20
10.6999999999999993
 30
0.0
 11
9.6999999999999993
 21
10.6999999999999993
 31
0.0
  0
LINE
  5
159
100
AcDbEntity
  8
0
 62
256
370
-1
 48
1.0
  6
BYLAYER
100
AcDbLine
 10
9.6999999999999993
 20
10.6999999999999993
 30
0.0
 11
9.6999999999999993
 21
14.2999999999999989
 31
0.0
  0
LINE
  5
15A
100
AcDbEntity
  8
0
 62
256
370
-1
 48
1.0
  6
BYLAYER
100
AcDbLine
 10
9.6999999999999993
 20
14.2999999999999989
 30
0.0
 11
7.9999999999999991
 21
14.2999999999999989
 31
0.0
  0
MTEXT
  5
15B
100
AcDbEntity
  8
0
 62
256
370
-1
 48
1.0
  6
BYLAYER
100
AcDbMText
 10
5.7616823999407139
 20
15.0245300419198564
 30
0.0
 40
1.0
 41
0.0
 71
1
 72
1
  1
\C7;\H0.5;ALT1
  7
textstyle13
 50
0.0
 73
2
 44
1.0
  0
MTEXT
  5
15C
100
AcDbEntity
  8
0
 62
256
370
-1
 48
1.0
  6
BYLAYER
100
AcDbMText
 10
8.0
 20
15.0
 30
0.0
 40
1.0
 41
0.0
 71
1
 72
1
  1
\C7;\H0.5;ALT2
  7
textstyle14
 50
0.0
 73
2
 44
1.0
  0
INSERT
  5
15D
100
AcDbEntity
  8
0
 62
256
370
-1
 48
1.0
  6
BYLAYER
100
AcDbBlockReference
  2
XLR Connector
 10
2.6504500274217371
 20
2.8645616675785135
 30
0.0
 50
90.0
  0
INSERT
  5
15E
100
AcDbEntity
  8
0
 62
256
370
-1
 48
1.0
  6
BYLAYER
100
AcDbBlockReference
  2
XLR Connector
 10
2.5999999999999996
 20
4.3656854249492367
 30
0.0
 50
90.0
  0
INSERT
  5
15F
100
AcDbEntity
  8
0
 62
256
370
-1
 48
1.0
  6
BYLAYER
100
AcDbBlockReference
  2
XLR Connector
 10
4.7999999999999998
 20
4.3656854249492367
 30
0.0
 50
90.0
  0
INSERT
  5
160
100
AcDbEntity
  8
0
 62
256
370
-1
 48
1.0
  6
BYLAYER
100
AcDbBlockReference
  2
XLR Connector
 10
4.7999999999999998
 20
2.7656854249492366
 30
0.0
 50
90.0
  0
INSERT
  5
161
100
AcDbEntity
  8
0
 62
256
370
-1
 48
1.0
  6
BYLAYER
100
AcDbBlockReference
  2
XLR Connector
 10
6.2999999999999998
 20
2.7656854249492366
 30
0.0
 50
90.0
  0
INSERT
  5
162
100
AcDbEntity
  8
0
 62
256
370
-1
 48
1.0
  6
BYLAYER
100
AcDbBlockReference
  2
XLR Connector
 10
6.2999999999999998
 20
4.3656854249492367
 30
0.0
 50
90.0
  0
MTEXT
  5
163
100
AcDbEntity
  8
0
 62
256
370
-1
 48
1.0
  6
BYLAYER
100
AcDbMText
 10
3.7466536725445394
 20
1.6880716496336134
 30
0.0
 40
1.0
 41
0.0
 71
1
 72
1
  1
\C7;\H0.25;TALKBACK OUT
  7
textstyle10
 50
90.0
 73
2
 44
1.0
  0
MTEXT
  5
164
100
AcDbEntity
  8
0
 62
256
370
-1
 48
1.0
  6
BYLAYER
100
AcDbMText
 10
1.4413997360684228
 20
1.9762283916931285
 30
0.0
 40
1.0
 41
0.0
 71
1
 72
1
  1
\C7;\H0.25;TALKBACK IN
  7
textstyle11
 50
90.0
 73
2
 44
1.0
  0
CIRCLE
  5
165
100
AcDbEntity
  8
0
 62
256
370
-1
 48
1.0
  6
BYLAYER
100
AcDbCircle
 10
1.5
 20
6.5
 30
0.0
 40
0.3086174394178466
  0
MTEXT
  5
166
100
AcDbEntity
  8
0
 62
256
370
-1
 48
1.0
  6
BYLAYER
100
AcDbMText
 10
0.4190666351032952
 20
7.3392318911228207
 30
0.0
 40
1.0
 41
0.0
 71
1
 72
1
  1
\C7;\H0.25;FOOTSWITCH
  7
textstyle12
 50
0.0
 73
2
 44
1.0
  0
LINE
  5
167
100
AcDbEntity
  8
0
 62
256
370
-1
 48
1.0
  6
BYLAYER
100
AcDbLine
 10
30.5999999999999979
 20
18.0
 30
0.0
 11
30.5999999999999979
 21
17.3999999999999986
 31
0.0
  0
LINE
  5
168
100
AcDbEntity
  8
0
 62
256
370
-1
 48
1.0
  6
BYLAYER
100
AcDbLine
 10
30.5999999999999979
 20
17.3999999999999986
 30
0.0
 11
31.1999999999999957
 21
17.3999999999999986
 31
0.0
  0
LINE
  5
169
100
AcDbEntity
  8
0
 62
256
370
-1
 48
1.0
  6
BYLAYER
100
AcDbLine
 10
31.1999999999999957
 20
17.3999999999999986
 30
0.0
 11
31.1999999999999957
 21
18.0
 31
0.0
  0
LINE
  5
16A
100
AcDbEntity
  8
0
 62
256
370
-1
 48
1.0
  6
BYLAYER
100
AcDbLine
 10
31.1999999999999957
 20
18.0
 30
0.0
 11
30.5999999999999979
 21
18.0
 31
0.0
  0
LINE
  5
16B
100
AcDbEntity
  8
0
 62
256
370
-1
 48
1.0
  6
BYLAYER
100
AcDbLine
 10
30.6999999999999957
 20
17.7999999999999972
 30
0.0
 11
30.6999999999999957
 21
17.5999999999999979
 31
0.0
  0
LINE
  5
16C
100
AcDbEntity
  8
0
 62
256
370
-1
 48
1.0
  6
BYLAYER
100
AcDbLine
 10
30.6999999999999957
 20
17.5999999999999979
 30
0.0
 11
31.0999999999999979
 21
17.5999999999999979
 31
0.0
  0
LINE
  5
16D
100
AcDbEntity
  8
0
 62
256
370
-1
 48
1.0
  6
BYLAYER
100
AcDbLine
 10
31.0999999999999979
 20
17.5999999999999979
 30
0.0
 11
31.0999999999999979
 21
17.7999999999999972
 31
0.0
  0
LINE
  5
16E
100
AcDbEntity
  8
0
 62
256
370
-1
 48
1.0
  6
BYLAYER
100
AcDbLine
 10
31.0999999999999979
 20
17.7999999999999972
 30
0.0
 11
30.6999999999999957
 21
17.7999999999999972
 31
0.0
  0
LINE
  5
16F
100
AcDbEntity
  8
0
 62
256
370
-1
 48
1.0
  6
BYLAYER
100
AcDbLine
 10
30.7999999999999972
 20
17.6999999999999993
 30
0.0
 11
30.9999999999999964
 21
17.6999999999999993
 31
0.0
  0
MTEXT
  5
170
100
AcDbEntity
  8
0
 62
256
370
-1
 48
1.0
  6
BYLAYER
100
AcDbMText
 10
30.5945502226204695
 20
18.4860197178876611
 30
0.0
 40
1.0
 41
0.0
 71
1
 72
1
  1
\C7;\H0.25;USB
  7
textstyle9
 50
0.0
 73
2
 44
1.0
  0
ENDSEC
  0
SECTION
  2
OBJECTS
  0
DICTIONARY
  5
C
100
AcDbDictionary
280
0
281
1
  3
ACAD_GROUP
350
D
  3
ACAD_LAYOUT
350
1A
  3
ACAD_MLINESTYLE
350
17
  3
ACAD_PLOTSETTINGS
350
19
  3
ACAD_PLOTSTYLENAME
350
E
  3
AcDbVariableDictionary
350
171
  3
QCAD_OBJECTS
350
172
  0
DICTIONARY
  5
D
100
AcDbDictionary
280
0
281
1
  0
ACDBDICTIONARYWDFLT
  5
E
100
AcDbDictionary
281
1
  3
Normal
350
F
100
AcDbDictionaryWithDefault
340
F
  0
ACDBPLACEHOLDER
  5
F
  0
DICTIONARY
  5
17
100
AcDbDictionary
280
0
281
1
  3
Standard
350
18
  0
MLINESTYLE
  5
18
100
AcDbMlineStyle
  2
STANDARD
 70
0
  3

 62
256
 51
90.0
 52
90.0
 71
2
 49
0.5
 62
256
  6
BYLAYER
 49
-0.5
 62
256
  6
BYLAYER
  0
DICTIONARY
  5
19
100
AcDbDictionary
280
0
281
1
  0
DICTIONARY
  5
1A
100
AcDbDictionary
281
1
  3
Layout1
350
1E
  3
Layout2
350
26
  3
Model
350
22
  0
LAYOUT
  5
1E
100
AcDbPlotSettings
  1

  2
none_device
  4

  6

 40
0.0
 41
0.0
 42
0.0
 43
0.0
 44
0.0
 45
0.0
 46
0.0
 47
0.0
 48
0.0
 49
0.0
140
0.0
141
0.0
142
1.0
143
1.0
 70
688
 72
0
 73
0
 74
5
  7

 75
16
147
1.0
148
0.0
149
0.0
100
AcDbLayout
  1
Layout1
 70
1
 71
1
 10
0.0
 20
0.0
 11
420.0
 21
297.0
 12
0.0
 22
0.0
 32
0.0
 14
100000000000000000000.0
 24
100000000000000000000.0
 34
100000000000000000000.0
 15
-100000000000000000000.0
 25
-100000000000000000000.0
 35
-100000000000000000000.0
146
0.0
 13
0.0
 23
0.0
 33
0.0
 16
1.0
 26
0.0
 36
0.0
 17
0.0
 27
1.0
 37
0.0
 76
0
330
1B
  0
LAYOUT
  5
22
100
AcDbPlotSettings
  1

  2
none_device
  4

  6

 40
0.0
 41
0.0
 42
0.0
 43
0.0
 44
0.0
 45
0.0
 46
0.0
 47
0.0
 48
0.0
 49
0.0
140
0.0
141
0.0
142
1.0
143
1.0
 70
1712
 72
0
 73
0
 74
0
  7

 75
0
147
1.0
148
0.0
149
0.0
100
AcDbLayout
  1
Model
 70
1
 71
0
 10
0.0
 20
0.0
 11
12.0
 21
9.0
 12
0.0
 22
0.0
 32
0.0
 14
0.0
 24
0.0
 34
0.0
 15
0.0
 25
0.0
 35
0.0
146
0.0
 13
0.0
 23
0.0
 33
0.0
 16
1.0
 26
0.0
 36
0.0
 17
0.0
 27
1.0
 37
0.0
 76
0
330
1F
  0
LAYOUT
  5
26
100
AcDbPlotSettings
  1

  2
none_device
  4

  6

 40
0.0
 41
0.0
 42
0.0
 43
0.0
 44
0.0
 45
0.0
 46
0.0
 47
0.0
 48
0.0
 49
0.0
140
0.0
141
0.0
142
1.0
143
1.0
 70
688
 72
0
 73
0
 74
5
  7

 75
16
147
1.0
148
0.0
149
0.0
100
AcDbLayout
  1
Layout2
 70
1
 71
2
 10
0.0
 20
0.0
 11
12.0
 21
9.0
 12
0.0
 22
0.0
 32
0.0
 14
0.0
 24
0.0
 34
0.0
 15
0.0
 25
0.0
 35
0.0
146
0.0
 13
0.0
 23
0.0
 33
0.0
 16
1.0
 26
0.0
 36
0.0
 17
0.0
 27
1.0
 37
0.0
 76
0
330
23
  0
DICTIONARY
  5
171
100
AcDbDictionary
281
1
  3
DIMASSOC
350
174
  3
HIDETEXT
350
173
  0
DICTIONARYVAR
  5
173
100
DictionaryVariables
280
0
  1
2
  0
DICTIONARYVAR
  5
174
100
DictionaryVariables
280
0
  1
1
  0
DICTIONARY
  5
172
100
AcDbDictionary
281
1
  3
ColorSettings/BackgroundColor
350
175
  3
ColorSettings/ColorMode
350
176
  3
Grid/DisplayGrid00
350
177
  3
Grid/DisplayGrid01
350
178
  3
Grid/DisplayGrid02
350
179
  3
Grid/DisplayGrid03
350
17A
  3
Grid/GridSpacingX00
350
17B
  3
Grid/GridSpacingX01
350
17C
  3
Grid/GridSpacingX02
350
17D
  3
Grid/GridSpacingX03
350
17E
  3
Grid/GridSpacingY00
350
17F
  3
Grid/GridSpacingY01
350
180
  3
Grid/GridSpacingY02
350
181
  3
Grid/GridSpacingY03
350
182
  3
Grid/IsometricGrid00
350
183
  3
Grid/IsometricGrid01
350
184
  3
Grid/IsometricGrid02
350
185
  3
Grid/IsometricGrid03
350
186
  3
Grid/IsometricProjection00
350
187
  3
Grid/IsometricProjection01
350
188
  3
Grid/IsometricProjection02
350
189
  3
Grid/IsometricProjection03
350
18A
  3
Grid/MetaGridSpacingX00
350
18B
  3
Grid/MetaGridSpacingX01
350
18C
  3
Grid/MetaGridSpacingX02
350
18D
  3
Grid/MetaGridSpacingX03
350
18E
  3
Grid/MetaGridSpacingY00
350
18F
  3
Grid/MetaGridSpacingY01
350
190
  3
Grid/MetaGridSpacingY02
350
191
  3
Grid/MetaGridSpacingY03
350
192
  3
MultiPageSettings/Columns
350
193
  3
MultiPageSettings/GlueMarginsBottom
350
194
  3
MultiPageSettings/GlueMarginsLeft
350
195
  3
MultiPageSettings/GlueMarginsRight
350
196
  3
MultiPageSettings/GlueMarginsTop
350
197
  3
MultiPageSettings/PrintCropMarks
350
198
  3
MultiPageSettings/Rows
350
199
  3
PageSettings/OffsetX
350
19A
  3
PageSettings/OffsetY
350
19B
  3
PageSettings/PageOrientation
350
19C
  3
PageSettings/PaperHeight
350
19D
  3
PageSettings/PaperWidth
350
19E
  3
PageSettings/Scale
350
19F
  3
PageSettings/ShowPaperBorders
350
1A0
  3
PageTagSettings/EnablePageTags
350
1A1
  3
PageTagSettings/TagAlignment
350
1A2
  3
PageTagSettings/TagFont
350
1A3
  3
PageTagSettings/TagPosition
350
1A4
  3
QCADVersion
350
1A5
  3
UnitSettings/PaperUnit
350
1A6
  3
ViewportCenter
350
1A7
  3
ViewportHeight
350
1A8
  3
ViewportWidth
350
1A9
  0
XRECORD
  5
175
330
172
100
AcDbXrecord
280
1
1000
White
  0
XRECORD
  5
176
330
172
100
AcDbXrecord
280
1
1000
FullColor
  0
XRECORD
  5
177
330
172
100
AcDbXrecord
280
1
290
1
  0
XRECORD
  5
178
330
172
100
AcDbXrecord
280
1
290
1
  0
XRECORD
  5
179
330
172
100
AcDbXrecord
280
1
290
1
  0
XRECORD
  5
17A
330
172
100
AcDbXrecord
280
1
290
1
  0
XRECORD
  5
17B
330
172
100
AcDbXrecord
280
1
1000
auto
  0
XRECORD
  5
17C
330
172
100
AcDbXrecord
280
1
1000
auto
  0
XRECORD
  5
17D
330
172
100
AcDbXrecord
280
1
1000
auto
  0
XRECORD
  5
17E
330
172
100
AcDbXrecord
280
1
1000
auto
  0
XRECORD
  5
17F
330
172
100
AcDbXrecord
280
1
1000
auto
  0
XRECORD
  5
180
330
172
100
AcDbXrecord
280
1
1000
auto
  0
XRECORD
  5
181
330
172
100
AcDbXrecord
280
1
1000
auto
  0
XRECORD
  5
182
330
172
100
AcDbXrecord
280
1
1000
auto
  0
XRECORD
  5
183
330
172
100
AcDbXrecord
280
1
290
0
  0
XRECORD
  5
184
330
172
100
AcDbXrecord
280
1
290
0
  0
XRECORD
  5
185
330
172
100
AcDbXrecord
280
1
290
0
  0
XRECORD
  5
186
330
172
100
AcDbXrecord
280
1
290
0
  0
XRECORD
  5
187
330
172
100
AcDbXrecord
280
1
 90
65537
  0
XRECORD
  5
188
330
172
100
AcDbXrecord
280
1
 90
65537
  0
XRECORD
  5
189
330
172
100
AcDbXrecord
280
1
 90
65537
  0
XRECORD
  5
18A
330
172
100
AcDbXrecord
280
1
 90
65537
  0
XRECORD
  5
18B
330
172
100
AcDbXrecord
280
1
1000
auto
  0
XRECORD
  5
18C
330
172
100
AcDbXrecord
280
1
1000
auto
  0
XRECORD
  5
18D
330
172
100
AcDbXrecord
280
1
1000
auto
  0
XRECORD
  5
18E
330
172
100
AcDbXrecord
280
1
1000
auto
  0
XRECORD
  5
18F
330
172
100
AcDbXrecord
280
1
1000
auto
  0
XRECORD
  5
190
330
172
100
AcDbXrecord
280
1
1000
auto
  0
XRECORD
  5
191
330
172
100
AcDbXrecord
280
1
1000
auto
  0
XRECORD
  5
192
330
172
100
AcDbXrecord
280
1
1000
auto
  0
XRECORD
  5
193
330
172
100
AcDbXrecord
280
1
 90
1
  0
XRECORD
  5
194
330
172
100
AcDbXrecord
280
1
 40
0.5
  0
XRECORD
  5
195
330
172
100
AcDbXrecord
280
1
 40
0.5
  0
XRECORD
  5
196
330
172
100
AcDbXrecord
280
1
 40
0.5
  0
XRECORD
  5
197
330
172
100
AcDbXrecord
280
1
 40
0.5
  0
XRECORD
  5
198
330
172
100
AcDbXrecord
280
1
290
0
  0
XRECORD
  5
199
330
172
100
AcDbXrecord
280
1
 90
1
  0
XRECORD
  5
19A
330
172
100
AcDbXrecord
280
1
 40
-21.9217761714212003
  0
XRECORD
  5
19B
330
172
100
AcDbXrecord
280
1
 40
-24.3840841616109429
  0
XRECORD
  5
19C
330
172
100
AcDbXrecord
280
1
1000
Landscape
  0
XRECORD
  5
19D
330
172
100
AcDbXrecord
280
1
 40
11.6929133858267722
  0
XRECORD
  5
19E
330
172
100
AcDbXrecord
280
1
 40
8.2677165354330704
  0
XRECORD
  5
19F
330
172
100
AcDbXrecord
280
1
 40
0.122
  0
XRECORD
  5
1A0
330
172
100
AcDbXrecord
280
1
290
1
  0
XRECORD
  5
1A1
330
172
100
AcDbXrecord
280
1
290
0
  0
XRECORD
  5
1A2
330
172
100
AcDbXrecord
280
1
1000
Inside
  0
XRECORD
  5
1A3
330
172
100
AcDbXrecord
280
1
1000
Arial,10,-1,5,50,0,0,0,0,0
  0
XRECORD
  5
1A4
330
172
100
AcDbXrecord
280
1
1000
TopLeft
  0
XRECORD
  5
1A5
330
172
100
AcDbXrecord
280
1
1000
3.32.6
  0
XRECORD
  5
1A6
330
172
100
AcDbXrecord
280
1
 90
1
  0
XRECORD
  5
1A8
330
172
100
AcDbXrecord
280
1
 40
78.9880637409738569
  0
XRECORD
  5
1A9
330
172
100
AcDbXrecord
280
1
 40
166.2788500910841663
  0
ENDSEC
  0
EOF
